<svg xmlns="http://www.w3.org/2000/svg" width="46" height="46" viewBox="0 0 46 46" fill="none">
  <rect x="0.95459" y="10.272" width="36" height="36" rx="4" transform="rotate(-15 0.95459 10.272)" fill="#FDA538"/>
  <path d="M20.9296 15.2725C25.1974 14.1289 29.5839 16.6615 30.7275 20.9293C31.8711 25.1972 29.3385 29.5837 25.0707 30.7273C20.8028 31.8709 16.4163 29.3383 15.2727 25.0705C14.1291 20.8026 16.6617 16.4161 20.9296 15.2725ZM21.3665 19.7777C21.2234 19.8161 21.1015 19.9096 21.0274 20.0379C20.9534 20.1662 20.9333 20.3186 20.9716 20.4616L22.1272 24.7743C22.2071 25.0726 22.5128 25.2491 22.8111 25.1691L27.1238 24.0136C27.197 23.9969 27.2661 23.9656 27.327 23.9216C27.3878 23.8776 27.4392 23.8217 27.478 23.7574C27.5168 23.6931 27.5422 23.6216 27.5527 23.5472C27.5632 23.4729 27.5586 23.3971 27.5391 23.3246C27.5197 23.252 27.4858 23.1841 27.4395 23.125C27.3932 23.0658 27.3355 23.0166 27.2698 22.9803C27.204 22.944 27.1316 22.9213 27.0569 22.9136C26.9822 22.9059 26.9067 22.9134 26.8349 22.9356L23.0609 23.9468L22.0496 20.1728C22.0113 20.0299 21.9179 19.908 21.7898 19.8339C21.6617 19.7598 21.5095 19.7396 21.3665 19.7777Z" fill="white"/>
</svg>
