<svg xmlns="http://www.w3.org/2000/svg" width="52" height="52" viewBox="0 0 52 52" fill="none">
  <rect y="10.8704" width="42" height="42" rx="4" transform="rotate(-15 0 10.8704)" fill="#FF383A"/>
  <path d="M32.8437 27.1924C31.9383 27.435 31.3991 28.3692 31.6417 29.2745C31.8843 30.1799 32.8183 30.7192 33.7237 30.4765C34.629 30.234 35.1684 29.2999 34.9258 28.3945C34.6832 27.4892 33.749 26.9498 32.8437 27.1924ZM33.4131 29.3174C33.1468 29.3888 32.8721 29.2303 32.8008 28.9639C32.7294 28.6975 32.8879 28.4229 33.1543 28.3515C33.4207 28.2801 33.6953 28.4387 33.7667 28.7051C33.8381 28.9714 33.6795 29.2461 33.4131 29.3174Z" fill="white"/>
  <path d="M30.8575 20.4087L28.0203 21.1689C27.8069 21.2261 27.6804 21.4455 27.7375 21.6588L29.7563 29.193C29.8134 29.4063 30.0327 29.5331 30.2462 29.4759L30.656 29.3661C30.8472 29.3148 30.9797 29.1317 30.9536 28.9354C30.7939 27.7329 31.5276 26.764 32.6486 26.4637C33.7697 26.1633 34.8895 26.6356 35.3524 27.7567C35.428 27.9398 35.6341 28.0322 35.8256 27.9809L36.2349 27.8712C36.4482 27.8141 36.5749 27.5946 36.5178 27.3813L35.5084 23.6142C35.484 23.5234 35.4286 23.4442 35.3519 23.3905L31.1909 20.4678C31.143 20.4342 31.0883 20.4115 31.0307 20.4013C30.9731 20.391 30.914 20.3936 30.8575 20.4087ZM29.2349 24.1563L28.7173 22.2245C28.6602 22.0112 28.7867 21.7918 29.0001 21.7346L30.7021 21.2786C30.8167 21.2479 30.9391 21.2697 31.0361 21.3381L33.1635 22.8386C33.4406 23.0342 33.3641 23.4641 33.0364 23.5519L29.7248 24.4392C29.5114 24.4964 29.2921 24.3698 29.2349 24.1563ZM17.6892 32.8407L18.6785 32.5756C18.8698 32.5244 19.0023 32.3412 18.9762 32.1449C18.8165 30.9425 19.5501 29.9736 20.6712 29.6732C21.7922 29.3728 22.912 29.8451 23.375 30.9663C23.4505 31.1494 23.6567 31.2417 23.8481 31.1904L28.7008 29.8902C28.9141 29.833 29.0407 29.6135 28.9836 29.4003L26.3954 19.741C26.3383 19.5277 26.1188 19.401 25.9055 19.4582L14.8939 22.4087C14.6805 22.4659 14.554 22.6853 14.6111 22.8986L17.1993 32.5579C17.2564 32.7712 17.4757 32.8979 17.6892 32.8407Z" fill="white"/>
  <path d="M20.8662 30.4018C19.9608 30.6444 19.4216 31.5786 19.6641 32.4839C19.9067 33.3893 20.8407 33.9286 21.7462 33.686C22.6514 33.4434 23.1909 32.5093 22.9483 31.6039C22.7057 30.6986 21.7715 30.1592 20.8662 30.4018ZM21.4356 32.5268C21.1692 32.5982 20.8946 32.4397 20.8232 32.1733C20.7518 31.9069 20.9104 31.6323 21.1768 31.5609C21.4432 31.4895 21.7178 31.6481 21.7892 31.9145C21.8605 32.1809 21.702 32.4555 21.4356 32.5268Z" fill="white"/>
</svg>
