<svg xmlns="http://www.w3.org/2000/svg" width="40" height="40" viewBox="0 0 40 40" fill="none">
  <path d="M0.50929 11.7313C3.47907 12.6176 10.7464 15.4289 10.4014 21.5734C10.3312 22.7989 9.79454 23.951 8.90155 24.7932C4.72753 28.6576 1.72501 33.6184 0.237192 39.1085C0.209895 39.2146 0.207335 39.3254 0.229712 39.4326C0.252088 39.5397 0.298801 39.6403 0.36624 39.7265C0.433679 39.8127 0.520039 39.8823 0.618647 39.9298C0.717255 39.9774 0.82547 40.0016 0.93493 40.0006L21.0156 39.9963C21.1756 39.9954 21.3307 39.9407 21.4559 39.8411C21.5812 39.7415 21.6693 39.6027 21.7063 39.447C25.1032 25.6446 36.0781 22.3276 39.44 21.6277C39.5993 21.5936 39.7419 21.5056 39.8439 21.3787C39.9459 21.2517 40.001 21.0935 40 20.9306V11.6641C40 11.5604 39.9775 11.4579 39.9339 11.3638C39.8903 11.2696 39.8268 11.1861 39.7477 11.119C39.6685 11.0519 39.5758 11.0029 39.4758 10.9753C39.3758 10.9477 39.271 10.9422 39.1687 10.9591C35.078 11.6828 31.0556 12.7493 27.1438 14.1475V5.62317C28.5368 5.26353 29.445 3.92419 29.2637 2.49699C29.0824 1.06979 27.8682 0 26.4295 0C24.9909 0 23.7766 1.06979 23.5954 2.49699C23.4142 3.92419 24.3223 5.26353 25.7153 5.62317V14.6525C25.5623 14.69 25.4011 14.6753 25.2574 14.6106C25.1137 14.5458 24.9958 14.4349 24.9225 14.2954C21.2385 7.07661 5.45675 5.92954 0.737814 5.74817C0.642046 5.74499 0.546618 5.76112 0.457213 5.79559C0.367808 5.83006 0.286255 5.88217 0.217411 5.94882C0.148566 6.01547 0.0938389 6.09529 0.056488 6.18353C0.0191371 6.27177 -7.34163e-05 6.36662 6.86189e-07 6.46244V11.0492C-0.000212586 11.2027 0.0492941 11.3521 0.141106 11.475C0.232919 11.598 0.362095 11.6879 0.50929 11.7313ZM33.4933 16.8667C34.4454 16.6052 35.3882 16.3853 36.2945 16.2124C36.3877 16.192 36.4841 16.1905 36.5779 16.208C36.6717 16.2254 36.761 16.2615 36.8406 16.3141C36.9202 16.3666 36.9885 16.4346 37.0414 16.514C37.0944 16.5934 37.1308 16.6825 37.1487 16.7762C37.1666 16.87 37.1656 16.9663 37.1456 17.0596C37.1256 17.1529 37.0872 17.2412 37.0326 17.3194C36.9779 17.3976 36.9081 17.4641 36.8274 17.5148C36.7466 17.5656 36.6565 17.5997 36.5623 17.6151C35.6924 17.7815 34.7868 17.993 33.8711 18.2444C33.7728 18.2716 33.6697 18.2774 33.5689 18.2614C33.4682 18.2455 33.372 18.2081 33.2868 18.1518C33.2017 18.0956 33.1296 18.0217 33.0754 17.9353C33.0212 17.8488 32.9862 17.7517 32.9727 17.6506C32.9497 17.479 32.9899 17.3049 33.0856 17.1607C33.1814 17.0165 33.3263 16.912 33.4933 16.8667ZM26.8281 19.3515C27.7937 18.8893 28.7751 18.4666 29.7465 18.0966C29.8348 18.0592 29.9298 18.0401 30.0258 18.0403C30.1217 18.0405 30.2166 18.06 30.3049 18.0977C30.3931 18.1353 30.4729 18.1904 30.5394 18.2595C30.6058 18.3287 30.6577 18.4106 30.6919 18.5002C30.7261 18.5898 30.7418 18.6855 30.7383 18.7813C30.7347 18.8772 30.7118 18.9714 30.671 19.0582C30.6303 19.1451 30.5724 19.2228 30.5009 19.2868C30.4295 19.3508 30.3458 19.3998 30.255 19.4307C29.3024 19.7957 28.3648 20.1988 27.4445 20.6392C27.3486 20.686 27.2434 20.7104 27.1367 20.7106C26.9752 20.7101 26.8187 20.6549 26.6926 20.5539C26.5665 20.453 26.4784 20.3123 26.4426 20.1548C26.4068 19.9973 26.4254 19.8324 26.4955 19.6868C26.5655 19.5413 26.6828 19.4238 26.8282 19.3535V19.3515H26.8281ZM20.4521 23.2397C21.3339 22.5587 22.2498 21.9229 23.1962 21.3349C23.3571 21.2391 23.5492 21.2103 23.7311 21.2547C23.913 21.2991 24.0702 21.4131 24.1689 21.5723C24.2676 21.7314 24.2998 21.9229 24.2587 22.1056C24.2176 22.2883 24.1064 22.4475 23.9491 22.5491C23.0444 23.1102 22.1685 23.7166 21.3249 24.366C21.1749 24.4798 20.9859 24.5297 20.7992 24.5049C20.6125 24.48 20.4432 24.3824 20.3281 24.2333C20.213 24.0842 20.1615 23.8957 20.1847 23.7088C20.208 23.5219 20.3041 23.3517 20.4522 23.2353L20.4521 23.2397ZM18.4087 25.9224C18.5426 26.0563 18.6178 26.2379 18.6178 26.4273C18.6178 26.6167 18.5426 26.7984 18.4087 26.9323C17.441 27.8927 16.5487 28.9262 15.7396 30.0235C15.684 30.099 15.614 30.1629 15.5336 30.2114C15.4533 30.2599 15.3642 30.2921 15.2714 30.3061C15.1786 30.3202 15.084 30.3159 14.9929 30.2933C14.9018 30.2708 14.816 30.2306 14.7404 30.1749C14.6649 30.1192 14.601 30.0492 14.5525 29.9689C14.504 29.8885 14.4718 29.7994 14.4578 29.7066C14.4437 29.6139 14.4481 29.5192 14.4706 29.4281C14.4931 29.337 14.5334 29.2512 14.589 29.1757C15.4421 28.0199 16.3824 26.9311 17.4017 25.9188C17.536 25.7862 17.7173 25.7122 17.9059 25.7129C18.0946 25.7136 18.2753 25.7889 18.4087 25.9224ZM13.6548 12.4048C13.7573 12.2455 13.9188 12.1334 14.1039 12.0933C14.289 12.0531 14.4825 12.088 14.6418 12.1905C15.7258 12.8673 16.7138 13.6867 17.5795 14.6267C17.6446 14.6963 17.6951 14.7782 17.728 14.8676C17.761 14.9569 17.7758 15.052 17.7714 15.1472C17.7671 15.2423 17.7438 15.3357 17.7028 15.4217C17.6619 15.5077 17.6041 15.5847 17.533 15.648C17.4619 15.7114 17.3788 15.7599 17.2886 15.7907C17.1985 15.8215 17.1031 15.8339 17.008 15.8272C16.913 15.8206 16.8203 15.795 16.7353 15.752C16.6503 15.7089 16.5747 15.6493 16.5131 15.5767C15.7339 14.7335 14.8451 13.9987 13.8705 13.3919C13.7915 13.3413 13.7232 13.2756 13.6696 13.1985C13.616 13.1215 13.5781 13.0347 13.5581 12.943C13.538 12.8514 13.5363 12.7566 13.5529 12.6643C13.5694 12.5719 13.6041 12.4838 13.6548 12.4048ZM13.0733 32.8876C13.1572 32.9297 13.232 32.9879 13.2933 33.0589C13.3547 33.1299 13.4015 33.2122 13.431 33.3013C13.4605 33.3904 13.4722 33.4844 13.4654 33.578C13.4586 33.6716 13.4334 33.7629 13.3912 33.8468C12.7293 35.1704 12.1783 36.5467 11.7442 37.9615C11.7089 38.0832 11.6418 38.1933 11.5499 38.2805C11.458 38.3678 11.3445 38.429 11.2212 38.4579C11.0978 38.4869 10.9689 38.4825 10.8478 38.4451C10.7267 38.4078 10.6177 38.339 10.532 38.2457C10.4463 38.1523 10.3869 38.0378 10.3601 37.9139C10.3333 37.79 10.3399 37.6612 10.3793 37.5408C10.8367 36.05 11.4172 34.5999 12.1149 33.2054C12.2919 32.8531 12.7209 32.7107 13.0733 32.8876ZM7.99516 9.90708C8.05727 9.72821 8.18785 9.58132 8.35821 9.49869C8.52857 9.41605 8.72478 9.40445 8.90369 9.46642C9.8779 9.80284 10.825 10.1806 11.7206 10.597C11.8926 10.6765 12.026 10.821 12.0915 10.9988C12.1569 11.1766 12.149 11.3732 12.0696 11.5452C11.9901 11.7172 11.8456 11.8505 11.6678 11.916C11.4899 11.9814 11.2934 11.9735 11.1214 11.8941C10.2694 11.5006 9.36583 11.1377 8.43663 10.8155C8.34798 10.7849 8.26623 10.7371 8.19607 10.6748C8.1259 10.6126 8.06868 10.5371 8.02769 10.4528C7.98669 10.3684 7.96272 10.2768 7.95714 10.1832C7.95156 10.0895 7.96448 9.99572 7.99516 9.90708ZM2.29701 7.8751C3.2841 8.0179 4.26189 8.20293 5.20254 8.41722C5.32582 8.44402 5.4398 8.503 5.53289 8.58815C5.62597 8.67331 5.69483 8.78161 5.73247 8.90202C5.7701 9.02244 5.77516 9.15067 5.74714 9.27368C5.71911 9.39669 5.659 9.51008 5.57292 9.60231C5.48688 9.69455 5.37794 9.76237 5.25718 9.79885C5.13643 9.83533 5.00816 9.83918 4.88544 9.81C3.96011 9.60048 3.02712 9.42633 2.08852 9.28791C1.9049 9.25611 1.74097 9.15382 1.63172 9.00285C1.52247 8.85187 1.47655 8.66418 1.50375 8.47982C1.53096 8.29546 1.62914 8.12904 1.77734 8.01606C1.92554 7.90308 2.11203 7.85249 2.29701 7.8751Z" fill="#199C68"/>
</svg>
