<svg xmlns="http://www.w3.org/2000/svg" width="32" height="23" viewBox="0 0 32 23" fill="none">
  <path d="M31.9075 10.975L29.381 5.25884C29.2925 5.05613 29.1472 4.88342 28.9625 4.76167C28.7779 4.63992 28.5619 4.57435 28.3407 4.57291H22.2244L22.5902 1.26898C22.6082 1.10859 22.5921 0.946212 22.5428 0.792519C22.4936 0.638825 22.4123 0.497304 22.3044 0.377265C22.1976 0.258835 22.0671 0.164086 21.9214 0.0991123C21.7757 0.0341381 21.618 0.00037707 21.4585 0H5.71622C5.41302 0 5.12223 0.120447 4.90783 0.334844C4.69344 0.54924 4.57299 0.840024 4.57299 1.14323C4.57299 1.44643 4.69344 1.73721 4.90783 1.95161C5.12223 2.16601 5.41302 2.28645 5.71622 2.28645H11.4324C11.7356 2.28645 12.0263 2.4069 12.2407 2.6213C12.4551 2.83569 12.5756 3.12648 12.5756 3.42968C12.5756 3.73288 12.4551 4.02367 12.2407 4.23806C12.0263 4.45246 11.7356 4.57291 11.4324 4.57291H3.42976C3.12656 4.57291 2.83578 4.69335 2.62138 4.90775C2.40698 5.12215 2.28654 5.41293 2.28654 5.71613C2.28654 6.01934 2.40698 6.31012 2.62138 6.52452C2.83578 6.73891 3.12656 6.85936 3.42976 6.85936H14.862C15.1652 6.85936 15.456 6.97981 15.6704 7.1942C15.8848 7.4086 16.0053 7.69939 16.0053 8.00259C16.0053 8.30579 15.8848 8.59657 15.6704 8.81097C15.456 9.02537 15.1652 9.14581 14.862 9.14581H6.85944C6.55624 9.14581 6.26546 9.26626 6.05106 9.48066C5.83667 9.69506 5.71622 9.98584 5.71622 10.289C5.71622 10.5922 5.83667 10.883 6.05106 11.0974C6.26546 11.3118 6.55624 11.4323 6.85944 11.4323H11.4324C11.7356 11.4323 12.0263 11.5527 12.2407 11.7671C12.4551 11.9815 12.5756 12.2723 12.5756 12.5755C12.5756 12.8787 12.4551 13.1695 12.2407 13.3839C12.0263 13.5983 11.7356 13.7187 11.4324 13.7187H2.28654C1.98333 13.7187 1.69255 13.8392 1.47815 14.0536C1.26376 14.268 1.14331 14.5587 1.14331 14.8619C1.14331 15.1652 1.26376 15.4559 1.47815 15.6703C1.69255 15.8847 1.98333 16.0052 2.28654 16.0052H4.57299C4.87619 16.0052 5.16698 16.1256 5.38137 16.34C5.59577 16.5544 5.71622 16.8452 5.71622 17.1484C5.71622 17.4516 5.59577 17.7424 5.38137 17.9568C5.16698 18.1712 4.87619 18.2916 4.57299 18.2916H3.42976C3.12656 18.2916 2.83578 18.4121 2.62138 18.6265C2.40698 18.8409 2.28654 19.1317 2.28654 19.4349C2.28654 19.7381 2.40698 20.0288 2.62138 20.2432C2.83578 20.4576 3.12656 20.5781 3.42976 20.5781H6.68796C6.81141 21.0602 7.04636 21.5066 7.3739 21.8814C7.65145 22.1917 7.99156 22.4397 8.37185 22.6092C8.75214 22.7786 9.16399 22.8657 9.58033 22.8645C10.2848 22.8444 10.9677 22.6167 11.5433 22.2099C12.1189 21.8031 12.5615 21.2355 12.8157 20.5781H21.5499C21.6734 21.0602 21.9083 21.5066 22.2358 21.8814C22.5134 22.1917 22.8535 22.4397 23.2338 22.6092C23.6141 22.7786 24.0259 22.8657 24.4423 22.8645C25.1468 22.8444 25.8297 22.6167 26.4052 22.2099C26.9808 21.8031 27.4234 21.2355 27.6776 20.5781H29.9641C30.2467 20.5798 30.5199 20.4768 30.731 20.2889C30.9422 20.101 31.0762 19.8415 31.1073 19.5606L31.9876 11.558C32.0189 11.36 31.9911 11.1572 31.9075 10.975ZM9.58033 20.5781C9.48552 20.5822 9.39103 20.5648 9.30391 20.5271C9.2168 20.4895 9.13933 20.4327 9.0773 20.3609C8.98756 20.2498 8.92191 20.1214 8.88451 19.9836C8.84712 19.8458 8.8388 19.7018 8.86009 19.5606C8.88929 19.2396 9.02787 18.9384 9.25264 18.7074C9.47741 18.4764 9.77471 18.3296 10.0948 18.2916C10.1896 18.2875 10.2841 18.3049 10.3712 18.3426C10.4583 18.3802 10.5358 18.437 10.5978 18.5088C10.6875 18.6199 10.7532 18.7483 10.7906 18.8861C10.828 19.0239 10.8363 19.1679 10.815 19.3091C10.7858 19.6301 10.6472 19.9313 10.4225 20.1623C10.1977 20.3933 9.90039 20.5401 9.58033 20.5781ZM24.4423 20.5781C24.3475 20.5822 24.253 20.5648 24.1659 20.5271C24.0787 20.4895 24.0013 20.4327 23.9393 20.3609C23.8495 20.2498 23.7839 20.1214 23.7465 19.9836C23.7091 19.8458 23.7007 19.7018 23.722 19.5606C23.7512 19.2396 23.8898 18.9384 24.1146 18.7074C24.3394 18.4764 24.6367 18.3296 24.9567 18.2916C25.0515 18.2875 25.146 18.3049 25.2331 18.3426C25.3203 18.3802 25.3977 18.437 25.4597 18.5088C25.5495 18.6199 25.6151 18.7483 25.6525 18.8861C25.6899 19.0239 25.6982 19.1679 25.677 19.3091C25.6478 19.6301 25.5092 19.9313 25.2844 20.1623C25.0596 20.3933 24.7623 20.5401 24.4423 20.5781ZM29.5868 12.5755H24.5337C24.3742 12.5751 24.2165 12.5414 24.0708 12.4764C23.9251 12.4114 23.7946 12.3167 23.6877 12.1982C23.5799 12.0782 23.4986 11.9367 23.4494 11.783C23.4001 11.6293 23.3839 11.4669 23.4019 11.3065L23.7792 7.87683C23.8129 7.59799 23.9481 7.34131 24.1589 7.15575C24.3698 6.9702 24.6416 6.86876 24.9224 6.87079H27.5861L29.724 11.6152L29.5868 12.5755Z" fill="white"/>
  <path d="M2.28645 11.4323C2.58966 11.4323 2.88044 11.3119 3.09484 11.0975C3.30923 10.8831 3.42968 10.5923 3.42968 10.2891C3.42968 9.9859 3.30923 9.69511 3.09484 9.48072C2.88044 9.26632 2.58966 9.14587 2.28645 9.14587H1.14323C0.840024 9.14587 0.54924 9.26632 0.334843 9.48072C0.120447 9.69511 0 9.9859 0 10.2891C0 10.5923 0.120447 10.8831 0.334843 11.0975C0.54924 11.3119 0.840024 11.4323 1.14323 11.4323H2.28645Z" fill="white"/>
</svg>
