<svg width="40" height="40" viewBox="0 0 40 40" fill="none" xmlns="http://www.w3.org/2000/svg">
<g filter="url(#filter0_d_10_2240)">
<circle cx="20" cy="20" r="12" fill="url(#paint0_linear_10_2240)"/>
</g>
<path fill-rule="evenodd" clip-rule="evenodd" d="M17.5375 23.4986C17.5953 23.4821 17.656 23.4778 17.7156 23.486C17.7752 23.4941 17.8324 23.5146 17.8837 23.546C18.748 24.0609 19.7707 24.2423 20.7594 24.056C21.7481 23.8698 22.6346 23.3287 23.2523 22.5346C23.87 21.7405 24.1763 20.7481 24.1135 19.7439C24.0508 18.7398 23.6233 17.7933 22.9115 17.0822C22.1998 16.3712 21.2527 15.9448 20.2485 15.8831C19.2444 15.8214 18.2523 16.1287 17.4588 16.7473C16.6653 17.3658 16.1252 18.2529 15.94 19.2418C15.7548 20.2307 15.9373 21.2532 16.4532 22.1169C16.4845 22.1681 16.5048 22.2252 16.5129 22.2846C16.5209 22.344 16.5166 22.4045 16.5001 22.4621C16.3791 22.8906 16.0869 23.9131 16.0869 23.9131C16.0869 23.9131 17.1094 23.6209 17.5375 23.4986ZM15.6997 22.551C15.0783 21.5034 14.8606 20.2649 15.0876 19.0681C15.3147 17.8713 15.9708 16.7986 16.9328 16.0513C17.8948 15.3041 19.0965 14.9337 20.3123 15.0098C21.528 15.0858 22.6742 15.6031 23.5355 16.4645C24.3969 17.3258 24.9142 18.472 24.9902 19.6877C25.0663 20.9035 24.6959 22.1052 23.9487 23.0672C23.2014 24.0292 22.1287 24.6853 20.9319 24.9124C19.7351 25.1394 18.4966 24.9217 17.449 24.3003C17.449 24.3003 16.0628 24.6963 15.3763 24.8926C15.339 24.9032 15.2995 24.9037 15.262 24.8939C15.2245 24.8842 15.1902 24.8646 15.1628 24.8372C15.1354 24.8098 15.1158 24.7755 15.1061 24.738C15.0963 24.7005 15.0968 24.661 15.1074 24.6237C15.3037 23.9372 15.6997 22.551 15.6997 22.551Z" fill="white"/>
<path fill-rule="evenodd" clip-rule="evenodd" d="M17.6047 18.6491C17.6723 19.6225 18.0877 20.5391 18.7751 21.2316C19.4625 21.924 20.3759 22.3462 21.3488 22.4211H21.3492C21.5045 22.4331 21.6606 22.4113 21.8067 22.3573C21.9529 22.3033 22.0855 22.2182 22.1957 22.108L22.3474 21.9563C22.419 21.8846 22.4593 21.7875 22.4594 21.6861V21.364C22.4593 21.3236 22.4481 21.284 22.4269 21.2496C22.4056 21.2153 22.3753 21.1875 22.3391 21.1694C22.1103 21.0551 21.6133 20.8066 21.3699 20.6849C21.329 20.6645 21.2828 20.6574 21.2378 20.6647C21.1927 20.672 21.1511 20.6933 21.1188 20.7255C20.9975 20.8468 20.8058 21.0388 20.6971 21.1472C20.6718 21.1725 20.6406 21.1912 20.6064 21.2016C20.5722 21.212 20.5359 21.2138 20.5008 21.2068L20.4988 21.2064C20.078 21.1222 19.6915 20.9153 19.388 20.6119C19.0845 20.3084 18.8777 19.9219 18.7935 19.501L18.7931 19.4991C18.7861 19.464 18.7879 19.4277 18.7983 19.3935C18.8087 19.3592 18.8273 19.3281 18.8526 19.3028C18.9611 19.1941 19.1531 19.0024 19.2744 18.8811C19.3066 18.8488 19.3279 18.8072 19.3352 18.7621C19.3425 18.7171 19.3354 18.6708 19.315 18.63C19.1933 18.3866 18.9448 17.8896 18.8305 17.6607C18.8124 17.6246 18.7846 17.5942 18.7503 17.573C18.7159 17.5518 18.6763 17.5405 18.6359 17.5405H18.362C18.297 17.5405 18.2327 17.5542 18.1732 17.5807C18.1138 17.6071 18.0606 17.6457 18.017 17.694C17.9734 17.7427 17.9231 17.7983 17.8727 17.8544C17.7778 17.9597 17.7051 18.0831 17.6588 18.2171C17.6126 18.3512 17.5938 18.4931 17.6036 18.6346C17.604 18.6394 17.6042 18.6441 17.6047 18.6491Z" fill="white"/>
<defs>
<filter id="filter0_d_10_2240" x="0" y="0" width="40" height="40" filterUnits="userSpaceOnUse" color-interpolation-filters="sRGB">
<feFlood flood-opacity="0" result="BackgroundImageFix"/>
<feColorMatrix in="SourceAlpha" type="matrix" values="0 0 0 0 0 0 0 0 0 0 0 0 0 0 0 0 0 0 127 0" result="hardAlpha"/>
<feOffset/>
<feGaussianBlur stdDeviation="4"/>
<feComposite in2="hardAlpha" operator="out"/>
<feColorMatrix type="matrix" values="0 0 0 0 0.329167 0 0 0 0 0.329167 0 0 0 0 0.329167 0 0 0 0.12 0"/>
<feBlend mode="normal" in2="BackgroundImageFix" result="effect1_dropShadow_10_2240"/>
<feBlend mode="normal" in="SourceGraphic" in2="effect1_dropShadow_10_2240" result="shape"/>
</filter>
<linearGradient id="paint0_linear_10_2240" x1="20" y1="8" x2="20" y2="32" gradientUnits="userSpaceOnUse">
<stop stop-color="#58CE68"/>
<stop offset="1" stop-color="#359E43"/>
</linearGradient>
</defs>
</svg>
