<svg xmlns="http://www.w3.org/2000/svg" width="16" height="16" viewBox="0 0 16 16">
  <path d="M3.70281 12.571C2.77495 12.5727 2.01667 13.312 1.99146 14.2395C2.00289 14.2689 2.00289 14.3016 1.99146 14.331C2.01639 15.272 2.79532 16.0169 3.7365 15.9998C4.67768 15.9827 5.42905 15.21 5.4198 14.2687C5.41055 13.3274 4.64415 12.5696 3.70281 12.571ZM3.70281 15.428C3.07203 15.4265 2.5618 14.9141 2.56287 14.2833C2.56393 13.6526 3.07584 13.1419 3.70663 13.1425C4.33741 13.143 4.84848 13.6545 4.84848 14.2853C4.84764 14.9172 4.33472 15.4288 3.70281 15.428Z"/>
  <path d="M3.70271 13.7137C3.38635 13.7145 3.13051 13.9716 3.1313 14.288C3.13208 14.6044 3.38919 14.8602 3.70555 14.8594C4.02191 14.8586 4.27774 14.6015 4.27696 14.2852C4.27571 13.969 4.01888 13.7134 3.70271 13.7137ZM2.36933 10.9404C2.4229 10.8869 2.49555 10.8567 2.57132 10.8567H4.85694C4.9327 10.8567 5.00536 10.8869 5.05893 10.9404L5.83233 11.7138H9.14246V5.45603C9.14011 5.44693 9.13824 5.43771 9.13687 5.42841C9.13824 5.41911 9.14011 5.40989 9.14246 5.40078V4.857C9.14236 4.78125 9.11223 4.70864 9.05867 4.65508C9.00511 4.60152 8.9325 4.57139 8.85675 4.57129H8.77035C8.36296 6.5666 6.6077 7.9997 4.57123 7.9997C2.53476 7.9997 0.779496 6.5666 0.372108 4.57129H0.285706C0.209962 4.57139 0.13735 4.60152 0.0837909 4.65508C0.0302321 4.70864 9.92165e-05 4.78125 0 4.857V11.7138H1.5959L2.36933 10.9404ZM8.85075 13.428H7.13483V14.5709H8.85132V14.2866L8.85075 14.2852L8.85132 14.2837L8.85075 13.428ZM10.2796 11.431V5.71411H9.71387V11.7138H10.2824L10.2796 11.431Z"/>
  <path d="M4.57129 7.43048C6.60804 7.43048 8.26484 5.79014 8.28522 3.75349C8.30559 1.71683 6.68195 0.0437173 4.64557 0.00296919C4.62662 0.000584906 4.60751 -0.000365667 4.58842 0.000125564H4.57126C4.54647 -0.000348857 4.52167 0.000600579 4.49698 0.00296919C2.46067 0.0437173 0.836993 1.71683 0.857367 3.75349C0.877741 5.79014 2.53454 7.43048 4.57129 7.43048ZM4.28559 0.857212C4.28545 0.791318 4.30815 0.727411 4.34982 0.676365C4.39148 0.625318 4.44955 0.590285 4.51414 0.577224C4.55185 0.569631 4.5907 0.569631 4.62841 0.577224C4.693 0.590285 4.75107 0.625318 4.79274 0.676365C4.83441 0.727411 4.8571 0.791318 4.85697 0.857212V3.59709L6.48833 5.22558C6.54187 5.27951 6.57191 5.35243 6.57191 5.42843C6.57191 5.50442 6.54187 5.57734 6.48833 5.63128C6.43418 5.6844 6.36134 5.71416 6.28548 5.71416C6.20962 5.71416 6.13679 5.6844 6.08263 5.63128L4.36843 3.91707C4.3158 3.8626 4.28614 3.78998 4.28559 3.71424V0.857212ZM14.1062 5.99985H12.2824V7.71406H13.4252C13.9405 7.71334 14.4423 7.87842 14.8565 8.18491V7.56269C14.8552 7.51611 14.8438 7.47037 14.8231 7.42863L14.1062 5.99985ZM15.7137 9.71397H15.428V11.7139H15.7137C15.7894 11.7138 15.862 11.6836 15.9156 11.6301C15.9691 11.5765 15.9993 11.5039 15.9994 11.4282V9.99967C15.9993 9.92393 15.9691 9.85132 15.9156 9.79777C15.862 9.74421 15.7894 9.71407 15.7137 9.71397ZM13.8812 11.4282H11.8321L11.0587 12.2016C11.0051 12.2552 10.9325 12.2853 10.8567 12.2853H10.571L10.5687 12.2848L10.5664 12.2853H5.71412C5.63835 12.2853 5.56569 12.2552 5.51212 12.2016L4.73872 11.4282H2.68969L1.91629 12.2016C1.86272 12.2552 1.79006 12.2853 1.7143 12.2853H0.85718V13.7138C0.857279 13.7895 0.887412 13.8621 0.940971 13.9157C0.99453 13.9693 1.06714 13.9994 1.14289 13.9995H1.43659C1.5804 12.8567 2.5522 11.9996 3.70396 11.9996C4.85575 11.9996 5.82752 12.8567 5.97132 13.9995H6.56355V13.4281C6.56386 13.1126 6.8195 12.857 7.13496 12.8567H8.85097C9.16643 12.857 9.42207 13.1126 9.42238 13.4281V13.9995H10.5909C10.7011 13.1163 11.3146 12.3778 12.1625 12.1075C13.0104 11.8371 13.9382 12.0843 14.5392 12.7406L14.7332 12.2542C14.7042 12.2412 14.6776 12.2234 14.6546 12.2016L13.8812 11.4282Z"/>
  <path d="M13.4252 8.28537H12.2824C11.9672 8.28443 11.7119 8.02916 11.711 7.71396V5.99976C11.7119 5.68455 11.9672 5.42928 12.2824 5.42835H13.8195L13.6138 5.01693C13.5905 4.96922 13.5544 4.92896 13.5095 4.9007C13.4645 4.87243 13.4126 4.85727 13.3595 4.85693H10.8511V5.43406L10.8539 11.5995L11.511 10.9395C11.5655 10.8869 11.6381 10.8572 11.7139 10.8567H13.9995C14.0752 10.8572 14.1479 10.8869 14.2023 10.9395L14.8566 11.5967V9.42819C14.8566 8.29965 13.4824 8.28537 13.4252 8.28537ZM12.5681 9.71387H11.711C11.6352 9.71387 11.5626 9.68377 11.509 9.63019C11.4554 9.57661 11.4253 9.50394 11.4253 9.42816C11.4253 9.35239 11.4554 9.27972 11.509 9.22614C11.5626 9.17256 11.6352 9.14246 11.711 9.14246H12.5681C12.6439 9.14246 12.7166 9.17256 12.7701 9.22614C12.8237 9.27972 12.8538 9.35239 12.8538 9.42816C12.8538 9.50394 12.8237 9.57661 12.7701 9.63019C12.7166 9.68377 12.6439 9.71387 12.5681 9.71387ZM12.8595 12.5709C11.9128 12.5709 11.1453 13.3384 11.1453 14.2851C11.1453 15.2318 11.9128 15.9993 12.8595 15.9993C13.8063 15.9993 14.5737 15.2318 14.5737 14.2851C14.5727 13.3388 13.8058 12.572 12.8595 12.5709ZM12.8595 15.4279C12.2284 15.4279 11.7168 14.9162 11.7168 14.2851C11.7168 13.654 12.2284 13.1423 12.8595 13.1423C13.4907 13.1423 14.0023 13.654 14.0023 14.2851C14.0011 14.9158 13.4902 15.4267 12.8595 15.4279Z"/>
  <path d="M12.8595 13.7139C12.746 13.7136 12.6351 13.747 12.5407 13.8098C12.4462 13.8726 12.3726 13.9621 12.329 14.0668C12.2855 14.1716 12.274 14.2869 12.2961 14.3981C12.3181 14.5094 12.3727 14.6116 12.4529 14.6918C12.5331 14.772 12.6353 14.8266 12.7466 14.8486C12.8579 14.8707 12.9732 14.8592 13.0779 14.8157C13.1826 14.7721 13.2721 14.6985 13.3349 14.6041C13.3978 14.5096 13.4311 14.3987 13.4309 14.2852C13.4299 13.9701 13.1746 13.7148 12.8595 13.7139Z"/>
</svg>
