<svg xmlns="http://www.w3.org/2000/svg" width="16" height="16" viewBox="0 0 16 16">
<path d="M15.4119 5.43969H14.0671C14.1756 5.31192 14.2412 5.14785 14.2412 4.96892C14.2412 4.92028 14.2361 4.87279 14.2269 4.82692C14.2235 4.81125 14.2196 4.7957 14.2152 4.78028C14.2074 4.75086 14.1977 4.72198 14.1861 4.69383C14.1807 4.68099 14.1749 4.6683 14.1688 4.65576C14.1491 4.61451 14.1255 4.57527 14.0982 4.5386C14.0805 4.51465 14.0613 4.49176 14.0409 4.47005C14.0303 4.45883 14.0196 4.44789 14.0084 4.43741C13.9866 4.41711 13.9636 4.3981 13.9396 4.38047C13.9277 4.3716 13.9156 4.36303 13.9033 4.35476C13.7803 4.27494 13.6367 4.23252 13.4901 4.23267C13.4125 4.23267 13.3378 4.24428 13.2672 4.2658H13.2671C13.2002 4.28635 13.1366 4.31612 13.078 4.35425C13.0638 4.3636 13.05 4.37367 13.0363 4.38386C13.0143 4.40025 12.9931 4.41776 12.9732 4.43644C12.9607 4.44802 12.9489 4.46012 12.9374 4.47244C12.9073 4.50463 12.8801 4.53942 12.8561 4.57641C12.8404 4.60076 12.8262 4.62605 12.8135 4.65215C12.8066 4.6665 12.7998 4.68086 12.7936 4.6956C12.7837 4.72031 12.7751 4.74563 12.7678 4.77147C12.7623 4.7903 12.7575 4.80935 12.7536 4.82857C12.7443 4.8749 12.7395 4.92204 12.7395 4.96931C12.7395 5.14824 12.8049 5.31227 12.9135 5.44005H8.64382C8.75234 5.31231 8.81785 5.14824 8.81785 4.96931C8.81785 4.92115 8.81282 4.87428 8.80376 4.82853C8.79982 4.80932 8.79511 4.79027 8.78963 4.77144C8.78221 4.74563 8.77376 4.72031 8.76369 4.69563C8.75752 4.68097 8.75089 4.66651 8.74379 4.65228C8.73108 4.62611 8.71681 4.60073 8.70105 4.57628C8.69235 4.56282 8.68319 4.54966 8.6736 4.53683C8.65683 4.51427 8.63878 4.4927 8.61953 4.47221C8.60814 4.45992 8.59633 4.44802 8.58411 4.43654C8.56387 4.4176 8.54254 4.39985 8.52024 4.38338C8.50676 4.37354 8.4934 4.36357 8.4794 4.3545C8.35657 4.27497 8.21332 4.23272 8.06699 4.23289C7.91476 4.23289 7.77312 4.27789 7.6547 4.3545C7.64057 4.3637 7.62709 4.37354 7.61386 4.38338C7.59161 4.39995 7.57024 4.4177 7.54986 4.43654C7.51722 4.46734 7.48729 4.50091 7.46041 4.53686C7.45093 4.5497 7.44173 4.56292 7.43293 4.57628C7.41722 4.60076 7.40296 4.62613 7.39022 4.65228C7.38328 4.6665 7.37648 4.68099 7.37041 4.6956C7.36035 4.72031 7.35177 4.74563 7.34448 4.77147C7.33894 4.7903 7.33418 4.80935 7.33022 4.82857C7.32101 4.87492 7.31634 4.92205 7.31625 4.96931C7.31625 5.14824 7.38164 5.31227 7.49025 5.44005H6.54509C6.36313 5.44005 6.21532 5.58763 6.21532 5.76908C6.21532 5.95053 6.36313 6.09808 6.54506 6.09808H15.0827V7.56494H1.65396C1.47215 7.56494 1.32422 7.71261 1.32422 7.89394V13.7585C1.32422 13.94 1.47215 14.0876 1.65396 14.0876H7.61273C7.79467 14.0876 7.9425 13.94 7.9425 13.7585C7.9425 13.5771 7.79467 13.4296 7.61273 13.4296H1.98386V8.22242H15.4119C15.5939 8.22242 15.7418 8.07487 15.7418 7.89342V5.76856C15.7418 5.58724 15.5939 5.43969 15.4119 5.43969Z"/>
<path d="M14.0619 11.683L11.4984 9.38023C11.45 9.33677 11.3874 9.31269 11.3224 9.3126C11.2574 9.31252 11.1946 9.33642 11.1462 9.37974L9.28823 11.0372L9.278 9.77754C9.27639 9.56142 9.09871 9.3859 8.8792 9.3859C8.82721 9.38615 8.77578 9.3967 8.72789 9.41694C8.68 9.43718 8.6366 9.46672 8.6002 9.50384C8.5637 9.54068 8.53486 9.5844 8.51535 9.63246C8.49584 9.68052 8.48606 9.73197 8.48656 9.78384L8.50333 11.8584V15.0551C8.50333 15.5761 8.92797 16.0002 9.44987 16.0002H10.5818C10.7275 16.0002 10.8457 15.8823 10.8457 15.7369V13.3966C10.8457 13.1336 11.0597 12.9197 11.323 12.9197C11.5862 12.9197 11.8003 13.1336 11.8003 13.3966V15.7369C11.8003 15.8822 11.9183 16.0001 12.0641 16.0001H13.2101C13.4632 16.0001 13.701 15.9017 13.8798 15.7228C14.059 15.5439 14.1571 15.306 14.1566 15.0531L14.1493 11.8782C14.1493 11.8414 14.1414 11.8049 14.1264 11.7713C14.1113 11.7377 14.0893 11.7076 14.0619 11.683ZM9.7721 2.55681H10.5895C10.6068 2.55684 10.624 2.55345 10.64 2.54685C10.656 2.54024 10.6705 2.53055 10.6828 2.51832C10.695 2.50609 10.7047 2.49156 10.7114 2.47558C10.718 2.45959 10.7214 2.44245 10.7214 2.42514V0.831628C10.7214 0.814317 10.718 0.797177 10.7114 0.781188C10.7047 0.765199 10.695 0.750675 10.6828 0.738446C10.6705 0.726217 10.656 0.716523 10.64 0.709918C10.624 0.703313 10.6068 0.699926 10.5895 0.699951H9.7721C9.7548 0.699943 9.73766 0.703342 9.72168 0.709955C9.70569 0.716568 9.69116 0.726264 9.67892 0.738492C9.66668 0.750719 9.65697 0.765237 9.65034 0.781218C9.64372 0.797198 9.6403 0.814328 9.64029 0.831628V2.42514C9.6403 2.44244 9.64372 2.45957 9.65034 2.47555C9.65697 2.49153 9.66668 2.50604 9.67892 2.51827C9.69116 2.5305 9.70569 2.5402 9.72168 2.54681C9.73766 2.55342 9.7548 2.55682 9.7721 2.55681ZM7.51743 2.55681H8.98065C8.99796 2.55684 9.01511 2.55345 9.03111 2.54685C9.04711 2.54024 9.06166 2.53055 9.07391 2.51832C9.08616 2.50609 9.09588 2.49156 9.10252 2.47558C9.10916 2.45959 9.11258 2.44245 9.11259 2.42514V1.69769C9.11258 1.68038 9.10916 1.66324 9.10252 1.64725C9.09588 1.63126 9.08616 1.61673 9.07391 1.60451C9.06166 1.59228 9.04711 1.58258 9.03111 1.57598C9.01511 1.56937 8.99796 1.56599 8.98065 1.56601H7.51743C7.50012 1.56599 7.48297 1.56937 7.46697 1.57598C7.45097 1.58258 7.43643 1.59228 7.42418 1.60451C7.41192 1.61673 7.4022 1.63126 7.39556 1.64725C7.38893 1.66324 7.38551 1.68038 7.3855 1.69769V2.4251C7.3855 2.44242 7.38892 2.45956 7.39555 2.47555C7.40219 2.49155 7.41191 2.50607 7.42416 2.51831C7.43642 2.53054 7.45096 2.54024 7.46697 2.54684C7.48297 2.55345 7.50012 2.55684 7.51743 2.55681Z"/>
<path d="M6.98399 4.36187C7.01052 4.37047 7.03909 4.37042 7.06559 4.36173C7.09209 4.35303 7.11514 4.33613 7.13141 4.31348C7.13644 4.30655 7.14212 4.30013 7.14779 4.29358L7.16544 4.27252C7.17463 4.26081 7.18396 4.2491 7.19405 4.23748C7.20972 4.21945 7.22589 4.20185 7.24254 4.18471C7.25432 4.17282 7.26639 4.16122 7.27873 4.1499C7.29585 4.13361 7.31341 4.11778 7.33137 4.10242C7.33857 4.09661 7.34599 4.09107 7.35331 4.08565L7.36705 4.07532C7.44276 4.01736 7.52518 3.96887 7.62421 3.92587C7.65827 3.91176 7.69296 3.89923 7.72818 3.88832C7.84311 3.85278 7.95702 3.83465 8.06701 3.83465C8.55604 3.83465 8.99253 4.14271 9.15333 4.60129C9.16243 4.62704 9.17929 4.64935 9.20159 4.66512C9.22389 4.68089 9.25053 4.68936 9.27785 4.68935H12.2797C12.307 4.68939 12.3337 4.68094 12.356 4.66516C12.3783 4.64938 12.3952 4.62706 12.4042 4.60129C12.565 4.14274 13.0015 3.83465 13.4905 3.83465C13.6009 3.83465 13.7149 3.85281 13.8322 3.8892C13.9629 3.93023 14.0853 3.99405 14.1938 4.07771L14.2251 4.10152C14.244 4.11751 14.2625 4.13411 14.2803 4.15129C14.2915 4.16178 14.3026 4.17223 14.3139 4.18355C14.3314 4.20128 14.3483 4.21962 14.3645 4.23852C14.3733 4.24897 14.3819 4.25955 14.3907 4.27077L14.4085 4.29181C14.4145 4.2991 14.4208 4.30616 14.4264 4.31374C14.4427 4.33632 14.4658 4.35313 14.4923 4.36175C14.5188 4.37038 14.5473 4.37037 14.5738 4.36174C14.6003 4.35323 14.6234 4.33653 14.6398 4.31403C14.6562 4.29154 14.665 4.26442 14.665 4.23658V2.27333C14.665 2.25589 14.6615 2.23861 14.6548 2.22252C14.6481 2.20642 14.6382 2.19182 14.6258 2.17956L13.3176 0.891019C13.293 0.866649 13.2597 0.853014 13.225 0.853084H12.0221C12.0048 0.853059 11.9877 0.856441 11.9717 0.863038C11.9557 0.869635 11.9412 0.879318 11.9289 0.891533C11.9167 0.903749 11.9069 0.918257 11.9003 0.934231C11.8936 0.950205 11.8902 0.967331 11.8902 0.984632V2.81981C11.8901 2.85474 11.8762 2.88821 11.8515 2.91289C11.8268 2.93758 11.7933 2.95146 11.7584 2.95149H7.02431C6.98939 2.95147 6.95589 2.96531 6.93117 2.98998C6.90646 3.01465 6.89255 3.04812 6.89251 3.08304V4.23677C6.89255 4.26463 6.90143 4.29175 6.91787 4.31424C6.93431 4.33672 6.95746 4.35341 6.98399 4.3619V4.36187ZM4.30784 2.54724C4.34653 2.54723 4.38436 2.5359 4.41669 2.51465C4.44902 2.49341 4.47442 2.46316 4.48978 2.42766C4.50505 2.39216 4.50955 2.35295 4.50269 2.31492C4.49584 2.27689 4.47794 2.24171 4.45123 2.21379L2.39617 0.0588626C2.32159 -0.0196209 2.18424 -0.0196209 2.1095 0.0588626L0.0544457 2.21385C0.0277881 2.24182 0.00993567 2.27701 0.00310548 2.31505C-0.00372472 2.35308 0.000768302 2.39228 0.0160265 2.42778C0.0313922 2.46328 0.0568004 2.49352 0.0891248 2.51476C0.121449 2.53601 0.15928 2.54734 0.197961 2.54736H4.30784V2.54724ZM4.37374 5.66719V3.13946C4.37371 3.10452 4.35981 3.07103 4.33509 3.04634C4.31038 3.02165 4.27687 3.00778 4.24194 3.00778H0.263896C0.246585 3.00776 0.229438 3.01114 0.213436 3.01775C0.197435 3.02435 0.182892 3.03405 0.170639 3.04628C0.158386 3.05851 0.148663 3.07303 0.142027 3.08902C0.13539 3.10501 0.13197 3.12215 0.131961 3.13946V5.66719C0.132004 5.70214 0.145926 5.73565 0.170667 5.76034C0.195408 5.78503 0.228942 5.79889 0.263896 5.79886H4.24194C4.25924 5.79887 4.27637 5.79547 4.29236 5.78886C4.30835 5.78225 4.32287 5.77255 4.33511 5.76032C4.34735 5.7481 4.35706 5.73358 4.36369 5.7176C4.37032 5.70162 4.37374 5.68449 4.37374 5.66719Z"/>
</svg>
