<svg xmlns="http://www.w3.org/2000/svg" width="40" height="40" viewBox="0 0 40 40" fill="none">
<path d="M10.9328 9.91143L20.0757 13.29L17.3471 17.8357C17.2169 18.0525 17.1465 18.2999 17.1432 18.5527C17.1399 18.8055 17.2038 19.0547 17.3283 19.2748C17.4528 19.4949 17.6334 19.678 17.8518 19.8054C18.0702 19.9328 18.3186 20 18.5714 20H21.4285C21.8074 19.9999 22.1707 19.8494 22.4385 19.5814L26.3985 15.6214L26.41 15.6286L36.7 19.4286C37.0736 19.5602 37.4733 19.6003 37.8656 19.5453C38.2579 19.4904 38.6312 19.3421 38.9543 19.1129C39.61 18.65 40 17.8914 40 17.09C40.0061 15.1554 39.3554 13.2761 38.1543 11.7595C36.9533 10.2429 35.273 9.1788 33.3885 8.74143L15.1614 4.45286L12.6171 0.635714C12.4866 0.44012 12.3099 0.27976 12.1025 0.168864C11.8952 0.0579684 11.6637 -3.51704e-05 11.4285 1.59991e-08H9.99997C9.7887 0.000127595 9.58009 0.0471147 9.38916 0.137576C9.19823 0.228038 9.02975 0.359722 8.89584 0.523141C8.76194 0.68656 8.66595 0.877645 8.61478 1.08263C8.56362 1.28762 8.55857 1.5014 8.59997 1.70857L10.0285 8.85143C10.0763 9.09061 10.1844 9.3136 10.3427 9.49915C10.501 9.6847 10.7042 9.82663 10.9328 9.91143ZM17.3828 26.35L14.95 30H24.2857V25.7143H18.5714C18.3363 25.7143 18.1048 25.7723 17.8974 25.8832C17.6901 25.994 17.5133 26.1544 17.3828 26.35Z" fill="#199C68"/>
<path d="M38.5714 24.2857H27.1429C26.764 24.2857 26.4006 24.4362 26.1327 24.7041C25.8648 24.972 25.7143 25.3354 25.7143 25.7142V34.2857H24.2857V31.4285H14.2857V35.7142C14.2857 36.0931 14.4362 36.4565 14.7041 36.7244C14.972 36.9923 15.3354 37.1428 15.7143 37.1428H17.1429C17.1429 38.7185 18.4243 40 20 40C21.5757 40 22.8571 38.7185 22.8571 37.1428H31.4286C31.4286 38.7185 32.71 40 34.2857 40C35.8614 40 37.1429 38.7185 37.1429 37.1428H38.5714C38.9503 37.1428 39.3137 36.9923 39.5816 36.7244C39.8495 36.4565 40 36.0931 40 35.7142V25.7142C40 25.3354 39.8495 24.972 39.5816 24.7041C39.3137 24.4362 38.9503 24.2857 38.5714 24.2857ZM20 38.5714C19.2129 38.5714 18.5714 37.93 18.5714 37.1428C18.5714 36.3557 19.2129 35.7142 20 35.7142C20.7871 35.7142 21.4286 36.3557 21.4286 37.1428C21.4286 37.93 20.7871 38.5714 20 38.5714ZM34.2857 38.5714C33.4986 38.5714 32.8571 37.93 32.8571 37.1428C32.8571 36.3557 33.4986 35.7142 34.2857 35.7142C35.0729 35.7142 35.7143 36.3557 35.7143 37.1428C35.7143 37.93 35.0729 38.5714 34.2857 38.5714ZM13.4957 15.8642L7.78143 13.0071C7.58311 12.9081 7.3645 12.8566 7.14286 12.8566C6.92121 12.8566 6.7026 12.9081 6.50429 13.0071L0.79 15.8642C0.74 15.89 0.701429 15.9271 0.655715 15.9571L7.14286 19.2L13.63 15.9571C13.5843 15.9285 13.5457 15.89 13.4957 15.8642ZM1.5516e-07 24.2857C-0.000123553 24.5511 0.0737285 24.8114 0.213271 25.0372C0.352813 25.2631 0.552525 25.4456 0.79 25.5642L6.42857 28.5714V20.4428L1.5516e-07 17.2285V24.2857ZM14.2857 17.2285L7.85714 20.4428V28.5714L13.4957 25.5642C13.7332 25.4456 13.9329 25.2631 14.0724 25.0372C14.212 24.8114 14.2858 24.5511 14.2857 24.2857V17.2285ZM20.5271 4.24853L28.5257 6.12996L25.4286 1.99996C25.2956 1.82245 25.123 1.67839 24.9247 1.5792C24.7263 1.48 24.5075 1.42842 24.2857 1.42853H21.4286C21.185 1.42841 20.9455 1.49056 20.7328 1.60907C20.52 1.72758 20.3411 1.89851 20.213 2.10563C20.0848 2.31275 20.0118 2.54918 20.0008 2.79247C19.9898 3.03575 20.0411 3.27782 20.15 3.49567L20.5271 4.24853Z" fill="#199C68"/>
</svg>
