<svg xmlns="http://www.w3.org/2000/svg" width="14" height="7" viewBox="0 0 14 7" fill="none">
  <path d="M0.43749 0.87498H13.5625C13.804 0.87498 14 0.678964 14 0.43749C14 0.19598 13.804 0 13.5625 0H0.43749C0.195979 0 0 0.196016 0 0.43749C0 0.678964 0.196016 0.87498 0.43749 0.87498Z" fill="white"/>
  <path d="M13.5625 3.0625H0.43749C0.195979 3.0625 0 3.25852 0 3.49999C0 3.74146 0.196016 3.93748 0.43749 3.93748H13.5625C13.804 3.93748 14 3.74146 14 3.49999C14 3.25852 13.804 3.0625 13.5625 3.0625Z" fill="white"/>
  <path d="M13.5625 6.125H4.81249C4.57098 6.125 4.375 6.32102 4.375 6.56249C4.375 6.804 4.57102 6.99998 4.81249 6.99998H13.5625C13.804 6.99998 14 6.80396 14 6.56249C14 6.32098 13.804 6.125 13.5625 6.125Z" fill="white"/>
</svg>
