<svg xmlns="http://www.w3.org/2000/svg" width="16" height="12" viewBox="0 0 16 12">
  <path d="M1.86614 2.44776C1.9071 2.53996 1.9513 2.62992 1.99803 2.71859C2.83033 4.22967 4.43143 5.15516 6.15626 5.12215H15.9994C15.1898 4.47056 14.5363 3.64601 14.0869 2.70897C12.9156 0.089315 11.8104 0.0329607 11.2166 0.00256016L11.1602 0H0.000732422C0.829895 0.634766 1.47399 1.47994 1.86614 2.44776ZM2.88674 2.37348C3.0306 2.27096 3.23031 2.30435 3.33302 2.44808C3.62146 2.83415 3.98734 3.15573 4.40724 3.39222C4.82715 3.62872 5.29181 3.77491 5.77148 3.82144C5.85259 3.83038 5.92723 3.86996 5.98015 3.93208C6.03306 3.99421 6.06025 4.0742 6.05616 4.1557C6.05207 4.23721 6.01702 4.31407 5.95815 4.3706C5.89929 4.42712 5.82106 4.45903 5.73946 4.4598C5.72825 4.4598 5.71674 4.4598 5.70521 4.45821C5.13473 4.40495 4.58202 4.23143 4.08347 3.94908C3.58492 3.66672 3.15185 3.28194 2.81279 2.82008C2.70983 2.67641 2.74279 2.47651 2.88642 2.37351H2.88674V2.37348Z"/>
  <path fill-rule="evenodd" clip-rule="evenodd" d="M2.00596 5.93628C2.84149 7.43761 4.43701 8.35566 6.15491 8.32353H16C15.1902 7.67134 14.5365 6.84628 14.0869 5.90876C14.0642 5.85626 14.0414 5.81271 14.0187 5.76248H6.15618C4.27059 5.7915 2.51167 4.81618 1.53761 3.20142H0.000976562C0.829688 3.83595 1.47354 4.68064 1.86576 5.64788C1.90705 5.73976 1.94898 5.82939 1.99669 5.91903C2.00019 5.92475 2.00308 5.93051 2.00596 5.93628Z"/>
  <path fill-rule="evenodd" clip-rule="evenodd" d="M14.0869 9.11018C14.0641 9.05768 14.0414 9.01413 14.0187 8.96389H6.1549C4.26956 8.9923 2.51104 8.01708 1.53666 6.40283H0C0.828711 7.03736 1.47257 7.88205 1.86478 8.8493C1.90607 8.94117 1.94801 9.03081 1.99571 9.12045C2.82787 10.6323 4.42951 11.5582 6.1549 11.525H16C15.1902 10.8728 14.5365 10.0477 14.0869 9.11018Z"/>
</svg>
