<svg xmlns="http://www.w3.org/2000/svg" width="412" height="44" viewBox="0 0 412 44" fill="none">
  <path d="M0.836977 1.52732C0.575924 1.61736 0.437288 1.90197 0.527323 2.16302L1.99453 6.41711C2.08457 6.67817 2.36918 6.8168 2.63023 6.72677C2.89129 6.63673 3.02992 6.35212 2.93989 6.09107L1.6357 2.30965L5.41711 1.00547C5.67817 0.915431 5.8168 0.630818 5.72677 0.369766C5.63673 0.108714 5.35212 -0.029923 5.09107 0.0601125L0.836977 1.52732ZM410.852 13.5224C371.643 25.6763 304.087 39.6684 228.896 42.1253C153.701 44.5822 70.9172 35.5009 1.21896 1.55049L0.781042 2.44951C70.6828 36.4991 153.649 45.5844 228.929 43.1247C304.213 40.6649 371.857 26.657 411.148 14.4776L410.852 13.5224Z" fill="#ACB7C1"/>
</svg>
