<svg xmlns="http://www.w3.org/2000/svg" width="22" height="22" viewBox="0 0 22 22" fill="none">
  <path d="M1.93359 22H11C12.0662 22 12.9336 21.1326 12.9336 20.0664V16.8008H8.42188C7.35565 16.8008 6.48828 15.9334 6.48828 14.8672V5.84375C6.48828 4.77752 7.35565 3.91016 8.42188 3.91016H12.9336V1.93359C12.9336 0.867367 12.0662 0 11 0H1.93359C0.867367 0 0 0.867367 0 1.93359V20.0664C0 21.1326 0.867367 22 1.93359 22ZM6.48828 1.93359C6.84423 1.93359 7.13281 2.26505 7.13281 2.62109C7.13281 2.97705 6.84423 3.26562 6.48828 3.26562C6.13233 3.26562 5.84375 2.97705 5.84375 2.62109C5.84375 2.26505 6.13233 1.93359 6.48828 1.93359ZM5.84375 18.0898H7.13281C7.48907 18.0898 7.77734 18.3781 7.77734 18.7344C7.77734 19.0906 7.48907 19.3789 7.13281 19.3789H5.84375C5.4875 19.3789 5.19922 19.0906 5.19922 18.7344C5.19922 18.3781 5.4875 18.0898 5.84375 18.0898Z" fill="white"/>
  <path d="M21.3555 5.19922H8.42188C8.06562 5.19922 7.77734 5.4875 7.77734 5.84375V7.77734H22V5.84375C22 5.4875 21.7117 5.19922 21.3555 5.19922ZM7.77734 14.8672C7.77734 15.2234 8.06562 15.5117 8.42188 15.5117H21.3555C21.7117 15.5117 22 15.2234 22 14.8672V9.06641H7.77734V14.8672ZM17.4453 10.3555H18.7344C19.0906 10.3555 19.3789 10.6437 19.3789 11C19.3789 11.3563 19.0906 11.6445 18.7344 11.6445H17.4453C17.0891 11.6445 16.8008 11.3563 16.8008 11C16.8008 10.6437 17.0891 10.3555 17.4453 10.3555Z" fill="white"/>
</svg>
