<svg xmlns="http://www.w3.org/2000/svg" width="16" height="16" viewBox="0 0 16 16">
  <path fill-rule="evenodd" clip-rule="evenodd" d="M7.37448 0.472476H10.0961V0.190476C10.0961 0.0857143 10.0104 0 9.90559 0H7.56495C7.46019 0 7.37448 0.0857143 7.37448 0.190476V0.472476ZM15.746 2.4907H11.4955V8.68594C11.7327 8.78819 11.9206 8.97441 12.0215 9.21194L12.8471 11.1559C12.8979 11.2755 12.9227 11.3964 12.9227 11.5264V12.0591H15.746C15.8859 12.0591 16 11.945 16 11.8051V2.74467C16 2.60479 15.8859 2.4907 15.746 2.4907ZM13.4222 8.41648C13.4222 8.5214 13.3367 8.60695 13.2317 8.60695H12.5664C12.4615 8.60695 12.376 8.5214 12.376 8.41648V7.75121C12.376 7.64629 12.4615 7.56073 12.5664 7.56073H13.2317C13.3367 7.56073 13.4222 7.64629 13.4222 7.75121V8.41648ZM13.4223 6.7193C13.4223 6.82422 13.3367 6.90978 13.2318 6.90978H12.5665C12.4616 6.90978 12.376 6.82422 12.376 6.7193V6.054C12.376 5.94908 12.4616 5.86352 12.5665 5.86352H13.2318C13.3367 5.86352 13.4223 5.94908 13.4223 6.054V6.7193ZM15.1194 8.41648C15.1194 8.5214 15.0339 8.60695 14.929 8.60695H14.2637C14.1587 8.60695 14.0732 8.5214 14.0732 8.41648V7.75121C14.0732 7.64629 14.1587 7.56073 14.2637 7.56073H14.929C15.0339 7.56073 15.1194 7.64629 15.1194 7.75121V8.41648ZM15.1195 6.7193C15.1195 6.82422 15.0339 6.90978 14.929 6.90978H14.2637C14.1588 6.90978 14.0732 6.82422 14.0732 6.7193V6.054C14.0732 5.94908 14.1588 5.86352 14.2637 5.86352H14.929C15.0339 5.86352 15.1195 5.94908 15.1195 6.054V6.7193ZM15.2493 4.55149C15.2493 4.65641 15.1637 4.74197 15.0588 4.74197H12.4366C12.3317 4.74197 12.2462 4.65641 12.2462 4.55149V3.82981C12.2462 3.72489 12.3317 3.63933 12.4366 3.63933H15.0588C15.1637 3.63933 15.2493 3.72489 15.2493 3.82981V4.55149ZM10.7336 0.980413H6.73698C6.5973 0.980413 6.48302 1.0947 6.48302 1.23438V7.26311H8.03365C8.54321 7.26311 8.95781 7.67768 8.95781 8.18727V8.59886H10.9876V1.23438C10.9876 1.0947 10.8733 0.980413 10.7336 0.980413ZM8.40978 6.89384C8.40978 6.99876 8.32422 7.08432 8.2193 7.08432H7.554C7.44908 7.08432 7.36352 6.99876 7.36352 6.89384V6.22854C7.36352 6.12362 7.44908 6.03806 7.554 6.03806H8.2193C8.32422 6.03806 8.40978 6.12362 8.40978 6.22854V6.89384ZM8.40978 5.19663C8.40978 5.30156 8.32422 5.38711 8.2193 5.38711H7.554C7.44908 5.38711 7.36352 5.30156 7.36352 5.19663V4.53133C7.36352 4.42641 7.44908 4.34086 7.554 4.34086H8.2193C8.32422 4.34086 8.40978 4.42641 8.40978 4.53133V5.19663ZM10.107 6.89384C10.107 6.99876 10.0214 7.08432 9.91651 7.08432H9.25121C9.14629 7.08432 9.06073 6.99876 9.06073 6.89384V6.22854C9.06073 6.12362 9.14629 6.03806 9.25121 6.03806H9.91651C10.0214 6.03806 10.107 6.12362 10.107 6.22854V6.89384ZM10.107 5.19663C10.107 5.30156 10.0214 5.38711 9.91651 5.38711H9.25121C9.14629 5.38711 9.06073 5.30156 9.06073 5.19663V4.53133C9.06073 4.42641 9.14629 4.34086 9.25121 4.34086H9.91651C10.0214 4.34086 10.107 4.42641 10.107 4.53133V5.19663ZM10.107 2.84854C10.107 2.95346 10.0214 3.03902 9.91651 3.03902H7.554C7.44908 3.03902 7.36352 2.95346 7.36352 2.84854V2.22222C7.36352 2.1173 7.44908 2.03175 7.554 2.03175H9.91651C10.0214 2.03175 10.107 2.1173 10.107 2.22222V2.84854ZM1.72454 2.4907C1.58467 2.4907 1.47057 2.60479 1.47057 2.74467V7.26311H5.97508V2.4907H1.72454ZM3.33387 6.7193C3.33387 6.82422 3.24832 6.90978 3.1434 6.90978H2.4781C2.37317 6.90978 2.28762 6.82422 2.28762 6.7193V6.054C2.28762 5.94908 2.37317 5.86352 2.4781 5.86352H3.1434C3.24832 5.86352 3.33387 5.94908 3.33387 6.054V6.7193ZM5.03108 6.7193C5.03108 6.82422 4.94552 6.90978 4.8406 6.90978H4.1753C4.07038 6.90978 3.98483 6.82422 3.98483 6.7193V6.054C3.98483 5.94908 4.07038 5.86352 4.1753 5.86352H4.8406C4.94552 5.86352 5.03108 5.94908 5.03108 6.054V6.7193ZM5.22438 4.55149C5.22438 4.65641 5.13883 4.74197 5.03391 4.74197H2.41175C2.30683 4.74197 2.22127 4.65641 2.22127 4.55149V3.82981C2.22127 3.72489 2.30683 3.63933 2.41175 3.63933H5.03394C5.13883 3.63933 5.22441 3.72489 5.22441 3.82981V4.55149H5.22438ZM12.0204 12.6106H12.4148V11.5264C12.4148 11.4647 12.404 11.412 12.3796 11.3544L11.554 9.41048C11.4711 9.21543 11.2776 9.10679 11.0683 9.10679H8.95778V14.2437C8.98727 14.2437 9.24987 14.2732 9.25105 14.2437C9.28051 13.5042 9.85133 12.9033 10.5915 12.9033C11.3316 12.9033 11.9319 13.5036 11.9319 14.2437H12.1026C12.2746 14.2437 12.4148 14.1035 12.4148 13.9315V13.5029H12.0204C11.9823 13.5028 11.9457 13.4876 11.9188 13.4607C11.8918 13.4337 11.8766 13.3971 11.8765 13.359V12.7546C11.8766 12.7164 11.8918 12.6799 11.9188 12.6529C11.9457 12.6259 11.9823 12.6107 12.0204 12.6106ZM9.40797 11.371V9.74667H11.0016L11.6915 11.371H9.40797ZM4.48997 13.4112C4.03019 13.4112 3.65746 13.7839 3.65746 14.2437C3.65746 14.7035 4.03019 15.0762 4.48997 15.0762C4.94975 15.0762 5.32244 14.7035 5.32244 14.2437C5.32244 13.7839 4.94975 13.4112 4.48997 13.4112ZM4.48997 14.5273C4.33321 14.5273 4.20635 14.4004 4.20635 14.2437C4.20635 14.0869 4.33321 13.9601 4.48997 13.9601C4.64673 13.9601 4.77362 14.0869 4.77362 14.2437C4.77364 14.2809 4.76632 14.3178 4.75207 14.3523C4.73782 14.3867 4.71693 14.418 4.69059 14.4443C4.66424 14.4706 4.63297 14.4915 4.59854 14.5058C4.56412 14.52 4.52722 14.5274 4.48997 14.5273ZM0.819143 10.5002C0.751786 10.5002 0.687189 10.4734 0.63956 10.4258C0.591932 10.3782 0.565175 10.3136 0.565175 10.2462C0.565175 10.1789 0.591932 10.1143 0.63956 10.0666C0.687189 10.019 0.751786 9.99225 0.819143 9.99225H2.48737C2.65311 9.99225 2.7887 9.85667 2.7887 9.69092C2.7887 9.52517 2.65308 9.38959 2.48737 9.38959H0.253968C0.186612 9.38959 0.122014 9.36283 0.0743856 9.3152C0.0267573 9.26757 0 9.20298 0 9.13562C0 9.06826 0.0267573 9.00366 0.0743856 8.95604C0.122014 8.90841 0.186612 8.88165 0.253968 8.88165H2.8494C3.01514 8.88165 3.15073 8.74606 3.15073 8.58032C3.15073 8.41457 3.01514 8.27898 2.8494 8.27898H1.18349C1.11614 8.27898 1.05154 8.25223 1.00391 8.2046C0.956281 8.15697 0.929524 8.09237 0.929524 8.02502C0.929524 7.95766 0.956281 7.89306 1.00391 7.84543C1.05154 7.7978 1.11614 7.77105 1.18349 7.77105H8.03362C8.26286 7.77105 8.44984 7.95806 8.44984 8.18727V14.2437H5.83035C5.83035 13.5036 5.23006 12.9033 4.48994 12.9033C3.74981 12.9033 3.14952 13.5036 3.14952 14.2437H2.3947C2.16546 14.2437 1.97848 14.0567 1.97848 13.8275V11.6108H0.253968C0.186612 11.6108 0.122014 11.584 0.0743856 11.5364C0.0267573 11.4888 0 11.4242 0 11.3568C0 11.2895 0.0267573 11.2249 0.0743856 11.1772C0.122014 11.1296 0.186612 11.1029 0.253968 11.1029H2.63041C2.79616 11.1029 2.93175 10.9673 2.93175 10.8015C2.93175 10.6358 2.79616 10.5002 2.63041 10.5002H0.819143ZM10.5915 13.4112C10.1317 13.4112 9.75898 13.7839 9.75898 14.2437C9.75898 14.7035 10.1317 15.0762 10.5915 15.0762C11.0512 15.0762 11.4239 14.7035 11.4239 14.2437C11.4239 13.7839 11.0512 13.4112 10.5915 13.4112ZM10.5915 14.5273C10.4347 14.5273 10.3078 14.4004 10.3078 14.2437C10.3078 14.0869 10.4347 13.9601 10.5915 13.9601C10.7482 13.9601 10.8751 14.0869 10.8751 14.2437C10.8751 14.2809 10.8678 14.3178 10.8536 14.3523C10.8393 14.3867 10.8184 14.418 10.7921 14.4443C10.7657 14.4706 10.7345 14.4915 10.7 14.5058C10.6656 14.52 10.6287 14.5274 10.5915 14.5273Z"/>
</svg>
