<svg xmlns="http://www.w3.org/2000/svg" width="16" height="12" viewBox="0 0 16 12" fill="none">
<path d="M15 2H1C0.433333 2 0 1.56667 0 1C0 0.433333 0.433333 0 1 0H15C15.5667 0 16 0.433333 16 1C16 1.56667 15.5667 2 15 2ZM15 6.66667H1C0.433333 6.66667 0 6.23333 0 5.66667C0 5.1 0.433333 4.66667 1 4.66667H15C15.5667 4.66667 16 5.1 16 5.66667C16 6.23333 15.5667 6.66667 15 6.66667ZM15 11.3333H1C0.433333 11.3333 0 10.9 0 10.3333C0 9.76667 0.433333 9.33333 1 9.33333H15C15.5667 9.33333 16 9.76667 16 10.3333C16 10.9 15.5667 11.3333 15 11.3333Z" fill="#1A1A1B"/>
</svg>
