<svg xmlns="http://www.w3.org/2000/svg" width="22" height="22" viewBox="0 0 22 22" fill="none">
  <path d="M2.76994 4.34237C3.96899 4.34237 4.94101 3.37036 4.94101 2.17131C4.94101 0.972263 3.96899 0.000244141 2.76994 0.000244141C1.5709 0.000244141 0.598877 0.972263 0.598877 2.17131C0.598877 3.37036 1.5709 4.34237 2.76994 4.34237Z" fill="white"/>
  <path d="M19.2301 4.34237C20.4292 4.34237 21.4012 3.37036 21.4012 2.17131C21.4012 0.972263 20.4292 0.000244141 19.2301 0.000244141C18.0311 0.000244141 17.0591 0.972263 17.0591 2.17131C17.0591 3.37036 18.0311 4.34237 19.2301 4.34237Z" fill="white"/>
  <path fill-rule="evenodd" clip-rule="evenodd" d="M0 7.94916V15.5188C2.92458e-05 15.9405 0.155071 16.3475 0.435629 16.6623C0.716187 16.9771 1.10268 17.1778 1.52159 17.2262L4.42463 17.5615V21.6298H7.86213V16.0299C7.86215 15.6081 7.70713 15.2012 7.42656 14.8863C7.14599 14.5715 6.75947 14.3708 6.34054 14.3225L3.4375 13.9872V13.1335C3.155 12.9623 2.91774 12.7258 2.7457 12.4439L0 7.94916ZM22 7.94916L19.2543 12.4439C19.082 12.7256 18.8448 12.962 18.5625 13.1333V13.9872L15.6595 14.3225C15.2405 14.3708 14.854 14.5715 14.5734 14.8863C14.2929 15.2012 14.1378 15.6081 14.1379 16.0299V21.6298H17.5754V17.5615L20.4784 17.2262C20.8973 17.1778 21.2838 16.9771 21.5644 16.6623C21.8449 16.3475 22 15.9405 22 15.5188V7.94916Z" fill="white"/>
  <path fill-rule="evenodd" clip-rule="evenodd" d="M0.566181 7.50009L3.35779 12.0699C3.52406 12.3421 3.78134 12.5466 4.08402 12.6472C4.38669 12.7479 4.71522 12.7381 5.01138 12.6196L9.3736 10.8761C9.70603 10.743 9.97203 10.4834 10.1132 10.1543C10.2543 9.82518 10.2591 9.45352 10.1264 9.12091C9.99331 8.78844 9.73369 8.5224 9.40457 8.38124C9.07545 8.24009 8.70376 8.23537 8.37116 8.36813L5.06805 9.68861L2.87092 6.09209C2.68408 5.7866 2.38361 5.56779 2.03553 5.48371C1.68745 5.39964 1.32023 5.45719 1.01455 5.64372C0.709067 5.83056 0.49025 6.13103 0.406177 6.47911C0.322105 6.82719 0.379654 7.19441 0.566181 7.50009ZM19.1289 6.09209L16.6695 10.1178L13.0287 10.6327C12.6741 10.683 12.354 10.872 12.1387 11.1582C11.9235 11.4445 11.8306 11.8044 11.8806 12.1591C11.931 12.5136 12.1201 12.8337 12.4063 13.0489C12.6925 13.2641 13.0524 13.3569 13.407 13.3069L17.6786 12.7028C17.8759 12.675 18.0647 12.6038 18.2313 12.4943C18.3978 12.3849 18.5381 12.2399 18.6421 12.0699L21.4337 7.50009C21.6202 7.19441 21.6777 6.82719 21.5937 6.47911C21.5096 6.13103 21.2908 5.83056 20.9853 5.64372C20.6796 5.45719 20.3124 5.39964 19.9643 5.48371C19.6162 5.56779 19.3158 5.7866 19.1289 6.09209ZM14.0295 0.717391C14.0293 0.527186 13.9536 0.344825 13.8191 0.210329C13.6846 0.075833 13.5023 0.000189921 13.3121 0H8.30779C8.11753 0 7.93505 0.0755821 7.80052 0.210119C7.66598 0.344656 7.5904 0.527127 7.5904 0.717391V5.27617C7.59059 5.32199 7.60392 5.36679 7.6288 5.40526C7.65368 5.44374 7.68906 5.47427 7.73077 5.49325C7.77247 5.51222 7.81873 5.51884 7.86408 5.51233C7.90944 5.50581 7.95197 5.48643 7.98664 5.45648L9.08879 4.49589C9.21942 4.38206 9.38685 4.31937 9.56012 4.31941H13.3121C13.5023 4.31941 13.6848 4.24383 13.8193 4.10929C13.9539 3.97476 14.0295 3.79229 14.0295 3.60202V0.717391ZM9.21194 3.17135H10.8101C10.9029 3.16796 10.9908 3.12868 11.0553 3.06178C11.1198 2.99488 11.1559 2.90558 11.1559 2.81265C11.1559 2.71972 11.1198 2.63042 11.0553 2.56352C10.9908 2.49662 10.9029 2.45735 10.8101 2.45396H9.21194C9.11681 2.45396 9.02558 2.49175 8.95831 2.55902C8.89104 2.62628 8.85325 2.71752 8.85325 2.81265C8.85325 2.90778 8.89104 2.99902 8.95831 3.06629C9.02558 3.13356 9.11681 3.17135 9.21194 3.17135ZM9.21194 1.8633H12.4622C12.5573 1.8633 12.6486 1.82551 12.7158 1.75824C12.7831 1.69098 12.8209 1.59974 12.8209 1.50461C12.8209 1.40948 12.7831 1.31824 12.7158 1.25097C12.6486 1.1837 12.5573 1.14591 12.4622 1.14591H9.21194C9.11681 1.14591 9.02558 1.1837 8.95831 1.25097C8.89104 1.31824 8.85325 1.40948 8.85325 1.50461C8.85325 1.59974 8.89104 1.69098 8.95831 1.75824C9.02558 1.82551 9.11681 1.8633 9.21194 1.8633Z" fill="white"/>
</svg>
