<svg width="14" height="15" viewBox="0 0 14 15" fill="none" xmlns="http://www.w3.org/2000/svg">
<path fill-rule="evenodd" clip-rule="evenodd" d="M0.68678 13.4596C0.307482 13.0803 0.307482 12.4653 0.68678 12.086L11.9395 0.833264C12.3188 0.453966 12.9338 0.453966 13.3131 0.833264V0.833264C13.6924 1.21256 13.6924 1.82753 13.3131 2.20682L2.06034 13.4596C1.68104 13.8389 1.06608 13.8389 0.68678 13.4596V13.4596Z" fill="#FFFFFF"/>
<path fill-rule="evenodd" clip-rule="evenodd" d="M0.686926 0.833264C1.06622 0.453966 1.68119 0.453966 2.06049 0.833264L13.3132 12.086C13.6925 12.4653 13.6925 13.0803 13.3132 13.4596V13.4596C12.9339 13.8389 12.319 13.8389 11.9397 13.4596L0.686926 2.20682C0.307628 1.82753 0.307628 1.21256 0.686926 0.833264V0.833264Z" fill="#FFFFFF"/>
</svg>
