<svg xmlns="http://www.w3.org/2000/svg" width="16" height="16" viewBox="0 0 16 16">
<path d="M15.5492 6.85718H12.3526L10.924 8.28574H13.4286C13.5612 8.28661 13.6918 8.31862 13.8097 8.37918L15.5492 6.85718ZM8.28572 13.4286H9.42887V14.0001H8.28572V13.4286ZM14.2857 9.1429V14.4017L15.9143 12.7732C15.9414 12.7471 15.963 12.7157 15.9777 12.6811C15.9924 12.6464 16 12.6091 16 12.5715V7.22202L14.2077 8.7903C14.2588 8.90086 14.2854 9.02112 14.2857 9.1429ZM6.48572 15.0612L6.49087 15.0563C6.54263 15.003 6.57153 14.9315 6.57144 14.8572V9.1429C6.57144 9.06712 6.54134 8.99445 6.48775 8.94086C6.43417 8.88728 6.3615 8.85718 6.28572 8.85718H0.285719C0.209941 8.85718 0.137268 8.88728 0.0836851 8.94086C0.0301024 8.99445 0 9.06712 0 9.1429L0 14.8572C0 14.933 0.0301024 15.0056 0.0836851 15.0592C0.137268 15.1128 0.209941 15.1429 0.285719 15.1429H6.28572C6.36055 15.1431 6.43243 15.1137 6.48572 15.0612ZM2.85716 14C2.85716 14.3156 2.60131 14.5715 2.28572 14.5715H1.14284C0.82725 14.5715 0.571406 14.3156 0.571406 14V13.4286C0.571406 13.113 0.82725 12.8571 1.14284 12.8571H2.28569C2.60128 12.8571 2.85713 13.113 2.85713 13.4286L2.85716 14ZM5.71428 14.5715H4.85712C4.78135 14.5715 4.70867 14.5414 4.65509 14.4878C4.60151 14.4342 4.57141 14.3615 4.57141 14.2857C4.57141 14.21 4.60151 14.1373 4.65509 14.0837C4.70867 14.0301 4.78135 14 4.85712 14H5.71428C5.79006 14 5.86273 14.0301 5.91632 14.0837C5.9699 14.1373 6 14.21 6 14.2857C6 14.3615 5.9699 14.4342 5.91632 14.4878C5.86273 14.5414 5.79006 14.5715 5.71428 14.5715ZM5.71428 13.4286H4.85712C4.78135 13.4286 4.70867 13.3985 4.65509 13.3449C4.60151 13.2913 4.57141 13.2187 4.57141 13.1429C4.57141 13.0671 4.60151 12.9944 4.65509 12.9409C4.70867 12.8873 4.78135 12.8572 4.85712 12.8572H5.71428C5.79006 12.8572 5.86273 12.8873 5.91632 12.9409C5.9699 12.9944 6 13.0671 6 13.1429C6 13.2187 5.9699 13.2913 5.91632 13.3449C5.86273 13.3985 5.79006 13.4286 5.71428 13.4286Z"/>
<path d="M1.14294 13.4286H2.2861V14H1.14294V13.4286ZM13.6255 15.0626L13.6287 15.0572L13.6341 15.052C13.6847 14.9997 13.7135 14.93 13.7144 14.8572V9.14288C13.7144 9.0671 13.6843 8.99443 13.6307 8.94084C13.5771 8.88726 13.5045 8.85716 13.4287 8.85716H7.42869C7.35291 8.85716 7.28024 8.88726 7.22666 8.94084C7.17307 8.99443 7.14297 9.0671 7.14297 9.14288V14.8572C7.14297 14.9329 7.17307 15.0056 7.22666 15.0592C7.28024 15.1128 7.35291 15.1429 7.42869 15.1429H13.4287C13.5022 15.1424 13.5727 15.1137 13.6255 15.0626ZM10.0001 14C10.0001 14.3156 9.74425 14.5714 9.42866 14.5714H8.28581C7.97022 14.5714 7.71438 14.3156 7.71438 14V13.4286C7.71438 13.113 7.97022 12.8571 8.28581 12.8571H9.42866C9.74425 12.8571 10.0001 13.113 10.0001 13.4286V14ZM12.8573 14.5714H12.0001C11.9243 14.5714 11.8516 14.5413 11.7981 14.4878C11.7445 14.4342 11.7144 14.3615 11.7144 14.2857C11.7144 14.2099 11.7445 14.1373 11.7981 14.0837C11.8516 14.0301 11.9243 14 12.0001 14H12.8573C12.933 14 13.0057 14.0301 13.0593 14.0837C13.1129 14.1373 13.143 14.2099 13.143 14.2857C13.143 14.3615 13.1129 14.4342 13.0593 14.4878C13.0057 14.5413 12.933 14.5714 12.8573 14.5714ZM12.8573 13.4286H12.0001C11.9243 13.4286 11.8516 13.3985 11.7981 13.3449C11.7445 13.2913 11.7144 13.2187 11.7144 13.1429C11.7144 13.0671 11.7445 12.9944 11.7981 12.9408C11.8516 12.8873 11.9243 12.8572 12.0001 12.8572H12.8573C12.933 12.8572 13.0057 12.8873 13.0593 12.9408C13.1129 12.9944 13.143 13.0671 13.143 13.1429C13.143 13.2187 13.1129 13.2913 13.0593 13.3449C13.0057 13.3985 12.933 13.4286 12.8573 13.4286ZM10.3813 1.522L12.1207 1.87368e-06H9.81241L7.97585 1.42856H10.0001C10.1327 1.42945 10.2633 1.46146 10.3813 1.522ZM6.65894 0.0822831C6.6466 0.0949349 6.63312 0.106411 6.61866 0.116564L4.75066 1.42856H7.04494L8.8815 1.87368e-06H6.85722C6.82036 -0.000133542 6.78385 0.00707246 6.7498 0.0211994C6.71576 0.0353264 6.68487 0.0560915 6.65894 0.0822831ZM12.4858 5.91428C12.5127 5.88836 12.5342 5.85731 12.5489 5.82296C12.5636 5.78861 12.5713 5.75166 12.5715 5.71428V0.364877L10.7793 1.93316C10.8303 2.0437 10.8569 2.16396 10.8573 2.28572V7.54544L12.4858 5.91428ZM2.94466 6.93944C2.93232 6.95209 2.91884 6.96357 2.90438 6.97372L1.03638 8.28572H3.19553C3.16169 8.19422 3.14391 8.09756 3.14297 8V6.85716C3.10611 6.85701 3.06958 6.86421 3.03553 6.87834C3.00148 6.89247 2.97059 6.91324 2.94466 6.93944ZM4.85725 6.57144H6.00041V7.14288H4.85725V6.57144Z"/>
<path d="M4.00007 8.28572H10.0001C10.0749 8.28597 10.1467 8.25671 10.2001 8.20428L10.2058 8.19856C10.2573 8.14535 10.2861 8.07409 10.2858 8V2.28572C10.2858 2.20994 10.2557 2.13727 10.2021 2.08369C10.1485 2.0301 10.0759 2 10.0001 2H4.00007C3.9243 2 3.85162 2.0301 3.79804 2.08369C3.74446 2.13727 3.71436 2.20994 3.71436 2.28572V8C3.71436 8.07578 3.74446 8.14845 3.79804 8.20203C3.85162 8.25562 3.9243 8.28572 4.00007 8.28572ZM8.57151 6H9.42867C9.50445 6 9.57712 6.0301 9.6307 6.08368C9.68428 6.13727 9.71439 6.20994 9.71439 6.28572C9.71439 6.3615 9.68428 6.43417 9.6307 6.48775C9.57712 6.54134 9.50445 6.57144 9.42867 6.57144H8.57151C8.49573 6.57144 8.42306 6.54134 8.36948 6.48775C8.3159 6.43417 8.28579 6.3615 8.28579 6.28572C8.28579 6.20994 8.3159 6.13727 8.36948 6.08368C8.42306 6.0301 8.49573 6 8.57151 6ZM8.57151 7.14287H9.42867C9.50445 7.14287 9.57712 7.17298 9.6307 7.22656C9.68428 7.28014 9.71439 7.35282 9.71439 7.42859C9.71439 7.50437 9.68428 7.57704 9.6307 7.63063C9.57712 7.68421 9.50445 7.71431 9.42867 7.71431H8.57151C8.49573 7.71431 8.42306 7.68421 8.36948 7.63063C8.3159 7.57704 8.28579 7.50437 8.28579 7.42859C8.28579 7.35282 8.3159 7.28014 8.36948 7.22656C8.42306 7.17298 8.49573 7.14287 8.57151 7.14287ZM4.28579 6.57144C4.28579 6.25584 4.54164 6 4.85723 6H6.00007C6.31567 6 6.57151 6.25584 6.57151 6.57144V7.14287C6.57151 7.45847 6.31567 7.71431 6.00007 7.71431H4.85723C4.54164 7.71431 4.28579 7.45847 4.28579 7.14287V6.57144Z"/>
</svg>
