<svg xmlns="http://www.w3.org/2000/svg" width="91" height="56" viewBox="0 0 91 56" fill="none">
  <path d="M88.6121 55.4238C88.5065 55.6789 88.2141 55.8002 87.9589 55.6947L83.8006 53.9748C83.5454 53.8693 83.4241 53.5768 83.5297 53.3217C83.6352 53.0665 83.9276 52.9452 84.1828 53.0507L87.8791 54.5795L89.4079 50.8832C89.5134 50.628 89.8059 50.5067 90.061 50.6123C90.3162 50.7178 90.4375 51.0102 90.332 51.2654L88.6121 55.4238ZM0.882416 1.74791C20.8057 -3.07263 66.1536 0.902083 88.6119 55.0411L87.6882 55.4242C65.4597 1.83923 20.6748 -2.01209 1.11758 2.71986L0.882416 1.74791Z" fill="#ACB7C1"/>
</svg>
