<svg xmlns="http://www.w3.org/2000/svg" width="40" height="40" viewBox="0 0 40 40" fill="none">
  <path d="M23.75 11.875H21.875V20.625H23.75C24.9103 20.625 26.0231 20.1641 26.8436 19.3436C27.6641 18.5231 28.125 17.4103 28.125 16.25C28.125 15.0897 27.6641 13.9769 26.8436 13.1564C26.0231 12.3359 24.9103 11.875 23.75 11.875ZM17.5 11.875H19.375V20.625H17.5V11.875Z" fill="#199C68"/>
  <path d="M20 2.8125C16.6006 2.8125 13.2776 3.82053 10.4511 5.70912C7.62467 7.5977 5.42171 10.282 4.12083 13.4226C2.81995 16.5632 2.47958 20.0191 3.14276 23.3531C3.80594 26.6872 5.44289 29.7497 7.84661 32.1534C10.2503 34.5571 13.3128 36.1941 16.6469 36.8572C19.9809 37.5204 23.4368 37.1801 26.5774 35.8792C29.718 34.5783 32.4023 32.3753 34.2909 29.5489C36.1795 26.7224 37.1875 23.3994 37.1875 20C37.1875 15.4416 35.3767 11.0699 32.1534 7.8466C28.9301 4.62332 24.5584 2.8125 20 2.8125ZM23.75 23.125H21.875V32.5H19.375V23.125H17.5V32.5H15V11.875H12.5V9.375H23.75C25.5734 9.375 27.3221 10.0993 28.6114 11.3886C29.9007 12.678 30.625 14.4266 30.625 16.25C30.625 18.0734 29.9007 19.822 28.6114 21.1114C27.3221 22.4007 25.5734 23.125 23.75 23.125Z" fill="#199C68"/>
  <path d="M20 0C16.0444 0 12.1776 1.17298 8.8886 3.37061C5.59962 5.56823 3.03617 8.69181 1.52242 12.3463C0.00866562 16.0009 -0.387401 20.0222 0.384303 23.9018C1.15601 27.7814 3.06082 31.3451 5.85787 34.1421C8.65492 36.9392 12.2186 38.844 16.0982 39.6157C19.9778 40.3874 23.9992 39.9913 27.6537 38.4776C31.3082 36.9638 34.4318 34.4004 36.6294 31.1114C38.827 27.8224 40 23.9556 40 20C40 14.6957 37.8929 9.60859 34.1421 5.85786C30.3914 2.10714 25.3043 0 20 0ZM20 37.8125C16.477 37.8125 13.0332 36.7678 10.1039 34.8105C7.17466 32.8533 4.89159 30.0714 3.5434 26.8165C2.19522 23.5617 1.84247 19.9802 2.52977 16.525C3.21707 13.0697 4.91355 9.89578 7.40467 7.40466C9.89579 4.91354 13.0697 3.21706 16.525 2.52976C19.9802 1.84246 23.5617 2.19521 26.8166 3.5434C30.0714 4.89158 32.8533 7.17465 34.8106 10.1039C36.7678 13.0332 37.8125 16.477 37.8125 20C37.8125 24.7242 35.9358 29.2548 32.5953 32.5953C29.2549 35.9358 24.7242 37.8125 20 37.8125Z" fill="#199C68"/>
</svg>
