<svg xmlns="http://www.w3.org/2000/svg" width="197" height="39" viewBox="0 0 197 39" fill="none">
  <path d="M196.494 2.0789C196.537 1.80621 196.352 1.54984 196.079 1.50626L191.635 0.7962C191.363 0.752627 191.106 0.938357 191.063 1.21104C191.019 1.48372 191.205 1.7401 191.477 1.78367L195.427 2.41484L194.796 6.36473C194.753 6.63741 194.938 6.89379 195.211 6.93736C195.484 6.98094 195.74 6.7952 195.784 6.52252L196.494 2.0789ZM0.648609 2.3557C28.2823 29.6544 106.053 67.7792 196.293 2.40491L195.707 1.59509C105.947 66.6208 28.7177 28.6789 1.35139 1.6443L0.648609 2.3557Z" fill="#ACB7C1"/>
</svg>
