<svg xmlns="http://www.w3.org/2000/svg" width="39" height="40" viewBox="0 0 39 40" fill="none">
  <path d="M38.3051 35.2283L34.8132 14.3679C34.6536 13.4158 34.1615 12.5512 33.4244 11.9278C32.6872 11.3044 31.7529 10.9628 30.7875 10.9635H25.541C26.1762 9.85723 26.5097 8.60348 26.508 7.32779C26.508 3.28741 23.2214 0 19.1802 0C15.1398 0 11.8524 3.28741 11.8524 7.32779C11.8524 8.65003 12.2042 9.89169 12.8194 10.9635H7.57289C6.60731 10.963 5.67285 11.305 4.93572 11.9287C4.1986 12.5524 3.7066 13.4173 3.54724 14.3696L0.0562078 35.2326C-0.0418723 35.8182 -0.0113231 36.4182 0.145734 36.9908C0.302792 37.5634 0.582594 38.0949 0.965714 38.5486C1.34883 39.0022 1.82609 39.367 2.36435 39.6176C2.90261 39.8682 3.48897 39.9987 4.08272 40H34.2811C34.8751 39.9985 35.4616 39.8676 35.9999 39.6165C36.5382 39.3655 37.0154 39.0002 37.3983 38.5462C37.7812 38.0921 38.0607 37.5601 38.2173 36.9871C38.3738 36.4142 38.4038 35.814 38.3051 35.2283ZM19.1811 4.26913C19.9921 4.27027 20.7695 4.59301 21.3429 5.16656C21.9163 5.74011 22.2388 6.51765 22.2397 7.32865C22.2388 8.13958 21.9163 8.91703 21.3428 9.49044C20.7694 10.0639 19.992 10.3864 19.1811 10.3873C17.494 10.3873 16.1215 9.01482 16.1215 7.32779C16.1215 5.64076 17.494 4.26913 19.1811 4.26913Z" fill="#199C68"/>
</svg>
