<svg xmlns="http://www.w3.org/2000/svg" width="32" height="30" viewBox="0 0 32 30" fill="none">
  <path d="M7.59804 12.1247C6.97618 12.3106 6.43086 12.6922 6.04299 13.2126C5.65513 13.733 5.44539 14.3646 5.44491 15.0137V15.8079L0.155029 11.2321C0.110479 11.1936 0.0739565 11.1467 0.0475524 11.0941C0.0211484 11.0415 0.00538167 10.9842 0.00115519 10.9255C-0.00307129 10.8668 0.00432549 10.8078 0.0229219 10.7519C0.0415184 10.6961 0.0709492 10.6445 0.109529 10.6L9.14079 0.155044C9.17927 0.110495 9.22616 0.0739723 9.27877 0.0475666C9.33138 0.0211608 9.38869 0.00539053 9.4474 0.00115845C9.50612 -0.00307362 9.56509 0.00431555 9.62094 0.0229031C9.6768 0.0414906 9.72844 0.0709115 9.77291 0.109482L12.2631 2.26261L5.90397 5.16074C5.57929 5.31005 5.32692 5.58182 5.20203 5.91665C5.07714 6.25149 5.08988 6.62215 5.23747 6.94761L7.59804 12.1247ZM6.05697 6.5743L8.53073 11.9993H11.9954C12.1381 11.9997 12.2806 12.0112 12.4216 12.0339V4.80005C12.4217 4.44203 12.5639 4.0987 12.8171 3.84554C13.0703 3.59239 13.4136 3.45013 13.7716 3.45005H20.7937L19.4347 0.473795C19.4103 0.420189 19.3756 0.371913 19.3326 0.331727C19.2895 0.291542 19.239 0.260235 19.1839 0.239599C19.1287 0.218962 19.07 0.209401 19.0112 0.211461C18.9524 0.213522 18.8945 0.227164 18.8409 0.251607L6.27741 5.98042C6.22389 6.00489 6.17573 6.03967 6.13567 6.08277C6.09561 6.12588 6.06446 6.17646 6.04398 6.23163C6.0235 6.28679 6.01411 6.34546 6.01634 6.40426C6.01857 6.46306 6.03238 6.52084 6.05697 6.5743ZM24.7956 7.93868H27.7666L24.4404 4.61424V7.58343C24.4411 7.67744 24.4787 7.76742 24.5452 7.8339C24.6116 7.90038 24.7016 7.93802 24.7956 7.93868ZM23.5424 4.35011V7.58343C23.5421 7.74816 23.5743 7.91133 23.6372 8.0636C23.7001 8.21587 23.7924 8.35425 23.9088 8.47082C24.0252 8.58739 24.1634 8.67986 24.3156 8.74295C24.4678 8.80604 24.6309 8.83851 24.7956 8.83849H28.0289V14.939C27.3467 15.0327 26.6973 15.2902 26.1363 15.6895H16.9992C16.9835 15.6827 16.9683 15.6748 16.9537 15.6658C16.8052 15.5584 16.6674 15.437 16.542 15.3033L16.1333 14.9044H25.3731C25.4924 14.9044 25.6069 14.857 25.6913 14.7726C25.7756 14.6882 25.8231 14.5737 25.8231 14.4544C25.8231 14.335 25.7756 14.2206 25.6913 14.1362C25.6069 14.0518 25.4924 14.0044 25.3731 14.0044H15.9774C15.8798 14.0046 15.7849 14.0365 15.707 14.0953C15.6291 14.154 15.5723 14.2365 15.5452 14.3302L14.3397 13.1539C14.0781 12.8846 13.788 12.6445 13.4745 12.438C13.4235 12.4067 13.3725 12.3779 13.3215 12.3487V4.80005C13.3217 4.68077 13.3692 4.56645 13.4535 4.48211C13.5379 4.39776 13.6522 4.35028 13.7715 4.35005L23.5424 4.35011ZM15.5274 7.88949C15.5274 8.00884 15.5748 8.1233 15.6592 8.20769C15.7436 8.29208 15.8581 8.33949 15.9774 8.33949H21.9285C22.0478 8.33949 22.1623 8.29208 22.2467 8.20769C22.3311 8.1233 22.3785 8.00884 22.3785 7.88949C22.3785 7.77014 22.3311 7.65568 22.2467 7.57129C22.1623 7.4869 22.0478 7.43949 21.9285 7.43949H15.9774C15.8581 7.43974 15.7438 7.48723 15.6595 7.57157C15.5751 7.65591 15.5276 7.77022 15.5274 7.88949ZM25.823 12.2667C25.823 12.1474 25.7756 12.0329 25.6912 11.9485C25.6068 11.8642 25.4923 11.8167 25.373 11.8167H15.9774C15.858 11.8167 15.7436 11.8642 15.6592 11.9485C15.5748 12.0329 15.5274 12.1474 15.5274 12.2667C15.5274 12.3861 15.5748 12.5006 15.6592 12.5849C15.7436 12.6693 15.858 12.7167 15.9774 12.7167H25.3731C25.4924 12.7167 25.6068 12.6693 25.6912 12.5849C25.7756 12.5005 25.823 12.3861 25.823 12.2667ZM15.9774 9.62924C15.858 9.62924 15.7436 9.67665 15.6592 9.76104C15.5748 9.84544 15.5274 9.95989 15.5274 10.0792C15.5274 10.1986 15.5748 10.313 15.6592 10.3974C15.7436 10.4818 15.858 10.5292 15.9774 10.5292H25.3731C25.4924 10.5292 25.6069 10.4818 25.6913 10.3974C25.7756 10.313 25.8231 10.1986 25.8231 10.0792C25.8231 9.95989 25.7756 9.84544 25.6913 9.76104C25.6069 9.67665 25.4924 9.62924 25.3731 9.62924H15.9774ZM32 19.1833C31.9997 19.966 31.728 20.7243 31.2312 21.3292C30.7345 21.934 30.0434 22.3479 29.2757 22.5003C28.5081 22.6528 27.7113 22.5344 27.0211 22.1652C26.3309 21.7961 25.7901 21.1991 25.4908 20.4759C25.1914 19.7528 25.152 18.9482 25.3793 18.1993C25.6066 17.4503 26.0866 16.8034 26.7374 16.3686C27.3882 15.9339 28.1696 15.7382 28.9485 15.8149C29.7274 15.8917 30.4556 16.2361 31.0091 16.7896C31.3237 17.1036 31.5733 17.4768 31.7433 17.8876C31.9134 18.2984 32.0006 18.7387 32 19.1833ZM30.9071 17.4837C30.8655 17.4418 30.8159 17.4084 30.7614 17.3857C30.7068 17.3629 30.6483 17.3512 30.5892 17.3512C30.5301 17.3512 30.4715 17.3629 30.417 17.3857C30.3624 17.4084 30.3129 17.4418 30.2713 17.4837L27.8231 19.9301L26.9615 19.0667C26.877 18.9824 26.7624 18.9352 26.643 18.9353C26.5236 18.9355 26.4092 18.9831 26.3249 19.0676C26.2406 19.1522 26.1933 19.2667 26.1935 19.3861C26.1936 19.5055 26.2412 19.6199 26.3257 19.7043L27.5062 20.8846C27.5907 20.9686 27.705 21.0158 27.8241 21.0158C27.9432 21.0158 28.0575 20.9686 28.1419 20.8846L30.9071 18.1195C30.9911 18.035 31.0382 17.9207 31.0382 17.8016C31.0382 17.6825 30.9911 17.5682 30.9071 17.4837ZM28.6155 23.4677C29.1109 23.468 29.6026 23.3829 30.0691 23.2163V27.3841C30.0671 28.0398 29.8056 28.6681 29.3418 29.1316C28.878 29.5951 28.2495 29.8562 27.5937 29.8578H8.82035C8.16458 29.8563 7.53606 29.5952 7.07218 29.1317C6.6083 28.6682 6.34678 28.0398 6.34479 27.3841V15.0137C6.34556 14.4533 6.56838 13.9161 6.96443 13.5197C7.36049 13.1233 7.8975 12.9001 8.45785 12.8988H11.9954C12.351 12.9005 12.6984 13.0056 12.9954 13.2012C13.2552 13.3727 13.4953 13.5725 13.7112 13.7969L15.9135 15.9482C16.0845 16.1264 16.2729 16.2869 16.476 16.4272C16.6321 16.5312 16.815 16.5876 17.0025 16.5894H25.2073C24.7239 17.2244 24.4275 17.9819 24.3515 18.7764C24.2755 19.5709 24.4231 20.3708 24.7774 21.0859C25.1318 21.8011 25.6788 22.403 26.357 22.8238C27.0351 23.2446 27.8174 23.4677 28.6155 23.4677ZM9.20298 23.5259C9.20298 23.6453 9.25039 23.7597 9.33478 23.8441C9.41917 23.9285 9.53363 23.9759 9.65298 23.9759H14.0394C14.1587 23.9759 14.2732 23.9285 14.3576 23.8441C14.4419 23.7597 14.4894 23.6453 14.4894 23.5259C14.4894 23.4066 14.4419 23.2921 14.3576 23.2077C14.2732 23.1234 14.1587 23.0759 14.0394 23.0759H9.65279C9.59365 23.0758 9.53505 23.0873 9.48038 23.1098C9.4257 23.1324 9.37602 23.1655 9.33421 23.2073C9.29239 23.2492 9.25926 23.2988 9.23671 23.3535C9.21417 23.4082 9.20266 23.4668 9.20285 23.5259H9.20298ZM27.2112 26.6009C27.2112 26.4816 27.1638 26.3671 27.0794 26.2827C26.995 26.1984 26.8805 26.1509 26.7612 26.1509H9.65279C9.53371 26.1509 9.4195 26.1982 9.3353 26.2825C9.25109 26.3667 9.20379 26.4809 9.20379 26.5999C9.20379 26.719 9.25109 26.8332 9.3353 26.9174C9.4195 27.0016 9.53371 27.0489 9.65279 27.0489H26.7611C26.8802 27.0491 26.9945 27.002 27.0788 26.9179C27.1632 26.8339 27.2107 26.7198 27.2111 26.6008L27.2112 26.6009Z" fill="white"/>
</svg>
