<svg xmlns="http://www.w3.org/2000/svg" width="9" height="12" viewBox="0 0 9 12" fill="none">
  <path d="M7.07547 3.10649L6.78797 2.12148L5.25796 1.76147L4.60295 1.92398C4.44146 2.28303 4.26633 2.63579 4.07794 2.98149C4.0463 3.04124 3.99898 3.09123 3.94106 3.1261C3.88313 3.16097 3.8168 3.1794 3.74919 3.1794C3.68158 3.1794 3.61525 3.16097 3.55733 3.1261C3.4994 3.09123 3.45208 3.04124 3.42044 2.98149C3.19544 2.55648 3.01543 2.19398 2.88293 1.88648L2.40293 1.76147L1.54292 4.7015L2.58543 5.09151C3.25294 3.21824 5.33946 2.37148 7.07547 3.10649ZM3.19544 8.28904L2.88793 8.59654L3.39044 9.09904L3.69794 8.78904C3.51186 8.64215 3.34325 8.47439 3.19544 8.28904ZM2.60743 8.67079C2.5978 8.66115 2.58636 8.65351 2.57377 8.64829C2.56118 8.64307 2.54768 8.64039 2.53405 8.64039C2.52043 8.64039 2.50693 8.64307 2.49434 8.64829C2.48175 8.65351 2.47031 8.66115 2.46068 8.67079L0.194657 10.9441C-0.028845 11.1676 -0.0718454 11.5321 0.128407 11.7766C0.181756 11.8423 0.248302 11.896 0.323737 11.9343C0.399172 11.9727 0.481816 11.9948 0.566322 11.9991C0.650828 12.0035 0.735313 11.9901 0.81431 11.9598C0.893307 11.9295 0.965056 11.8829 1.02492 11.8231L3.31544 9.52555C3.32507 9.51591 3.33272 9.50448 3.33794 9.49189C3.34315 9.47929 3.34584 9.4658 3.34584 9.45217C3.34584 9.43854 3.34315 9.42505 3.33794 9.41246C3.33272 9.39987 3.32507 9.38843 3.31544 9.3788L2.60743 8.67079Z" fill="white"/>
  <path d="M7.97806 4.009C6.75805 2.78899 4.78053 2.78899 3.56052 4.009C2.3405 5.22651 2.3405 7.20653 3.56052 8.42654C4.78053 9.64406 6.75805 9.64406 7.97806 8.42654C9.19807 7.20653 9.19807 5.22651 7.97806 4.009ZM7.47555 7.92404C6.53304 8.86405 5.00553 8.86405 4.06302 7.92404C3.12051 6.98153 3.12051 5.45152 4.06302 4.51151C4.28706 4.28738 4.55306 4.10958 4.84582 3.98828C5.13859 3.86698 5.45239 3.80454 5.76929 3.80454C6.08619 3.80454 6.39999 3.86698 6.69275 3.98828C6.98552 4.10958 7.25152 4.28738 7.47555 4.51151C8.41806 5.45152 8.41806 6.98153 7.47555 7.92404Z" fill="white"/>
  <path d="M7.17628 5.6383V5.6358C7.09202 5.4368 7.24453 5.31755 7.31103 5.1693L6.81602 4.6773C6.67452 4.7398 6.54652 4.8908 6.35252 4.8118L6.35002 4.8093C6.15852 4.73155 6.17352 4.53354 6.11677 4.38704H5.42001C5.36401 4.53429 5.38401 4.7303 5.18951 4.8093C5.18951 4.8093 5.18701 4.8093 5.18701 4.8118C4.99225 4.89105 4.87225 4.74305 4.72325 4.6773L4.22825 5.1693C4.29075 5.30805 4.44825 5.4348 4.36325 5.63555V5.63805C4.28375 5.82756 4.08325 5.81306 3.93824 5.86881V6.56556C4.093 6.62381 4.2875 6.60981 4.36325 6.79607V6.79857C4.4485 6.99407 4.28675 7.13407 4.22825 7.26507L4.72325 7.75732C4.8775 7.68782 4.99975 7.54057 5.18676 7.62232H5.18926C5.38226 7.70082 5.36626 7.90483 5.42001 8.04733H6.11677C6.17177 7.90458 6.16052 7.69932 6.35002 7.62232H6.35252C6.54077 7.54007 6.65952 7.68682 6.81627 7.75732L7.31103 7.26482C7.25153 7.13182 7.09077 6.99432 7.17628 6.79882V6.79632C7.25328 6.60681 7.44703 6.62381 7.60128 6.56556V5.86881C7.45328 5.81206 7.25553 5.82756 7.17628 5.6383ZM5.76976 7.26232C5.19226 7.26232 4.72325 6.79357 4.72325 6.21581C4.72325 5.63805 5.19201 5.17205 5.76976 5.17205C6.34752 5.17205 6.81627 5.6383 6.81627 6.21581C6.81627 6.79332 6.34727 7.26232 5.76976 7.26232ZM3.85749 2.86353C4.10175 2.40952 4.664 1.31201 4.664 0.915009C4.66403 0.794839 4.64039 0.67584 4.59442 0.564811C4.54845 0.453782 4.48105 0.3529 4.39607 0.267927C4.3111 0.182954 4.21022 0.115556 4.09919 0.069584C3.98816 0.0236122 3.86916 -3.28126e-05 3.74899 3.41752e-08C3.62882 -3.28126e-05 3.50982 0.0236122 3.3988 0.069584C3.28777 0.115556 3.18688 0.182954 3.10191 0.267927C3.01694 0.3529 2.94954 0.453782 2.90357 0.564811C2.8576 0.67584 2.83395 0.794839 2.83398 0.915009C2.83398 1.31201 3.39899 2.40952 3.64049 2.86328C3.68749 2.94978 3.81049 2.94978 3.85749 2.86328V2.86353ZM3.17024 0.915009C3.17024 0.761314 3.23129 0.613915 3.33997 0.505237C3.44865 0.396558 3.59605 0.335503 3.74974 0.335503C3.90344 0.335503 4.05084 0.396558 4.15952 0.505237C4.26819 0.613915 4.32925 0.761314 4.32925 0.915009C4.32925 1.0687 4.26819 1.2161 4.15952 1.32478C4.05084 1.43346 3.90344 1.49451 3.74974 1.49451C3.59605 1.49451 3.44865 1.43346 3.33997 1.32478C3.23129 1.2161 3.17024 1.0687 3.17024 0.915009Z" fill="white"/>
</svg>
