<svg xmlns="http://www.w3.org/2000/svg" width="28" height="32" viewBox="0 0 28 32" fill="none">
  <path fill-rule="evenodd" clip-rule="evenodd" d="M0.575613 3.77808C4.22082 3.35603 7.3989 1.73541 9.83044 0H17.9768C20.4085 1.73541 23.5865 3.35603 27.2317 3.77808C27.3904 3.7959 27.5369 3.8717 27.6432 3.99092C27.7494 4.11014 27.8079 4.26438 27.8074 4.42406V15.982C27.8074 23.8203 19.8499 30.4067 13.9037 32C7.95747 30.4067 3.59055e-06 23.8203 3.59055e-06 15.9821V4.42406C-0.000527767 4.26438 0.0579335 4.11012 0.164168 3.9909C0.270402 3.87168 0.416924 3.79589 0.575613 3.77808ZM1.95116 5.54576V15.9821C1.95116 16.868 2.07428 17.7461 2.30257 18.6016C3.64618 23.6367 8.95135 28.4247 13.903 29.9686C17.0031 28.9973 20.138 26.745 22.2442 24.3705C24.2971 22.056 25.8561 19.1417 25.8561 15.9821V5.54576C22.8046 4.99519 19.9324 3.6947 17.3647 1.95122H10.4426C7.87493 3.6947 5.0028 4.99519 1.95116 5.54576ZM3.25197 6.60286V15.9821C3.25197 16.754 3.36052 17.5209 3.55942 18.2663C4.75896 22.7617 9.51786 27.0725 13.9018 28.5986C16.6291 27.6432 19.3889 25.6293 21.271 23.5073C23.1057 21.4388 24.5553 18.8113 24.5553 15.9821V6.60286C21.8485 5.96254 19.2929 4.78068 16.97 3.25203H10.8373C8.51441 4.78068 5.95877 5.96254 3.25197 6.60286ZM15.9873 8.60702H11.8202C11.734 8.6072 11.6514 8.64151 11.5904 8.70246C11.5295 8.76341 11.4951 8.84603 11.495 8.93223V12.2297H8.19747C8.11127 12.2299 8.02865 12.2642 7.9677 12.3252C7.90675 12.3861 7.87244 12.4687 7.87226 12.5549V16.722C7.87226 16.9011 8.01834 17.0472 8.19747 17.0472H11.495V20.3447C11.495 20.5238 11.641 20.6699 11.8202 20.6699H15.9873C16.1664 20.6699 16.3125 20.5238 16.3125 20.3447V17.0472H19.6099C19.789 17.0472 19.9351 16.9011 19.9351 16.722V12.5549C19.9351 12.3758 19.789 12.2297 19.6099 12.2297H16.3125V8.93223C16.3123 8.84603 16.278 8.76341 16.217 8.70246C16.1561 8.64151 16.0735 8.6072 15.9873 8.60702Z" fill="white"/>
</svg>
