<svg xmlns="http://www.w3.org/2000/svg" width="16" height="12" viewBox="0 0 16 12">
  <path d="M2.66657 8.01831H0.649902V8.65498H1.31657C1.39236 8.65527 1.46729 8.67108 1.53674 8.70144C1.60619 8.73179 1.66869 8.77605 1.72037 8.83149C1.77206 8.88693 1.81185 8.95236 1.83728 9.02376C1.86271 9.09516 1.87324 9.17102 1.86824 9.24664C1.96291 8.74833 2.24963 8.30718 2.66657 8.01831ZM9.58824 8.01831H4.8549C5.1122 8.19563 5.3225 8.43288 5.46768 8.70959C5.61285 8.9863 5.68855 9.29416 5.68824 9.60664H6.02157C6.0198 9.50083 6.03909 9.39572 6.07831 9.29743C6.11754 9.19913 6.17591 9.10962 6.25004 9.03409C6.32418 8.95856 6.41258 8.89853 6.51013 8.85748C6.60767 8.81643 6.71241 8.79518 6.81824 8.79498H8.6949C8.80143 8.79407 8.90707 8.8145 9.00558 8.85505C9.10409 8.89561 9.19349 8.95547 9.26851 9.03111C9.34353 9.10675 9.40265 9.19664 9.44239 9.29548C9.48213 9.39433 9.50169 9.50013 9.4999 9.60664H9.73157C9.64263 9.47848 9.59548 9.32597 9.59657 9.16998L9.58824 8.01831ZM15.2916 8.65498L15.2682 8.15498H14.7682C14.6254 8.1551 14.4881 8.10002 14.385 8.00124C14.2819 7.90247 14.2209 7.76765 14.2149 7.62498L14.1666 6.65998C14.1634 6.58521 14.1754 6.51059 14.2018 6.44056C14.2281 6.37052 14.2683 6.30652 14.32 6.25238C14.3716 6.19824 14.4337 6.15507 14.5024 6.12545C14.5711 6.09582 14.6451 6.08036 14.7199 6.07998H15.1666L15.1399 5.52998C15.1399 5.36331 15.1616 5.46664 13.9816 3.20831C13.9384 3.12561 13.8736 3.05619 13.794 3.00746C13.7145 2.95873 13.6232 2.93253 13.5299 2.93164H10.3632C10.3058 2.93142 10.2488 2.94256 10.1956 2.9644C10.1424 2.98625 10.0941 3.01838 10.0534 3.05895C10.0127 3.09952 9.98035 3.14773 9.9583 3.20082C9.93625 3.25391 9.9249 3.31083 9.9249 3.36831V9.16998C9.92511 9.26766 9.95806 9.36244 10.0185 9.43919C10.0789 9.51593 10.1633 9.5702 10.2582 9.59331C10.2746 9.09146 10.4859 8.61576 10.8473 8.26717C11.2087 7.91859 11.6918 7.72457 12.1939 7.7263C12.696 7.72804 13.1777 7.92539 13.5366 8.27646C13.8956 8.62754 14.1037 9.10469 14.1166 9.60664H14.1332V9.20664C14.1332 9.06062 14.1911 8.92055 14.2942 8.81714C14.3973 8.71373 14.5372 8.65542 14.6832 8.65498H15.2916ZM12.5916 6.56998H12.3799C12.3357 6.56998 12.2933 6.55242 12.2621 6.52116C12.2308 6.48991 12.2132 6.44751 12.2132 6.40331C12.2132 6.35911 12.2308 6.31672 12.2621 6.28546C12.2933 6.2542 12.3357 6.23664 12.3799 6.23664H12.5916C12.6358 6.23664 12.6782 6.2542 12.7094 6.28546C12.7407 6.31672 12.7582 6.35911 12.7582 6.40331C12.7582 6.44751 12.7407 6.48991 12.7094 6.52116C12.6782 6.55242 12.6358 6.56998 12.5916 6.56998ZM13.9616 5.93164C11.7649 5.93164 11.9116 5.94831 11.7632 5.88664V7.21998C11.7632 7.26418 11.7457 7.30657 11.7144 7.33783C11.6832 7.36908 11.6408 7.38664 11.5966 7.38664C11.5524 7.38664 11.51 7.36908 11.4787 7.33783C11.4475 7.30657 11.4299 7.26418 11.4299 7.21998V3.83831C11.4299 3.68891 11.4893 3.54562 11.5949 3.43997C11.7005 3.33433 11.8438 3.27498 11.9932 3.27498H13.2632C13.3768 3.275 13.4883 3.30606 13.5855 3.3648C13.6827 3.42355 13.7621 3.50775 13.8149 3.60831L14.5366 4.98498C14.5898 5.08351 14.6164 5.19426 14.6135 5.30622C14.6107 5.41818 14.5786 5.52745 14.5205 5.62317C14.4624 5.7189 14.3802 5.79774 14.2821 5.85185C14.1841 5.90597 14.0736 5.93348 13.9616 5.93164Z"/>
  <path d="M14.5133 6.64495L14.5566 7.60995C14.5596 7.66464 14.5833 7.71613 14.623 7.75392C14.6626 7.7917 14.7152 7.81294 14.77 7.81328H15.2516L15.1883 6.42161H14.725C14.6962 6.42157 14.6676 6.42741 14.6412 6.43877C14.6147 6.45013 14.5908 6.46677 14.571 6.48768C14.5512 6.50858 14.5359 6.53332 14.5259 6.56036C14.516 6.5874 14.5117 6.61619 14.5133 6.64495ZM13.5 3.76495C13.4762 3.71921 13.4403 3.68088 13.3962 3.65413C13.3521 3.62739 13.3015 3.61326 13.25 3.61328H11.985C11.9262 3.61328 11.8698 3.63664 11.8282 3.67821C11.7867 3.71978 11.7633 3.77616 11.7633 3.83495V5.35995C11.7633 5.41874 11.7867 5.47512 11.8282 5.51669C11.8698 5.55826 11.9262 5.58161 11.985 5.58161H13.96C14.0118 5.58185 14.0628 5.56866 14.1079 5.54333C14.1531 5.51801 14.191 5.48141 14.2179 5.43711C14.2447 5.3928 14.2596 5.3423 14.2612 5.29052C14.2627 5.23873 14.2508 5.18743 14.2266 5.14161L13.5 3.76495ZM3.76163 8.01828C3.44709 8.01828 3.13961 8.11158 2.8781 8.28636C2.61659 8.46115 2.4128 8.70957 2.2925 9.0002C2.17221 9.29083 2.14082 9.61061 2.20231 9.91909C2.26379 10.2276 2.41539 10.5109 2.63792 10.7332C2.86045 10.9555 3.14392 11.1068 3.45246 11.1679C3.761 11.2291 4.08075 11.1974 4.37125 11.0768C4.66176 10.9562 4.90997 10.7521 5.08448 10.4904C5.25899 10.2287 5.35196 9.92116 5.35163 9.60662C5.35163 9.39789 5.31049 9.19122 5.23057 8.9984C5.15064 8.80559 5.0335 8.63042 4.88583 8.4829C4.73816 8.33539 4.56287 8.21843 4.36997 8.13871C4.17707 8.05898 3.97035 8.01806 3.76163 8.01828ZM3.76163 10.5583C3.57341 10.5583 3.38941 10.5025 3.23291 10.3979C3.07641 10.2933 2.95443 10.1447 2.88241 9.9708C2.81038 9.79691 2.79153 9.60556 2.82825 9.42095C2.86497 9.23635 2.95561 9.06678 3.0887 8.93368C3.22179 8.80059 3.39136 8.70995 3.57597 8.67323C3.76058 8.63651 3.95192 8.65536 4.12582 8.72739C4.29971 8.79942 4.44834 8.9214 4.55291 9.0779C4.65748 9.2344 4.7133 9.41839 4.7133 9.60662C4.7133 9.85901 4.61303 10.1011 4.43456 10.2795C4.25609 10.458 4.01403 10.5583 3.76163 10.5583Z"/>
  <path d="M3.76157 8.99664C3.64052 8.99665 3.52219 9.03256 3.42157 9.09985C3.32095 9.16713 3.24255 9.26276 3.1963 9.37462C3.15006 9.48649 3.13804 9.60956 3.16178 9.72826C3.18551 9.84695 3.24394 9.95594 3.32965 10.0414C3.41536 10.1269 3.5245 10.185 3.64326 10.2084C3.76202 10.2318 3.88506 10.2195 3.9968 10.1729C4.10854 10.1264 4.20395 10.0477 4.27096 9.94692C4.33797 9.84611 4.37356 9.72769 4.37323 9.60665C4.37323 9.5264 4.3574 9.44694 4.32664 9.37282C4.29588 9.2987 4.2508 9.23139 4.19398 9.17472C4.13716 9.11805 4.06972 9.07316 3.99552 9.0426C3.92131 9.01204 3.84181 8.99643 3.76157 8.99664ZM12.1882 8.01831C11.8737 8.01831 11.5662 8.11161 11.3047 8.28639C11.0432 8.46118 10.8394 8.7096 10.7191 9.00023C10.5988 9.29086 10.5674 9.61064 10.6289 9.91912C10.6904 10.2276 10.842 10.5109 11.0645 10.7332C11.2871 10.9555 11.5705 11.1068 11.8791 11.168C12.1876 11.2291 12.5074 11.1974 12.7979 11.0768C13.0884 10.9562 13.3366 10.7521 13.5111 10.4905C13.6856 10.2288 13.7786 9.92119 13.7782 9.60665C13.7782 9.39792 13.7371 9.19125 13.6572 8.99843C13.5772 8.80562 13.4601 8.63045 13.3124 8.48293C13.1648 8.33542 12.9895 8.21846 12.7966 8.13874C12.6037 8.05901 12.397 8.01809 12.1882 8.01831ZM12.1882 10.5583C12 10.5583 11.816 10.5025 11.6595 10.3979C11.503 10.2934 11.381 10.1447 11.309 9.97083C11.237 9.79694 11.2181 9.60559 11.2549 9.42098C11.2916 9.23638 11.3822 9.06681 11.5153 8.93371C11.6484 8.80062 11.818 8.70998 12.0026 8.67326C12.1872 8.63654 12.3785 8.65539 12.5524 8.72742C12.7263 8.79945 12.8749 8.92143 12.9795 9.07793C13.0841 9.23443 13.1399 9.41842 13.1399 9.60665C13.1395 9.85891 13.0391 10.1007 12.8607 10.2791C12.6823 10.4575 12.4405 10.5579 12.1882 10.5583Z"/>
  <path d="M12.19 8.99658C12.0689 8.99625 11.9504 9.03189 11.8495 9.09897C11.7487 9.16606 11.67 9.26157 11.6235 9.37341C11.577 9.48524 11.5648 9.60836 11.5883 9.72717C11.6119 9.84598 11.6702 9.95512 11.7558 10.0408C11.8415 10.1264 11.9506 10.1847 12.0694 10.2082C12.1882 10.2318 12.3113 10.2195 12.4232 10.173C12.535 10.1265 12.6305 10.0479 12.6976 9.94703C12.7647 9.84619 12.8003 9.7277 12.8 9.60658C12.7996 9.44494 12.7351 9.29004 12.6208 9.17574C12.5065 9.06143 12.3516 8.99702 12.19 8.99658Z"/>
  <path d="M15.7901 8.99658H14.6834C14.5674 8.99658 14.4734 9.0906 14.4734 9.20658V9.72825C14.4734 9.84423 14.5674 9.93825 14.6834 9.93825H15.7901C15.906 9.93825 16.0001 9.84423 16.0001 9.72825V9.20658C16.0001 9.0906 15.906 8.99658 15.7901 8.99658Z"/>
  <path d="M1.31667 8.99658H0.21C0.0940202 8.99658 0 9.0906 0 9.20658V9.72825C0 9.84423 0.0940202 9.93825 0.21 9.93825H1.31667C1.43265 9.93825 1.52667 9.84423 1.52667 9.72825V9.20658C1.52667 9.0906 1.43265 8.99658 1.31667 8.99658Z"/>
  <path d="M8.69505 9.13667H6.82172C6.70169 9.14382 6.58892 9.19653 6.50646 9.28405C6.424 9.37156 6.37808 9.48726 6.37808 9.6075C6.37808 9.72775 6.424 9.84345 6.50646 9.93096C6.58892 10.0185 6.70169 10.0712 6.82172 10.0783H8.69505C8.81508 10.0712 8.92785 10.0185 9.01031 9.93096C9.09277 9.84345 9.13869 9.72775 9.13869 9.6075C9.13869 9.48726 9.09277 9.37156 9.01031 9.28405C8.92785 9.19653 8.81508 9.14382 8.69505 9.13667ZM3.13672 7.265H1.13672V7.67834H9.15339V0.35667C9.15339 0.262077 9.11581 0.171357 9.04892 0.104469C8.98203 0.0375812 8.89131 3.89442e-06 8.79672 3.89442e-06H6.86505V3.68334L5.14505 3.05667L3.42672 3.68334V3.89442e-06H1.50005C1.45307 -0.000215632 1.40652 0.00884785 1.36305 0.0266737C1.31958 0.0444996 1.28007 0.0707367 1.24677 0.103878C1.21348 0.13702 1.18706 0.176412 1.16903 0.219794C1.151 0.263176 1.14172 0.309692 1.14172 0.35667V4.79334H3.14172L3.13672 7.265ZM7.28672 4.96334H8.23339C8.27759 4.96334 8.31998 4.9809 8.35124 5.01215C8.38249 5.04341 8.40005 5.0858 8.40005 5.13C8.40005 5.17421 8.38249 5.2166 8.35124 5.24786C8.31998 5.27911 8.27759 5.29667 8.23339 5.29667H7.28672C7.24252 5.29667 7.20012 5.27911 7.16887 5.24786C7.13761 5.2166 7.12005 5.17421 7.12005 5.13C7.12005 5.0858 7.13761 5.04341 7.16887 5.01215C7.20012 4.9809 7.24252 4.96334 7.28672 4.96334ZM7.28672 5.85834H8.23339C8.27759 5.85834 8.31998 5.8759 8.35124 5.90715C8.38249 5.93841 8.40005 5.9808 8.40005 6.025C8.40005 6.06921 8.38249 6.1116 8.35124 6.14285C8.31998 6.17411 8.27759 6.19167 8.23339 6.19167H7.28672C7.24252 6.19167 7.20012 6.17411 7.16887 6.14285C7.13761 6.1116 7.12005 6.06921 7.12005 6.025C7.12005 5.9808 7.13761 5.93841 7.16887 5.90715C7.20012 5.8759 7.24252 5.85834 7.28672 5.85834ZM7.28672 6.75334H8.23339C8.27759 6.75334 8.31998 6.7709 8.35124 6.80215C8.38249 6.83341 8.40005 6.8758 8.40005 6.92C8.40005 6.96421 8.38249 7.0066 8.35124 7.03786C8.31998 7.06911 8.27759 7.08667 8.23339 7.08667H7.28672C7.24252 7.08667 7.20012 7.06911 7.16887 7.03786C7.13761 7.0066 7.12005 6.96421 7.12005 6.92C7.12005 6.8758 7.13761 6.83341 7.16887 6.80215C7.20012 6.7709 7.24252 6.75334 7.28672 6.75334Z"/>
  <path d="M6.52505 3.19667V0H3.76672V3.19667L5.14672 2.695L6.52505 3.19667ZM1.13672 5.13333H2.79672V6.925H1.13672V5.13333Z"/>
</svg>
