<svg xmlns="http://www.w3.org/2000/svg" width="384" height="361" viewBox="0 0 384 361" fill="none">
<path d="M383.065 361C382.313 360.578 381.58 360.138 380.847 359.697L381.818 358.101C382.533 358.542 383.267 358.963 384 359.385L383.083 361H383.065ZM374.577 355.569C372.56 354.138 370.562 352.597 368.637 351.001L369.81 349.57C371.717 351.129 373.679 352.652 375.659 354.046L374.577 355.569ZM363.027 346.047C361.194 344.304 359.434 342.524 357.766 340.708L359.122 339.442C360.754 341.222 362.496 342.983 364.292 344.689L363.009 346.029L363.027 346.047ZM352.889 335.039C351.331 333.094 349.809 331.094 348.398 329.057L349.919 327.993C351.331 329.993 352.816 331.975 354.356 333.883L352.907 335.039H352.889ZM344.273 322.783C342.989 320.654 341.743 318.471 340.588 316.269L342.238 315.407C343.374 317.572 344.584 319.737 345.868 321.829L344.273 322.801V322.783ZM337.325 309.518C336.298 307.206 335.363 304.857 334.52 302.564L336.261 301.922C337.086 304.179 338.021 306.472 339.029 308.747L337.325 309.499V309.518ZM332.173 295.445C331.458 293.024 330.835 290.583 330.303 288.198L332.118 287.795C332.631 290.143 333.255 292.547 333.951 294.932L332.173 295.464V295.445ZM328.928 280.823C328.561 278.364 328.268 275.869 328.066 273.374L329.918 273.227C330.12 275.685 330.395 278.144 330.761 280.547L328.928 280.823ZM327.736 265.888V265.099C327.736 263.613 327.755 262.145 327.828 260.659C327.865 259.888 327.901 259.136 327.956 258.384L329.808 258.494C329.753 259.246 329.716 259.999 329.68 260.732C329.606 262.182 329.588 263.631 329.588 265.081V265.833L327.736 265.87V265.888ZM330.486 251.155L328.635 250.953C328.91 248.477 329.258 246.018 329.625 243.559L331.458 243.835C331.091 246.275 330.743 248.715 330.468 251.174L330.486 251.155ZM332.65 236.496L330.816 236.202L332.008 228.863L333.841 229.157L332.65 236.496ZM334.96 221.781L333.126 221.543C333.456 219.103 333.731 216.644 333.97 214.204L335.821 214.369C335.601 216.846 335.308 219.323 334.978 221.8L334.96 221.781ZM336.261 206.883L334.41 206.828C334.41 206.149 334.428 205.471 334.428 204.792C334.428 203.03 334.373 201.251 334.263 199.489L336.115 199.361C336.243 201.177 336.298 202.994 336.298 204.792C336.298 205.489 336.298 206.186 336.28 206.883H336.261ZM133.683 201.508H133.298V199.654H133.683C135.956 199.654 138.321 199.581 140.668 199.434L140.778 201.287C138.376 201.434 135.993 201.508 133.665 201.508H133.683ZM125.818 201.214C123.325 201.031 120.814 200.737 118.375 200.37L118.65 198.535C121.052 198.902 123.508 199.177 125.947 199.379L125.8 201.232L125.818 201.214ZM148.239 200.59L148.019 198.737C150.403 198.444 152.859 198.077 155.316 197.636L155.646 199.471C153.153 199.911 150.659 200.278 148.258 200.59H148.239ZM111.005 198.921C108.604 198.333 106.184 197.618 103.801 196.792L104.406 195.031C106.734 195.838 109.099 196.535 111.445 197.104L111.005 198.921ZM162.942 198.003L162.521 196.187C164.831 195.673 167.251 195.049 169.689 194.389L170.184 196.187C167.709 196.866 165.289 197.471 162.942 198.003ZM177.352 194.077L176.802 192.297C179.149 191.563 181.495 190.774 183.824 189.949L184.447 191.692C182.1 192.517 179.754 193.306 177.37 194.059L177.352 194.077ZM96.8158 193.985C94.5609 192.958 92.3059 191.802 90.1426 190.536L91.0776 188.921C93.2042 190.151 95.3858 191.288 97.6041 192.297L96.8341 193.985H96.8158ZM333.401 192.187C332.998 189.71 332.466 187.307 331.806 185.032L333.585 184.518C334.245 186.848 334.795 189.325 335.216 191.875L333.383 192.187H333.401ZM191.413 189.123L190.753 187.38C193.063 186.5 195.355 185.582 197.628 184.628L198.325 186.353C196.033 187.288 193.723 188.224 191.413 189.105V189.123ZM83.8178 186.445C81.7829 184.977 79.8029 183.399 77.933 181.766L79.1613 180.372C80.9762 181.968 82.9012 183.509 84.8811 184.94L83.7995 186.445H83.8178ZM205.2 183.472L204.466 181.766C206.74 180.794 208.995 179.803 211.268 178.794L212.019 180.5C209.746 181.509 207.491 182.5 205.2 183.472ZM329.368 178.17C328.378 175.895 327.241 173.73 325.977 171.748L327.535 170.739C328.855 172.813 330.046 175.069 331.073 177.436L329.368 178.17ZM218.784 177.454L218.014 175.766L224.797 172.702L225.567 174.39L218.784 177.454ZM72.5798 176.482C70.8932 174.611 69.2982 172.629 67.8499 170.611L69.3715 169.528C70.7648 171.492 72.3048 173.4 73.9547 175.216L72.5798 176.464V176.482ZM232.332 171.363L231.581 169.657C233.854 168.648 236.109 167.657 238.4 166.666L239.134 168.372C236.861 169.345 234.606 170.336 232.332 171.345V171.363ZM321.54 166.006C319.945 164.299 318.203 162.777 316.352 161.419L316.095 161.235L317.177 159.713L317.452 159.896C319.395 161.309 321.228 162.923 322.897 164.721L321.54 165.987V166.006ZM245.954 165.51L245.239 163.786C247.53 162.85 249.84 161.914 252.15 161.015L252.828 162.758C250.518 163.657 248.227 164.575 245.954 165.51ZM63.89 164.208C62.6984 161.988 61.6534 159.658 60.7917 157.327L62.5334 156.685C63.3767 158.942 64.3667 161.18 65.5216 163.345L63.89 164.226V164.208ZM259.777 160.171L259.153 158.41C261.573 157.548 263.975 156.777 266.266 156.117L266.78 157.896C264.525 158.557 262.16 159.327 259.758 160.171H259.777ZM309.825 157.658C307.68 156.704 305.37 155.915 302.969 155.328L303.409 153.511C305.92 154.117 308.34 154.942 310.595 155.951L309.844 157.658H309.825ZM273.93 156.043L273.526 154.227C276.038 153.676 278.531 153.218 280.896 152.869L281.153 154.704C278.824 155.034 276.386 155.474 273.93 156.025V156.043ZM295.764 154.172C294.187 154.043 292.519 154.007 290.814 153.988C290.026 153.988 289.237 153.988 288.449 154.043L288.376 152.19C289.256 152.154 290.136 152.135 291.034 152.135C292.702 152.135 294.352 152.209 295.911 152.337L295.746 154.19L295.764 154.172ZM58.6835 150.044C58.1701 147.658 57.8035 145.2 57.5652 142.576L59.4168 142.411C59.6368 144.961 60.0034 147.328 60.4984 149.64L58.6835 150.025V150.044ZM59.1235 135.072H57.2718C57.2718 132.797 57.3452 130.357 57.5102 127.587L59.3618 127.697C59.2151 130.412 59.1235 132.834 59.1235 135.072ZM59.8751 120.303L58.0235 120.156L58.1702 118.34C58.3168 116.487 58.4635 114.615 58.6101 112.744L60.4618 112.872C60.3334 114.744 60.1868 116.615 60.0218 118.486L59.8751 120.303ZM60.8467 105.423L58.9951 105.368L59.0318 103.754C59.0318 103.148 59.0318 102.524 59.0318 101.919C59.0318 100.616 59.0135 99.3135 58.9585 98.0109L60.8101 97.9375C60.8651 99.2585 60.8834 100.579 60.8834 101.9C60.8834 102.524 60.8834 103.148 60.8834 103.772L60.8467 105.405V105.423ZM58.4451 90.6536C58.1885 88.2134 57.8402 85.7733 57.4368 83.3515L59.2701 83.0395C59.6918 85.4981 60.0401 87.9933 60.2968 90.4518L58.4451 90.6536ZM55.9335 76.141C55.3652 73.7559 54.7052 71.3524 53.9719 69.0223L55.7502 68.4718C56.4835 70.8386 57.1435 73.2788 57.7302 75.7006L55.9152 76.141H55.9335ZM51.5887 62.0503C50.7087 59.7569 49.7554 57.4635 48.7654 55.2435L50.452 54.4729C51.4787 56.7296 52.432 59.0597 53.3303 61.3898L51.5887 62.0503ZM45.5205 48.6201C44.3655 46.4552 43.1555 44.2902 41.8722 42.1986L43.4489 41.2262C44.7505 43.3545 45.9971 45.5378 47.1521 47.7395L45.5205 48.6018V48.6201ZM37.839 36.034C36.4274 34.0158 34.9608 32.0343 33.4391 30.1261L34.8874 28.9703C36.4274 30.9151 37.9307 32.9333 39.3606 34.9698L37.839 36.034ZM28.6726 24.4936C27.041 22.6772 25.3177 20.8975 23.5577 19.1912L24.8594 17.8702C26.656 19.6132 28.3976 21.4296 30.0476 23.2643L28.6726 24.5119V24.4936ZM18.1312 14.2191C16.2612 12.6229 14.318 11.0634 12.3747 9.61396L13.493 8.12784C15.4729 9.61396 17.4345 11.1918 19.3412 12.8064L18.1312 14.2191ZM6.32484 5.41243C4.27156 4.07308 2.14494 2.80712 0 1.6329L0.89831 0C3.07992 1.19257 5.22486 2.49523 7.33314 3.85293L6.32484 5.41243Z" fill="#A6A6AD"/>
</svg>
