<svg xmlns="http://www.w3.org/2000/svg" width="315" height="472" viewBox="0 0 315 472" fill="none">
<path d="M309.342 469.431C308.7 469.137 308.095 468.826 307.471 468.495L308.352 466.864C310.478 468 312.734 468.954 315.026 469.651L314.476 471.429C312.734 470.898 310.992 470.219 309.323 469.431H309.342ZM301.164 464.278C299.239 462.72 297.387 460.978 295.682 459.053L297.075 457.824C298.725 459.658 300.485 461.345 302.337 462.83L301.164 464.278ZM291.098 453.057C289.723 450.967 288.476 448.766 287.394 446.493L289.081 445.686C290.126 447.886 291.336 450.031 292.656 452.03L291.116 453.057H291.098ZM284.57 439.488C283.782 437.105 283.122 434.648 282.645 432.191L284.46 431.824C284.937 434.189 285.56 436.573 286.33 438.883L284.57 439.47V439.488ZM281.636 424.728C281.453 422.29 281.38 419.759 281.435 417.211L283.287 417.247C283.232 419.741 283.287 422.198 283.488 424.581L281.636 424.728ZM281.911 409.73C282.168 407.328 282.535 404.834 282.993 402.322L284.827 402.652C284.387 405.109 284.02 407.566 283.782 409.931L281.93 409.73H281.911ZM284.533 394.988C285.102 392.641 285.762 390.202 286.495 387.763L288.274 388.295C287.559 390.697 286.899 393.099 286.349 395.428L284.552 394.988H284.533ZM288.769 380.667C289.557 378.302 290.401 375.974 291.263 373.645L293.005 374.287C292.161 376.597 291.318 378.926 290.529 381.254L288.769 380.649V380.667ZM293.921 366.696L296.635 359.783L298.359 360.462L295.645 367.374L293.921 366.696ZM299.33 352.871C300.21 350.56 301.091 348.25 301.934 345.921L303.676 346.545C302.832 348.873 301.952 351.202 301.072 353.512L299.349 352.852L299.33 352.871ZM304.336 338.935C305.161 336.442 305.858 334.131 306.5 331.876L308.278 332.371C307.636 334.663 306.921 336.992 306.096 339.522L304.336 338.954V338.935ZM308.296 324.707C308.608 323.35 308.883 321.975 309.14 320.6C309.342 319.555 309.507 318.509 309.672 317.464L311.505 317.739C311.34 318.803 311.157 319.866 310.974 320.93C310.717 322.323 310.423 323.717 310.13 325.092L308.315 324.689L308.296 324.707ZM310.533 310.167C310.735 307.765 310.864 305.289 310.9 302.814L312.752 302.851C312.715 305.381 312.587 307.893 312.385 310.332L310.533 310.167ZM310.772 295.443C310.643 293.023 310.442 290.548 310.167 288.109L312.019 287.889C312.312 290.382 312.514 292.895 312.642 295.351L310.79 295.443H310.772ZM309.067 280.811C308.627 278.409 308.095 275.989 307.508 273.605L309.305 273.147C309.91 275.567 310.442 278.024 310.9 280.463L309.067 280.793V280.811ZM110.803 181.358L111.591 179.672C113.755 180.68 116.047 181.615 118.375 182.44L117.77 184.2C115.387 183.357 113.04 182.404 110.821 181.377L110.803 181.358ZM104.165 177.801C103.468 177.38 102.753 176.94 102.075 176.481C100.7 175.564 99.3062 174.574 97.9677 173.547L99.1045 172.081C100.406 173.089 101.763 174.061 103.102 174.941C103.78 175.381 104.458 175.821 105.137 176.224L104.165 177.801ZM124.939 186.346L125.398 184.549C127.69 185.136 130.11 185.649 132.604 186.071L132.292 187.904C129.762 187.464 127.286 186.932 124.958 186.346H124.939ZM92.2653 168.615C90.5051 166.91 88.7814 165.076 87.1312 163.133L88.5431 161.941C90.1567 163.829 91.8435 165.645 93.5487 167.295L92.2653 168.633V168.615ZM139.681 188.949L139.883 187.098C142.212 187.354 144.687 187.574 147.236 187.739L147.126 189.591C144.54 189.426 142.047 189.206 139.681 188.949ZM305.473 266.528C304.721 264.181 303.878 261.852 302.979 259.597L304.703 258.918C305.62 261.21 306.463 263.576 307.233 265.978L305.473 266.546V266.528ZM82.5291 157.192C81.1356 155.23 79.7603 153.103 78.4401 150.903L80.0353 149.949C81.3372 152.113 82.6757 154.185 84.0508 156.11L82.5291 157.192ZM154.588 189.921L154.643 188.069C157.1 188.143 159.576 188.161 162.051 188.179V190.031C159.557 190.031 157.064 189.995 154.588 189.921ZM300.045 252.831C298.982 250.612 297.845 248.412 296.653 246.285L298.267 245.368C299.477 247.514 300.632 249.751 301.714 252.024L300.027 252.831H300.045ZM169.477 189.995V188.143L176.885 188.051V189.903L169.477 189.995ZM74.828 144.339C73.7279 142.175 72.6461 139.883 71.6377 137.573L73.3429 136.821C74.3513 139.113 75.3964 141.35 76.4782 143.495L74.828 144.339ZM184.329 189.83V187.978C186.804 187.978 189.279 187.978 191.755 187.978V189.83C189.261 189.811 186.786 189.811 184.329 189.83ZM292.821 239.996C292.345 239.281 291.868 238.566 291.373 237.851C290.456 236.531 289.521 235.247 288.567 233.982L290.053 232.863C291.043 234.147 291.996 235.467 292.913 236.806C293.408 237.521 293.903 238.254 294.38 238.988L292.821 240.014V239.996ZM68.8506 130.642C67.9888 128.368 67.1637 126.003 66.3753 123.583L68.1355 123.014C68.9056 125.398 69.7307 127.745 70.5742 129.982L68.8322 130.642H68.8506ZM199.162 190.013L199.236 188.161C201.729 188.253 204.223 188.381 206.68 188.583L206.533 190.435C204.076 190.251 201.619 190.123 199.144 190.031L199.162 190.013ZM283.928 228.279C282.315 226.446 280.628 224.631 278.886 222.907L280.188 221.587C281.948 223.347 283.672 225.181 285.304 227.051L283.91 228.279H283.928ZM213.904 191.15L214.124 189.316C216.306 189.591 218.452 189.921 220.542 190.288L221.532 190.471L221.184 192.305L220.212 192.121C218.177 191.755 216.05 191.443 213.904 191.168V191.15ZM273.514 217.883C271.662 216.27 269.755 214.711 267.811 213.226L268.948 211.741C270.928 213.244 272.872 214.839 274.742 216.471L273.514 217.865V217.883ZM64.23 116.432C63.5515 114.048 62.9098 111.646 62.2864 109.244L64.0834 108.786C64.7068 111.169 65.3302 113.553 66.0086 115.937L64.2116 116.45L64.23 116.432ZM228.371 193.9L228.848 192.103C231.25 192.727 233.67 193.46 236.036 194.248L235.449 196.009C233.138 195.239 230.755 194.523 228.39 193.9H228.371ZM261.815 208.954C259.799 207.615 257.69 206.295 255.545 205.066L256.48 203.453C258.643 204.7 260.789 206.02 262.842 207.395L261.815 208.935V208.954ZM242.343 198.594L243.04 196.87C245.35 197.824 247.624 198.851 249.861 199.951L249.036 201.619C246.835 200.538 244.598 199.529 242.325 198.594H242.343ZM60.5262 102.038C59.9578 99.6362 59.3893 97.2159 58.8393 94.7956L60.6545 94.3738C61.2045 96.7942 61.773 99.1961 62.3414 101.598L60.5262 102.02V102.038ZM57.1524 87.553C56.6023 85.1327 56.0339 82.7307 55.4472 80.3287L57.2441 79.8886C57.8308 82.2906 58.3992 84.7109 58.9493 87.1312L57.1341 87.553H57.1524ZM53.632 73.1411C53.0086 70.7575 52.3485 68.3738 51.6517 66.0085L53.4302 65.4768C54.127 67.8604 54.7871 70.2624 55.4288 72.6644L53.632 73.1411ZM49.4514 58.9493C48.6446 56.5656 47.8195 54.2187 46.9578 52L48.6997 51.34C49.5615 53.5953 50.4232 55.9606 51.23 58.3625L49.4697 58.9493H49.4514ZM44.1157 45.1975C43.089 42.9605 41.9887 40.7419 40.8336 38.5967L42.4655 37.7165C43.639 39.8985 44.7575 42.1538 45.8026 44.4274L44.1157 45.1975ZM37.1115 32.2525C35.773 30.1439 34.3611 28.1086 32.9309 26.2017L34.4161 25.0832C35.8829 27.0268 37.3132 29.1171 38.6883 31.2624L37.1115 32.2525ZM28.2737 20.5177C26.6051 18.6657 24.8816 16.9055 23.1213 15.292L24.3682 13.9168C26.1651 15.567 27.9436 17.3639 29.6489 19.2708L28.2737 20.5177ZM17.4739 10.6164C15.4753 9.14952 13.4218 7.81101 11.3315 6.63752L12.2483 5.02398C14.3936 6.23414 16.5205 7.60932 18.5741 9.13118L17.4739 10.6347V10.6164ZM0 1.77856L0.531751 0C2.18196 0.495064 3.85052 1.08181 5.46406 1.74189L4.76729 3.46545C3.20876 2.84203 1.59521 2.27363 0 1.7969V1.77856Z" fill="#A6A6AD"/>
</svg>
