<svg xmlns="http://www.w3.org/2000/svg" width="82" height="62" viewBox="0 0 82 62" fill="none">
  <path d="M57.9249 38.5431L42.5889 42.7321L43.9023 47.5407L59.2383 43.3517L57.9249 38.5431Z" fill="#BCBACE"/>
  <path d="M31.2778 43.4832L33.0144 49.8409L38.25 48.4108L39.5177 44.7944L77.7548 34.35L76.8494 31.0355L31.2778 43.4832Z" fill="#BCBACE"/>
  <path d="M25.4522 23.4445C25.3823 23.2348 25.1574 23.1202 24.9467 23.1866C22.9015 23.837 13.198 26.9715 11.4427 28.4945C10.0989 29.6599 9.16377 32.9013 8.48023 35.0984C7.99004 36.6731 6.9112 40.1663 6.94438 41.7929C6.97247 43.1708 7.50763 45.8987 7.8929 47.2217L10.3525 54.0997L19.2583 51.6671L19.5161 49.1036C19.684 47.4308 20.8654 46.0344 22.487 45.5915L31.3355 43.1745L28.1506 31.5146L25.4522 23.4445Z" fill="#EEEFF2"/>
  <path d="M21.2602 26.0907C19.0189 26.8425 14.1739 28.5242 12.7444 29.4955C10.8823 30.761 10.0614 36.8278 10.0177 37.0962L9.54908 41.4976C9.54232 41.6202 9.6582 41.713 9.77637 41.6807L13.7929 40.5836C13.945 40.5421 14.0886 40.4739 14.2154 40.3814L23.7052 33.5599C24.134 33.2517 24.3264 32.7088 24.1871 32.1987L22.734 26.8788C22.5598 26.2412 21.8856 25.8809 21.259 26.0911L21.2602 26.0907Z" fill="#BCBACE"/>
  <path d="M9.95304 41.2126C9.95304 41.2126 10.5312 37.4652 10.7326 36.2371C11.0372 34.3787 11.8781 30.5117 12.9729 29.8292C13.9793 29.201 17.0216 27.9388 21.3903 26.4739C21.4043 26.4701 21.4181 26.4651 21.4321 26.4612C21.8275 26.3532 22.2375 26.5883 22.3458 26.9849L23.8322 32.4264C23.9066 32.699 23.8024 32.994 23.5721 33.1588L16.0302 36.2536C15.4186 36.5048 14.9486 37.0117 14.7445 37.6407L13.9551 40.0716C13.8835 40.1226 13.8046 40.1605 13.7192 40.1839L9.95304 41.2126Z" fill="#BCBACE"/>
  <path d="M15.7634 36.3918L13.9137 40.0729L12.702 29.8604L13.0349 29.6337L14.2982 37.0988C14.3256 37.2635 14.5185 37.3391 14.6508 37.2388L15.7649 36.3926L15.7634 36.3918Z" fill="#BCBACE"/>
  <path d="M7.90575 47.9511C7.86155 47.8261 7.8764 47.7102 7.93915 47.6867L9.32604 47.1671C9.44251 47.124 9.60905 47.3148 9.695 47.5742L10.0575 48.6483C10.116 48.8209 10.1036 48.9827 10.029 49.0181L8.64666 49.6648C8.58434 49.6944 8.49581 49.6142 8.45129 49.4881L7.90575 47.9511Z" fill="#EEEFF2"/>
  <path d="M19.5491 50.2512L9.29785 53.0513L10.4205 57.1614L20.6718 54.3613L19.5491 50.2512Z" fill="#BCBACE"/>
  <path d="M28.6887 56.7848C31.7517 55.8204 33.4528 52.5556 32.4884 49.4927C31.524 46.4298 28.2592 44.7286 25.1963 45.693C22.1334 46.6575 20.4322 49.9223 21.3966 52.9852C22.361 56.0481 25.6258 57.7493 28.6887 56.7848Z" fill="#BCBACE"/>
  <path d="M21.3106 52.6731C21.3106 52.6731 21.3132 52.6824 21.3145 52.6871C22.1159 55.7962 25.2861 57.6673 28.3952 56.8658C31.5043 56.0644 33.3754 52.8942 32.5739 49.7851C32.5727 49.7804 32.5714 49.7758 32.5701 49.7711L21.3118 52.6728L21.3106 52.6731Z" fill="#BCBACE"/>
  <path d="M22.9907 52.2557C23.5529 54.4381 25.779 55.7524 27.9614 55.1903C30.1438 54.6281 31.4582 52.402 30.8957 50.2184C30.3335 48.036 28.1074 46.7217 25.9238 47.2842C23.7414 47.8464 22.4271 50.0724 22.9904 52.2545L22.9907 52.2557Z" fill="#EEEFF2"/>
  <path d="M25.9251 47.2838C23.7426 47.846 22.4283 50.072 22.9917 52.2542L30.8966 50.2169C30.3344 48.0345 28.1084 46.7201 25.9248 47.2826L25.9251 47.2838Z" fill="#EEEFF2"/>
  <path d="M24.5355 51.8576C24.8785 53.1871 26.2337 53.9875 27.5632 53.6444C28.8928 53.3014 29.6931 51.9462 29.3501 50.6167C29.007 49.2872 27.6519 48.4868 26.3223 48.8299C24.9928 49.1729 24.1925 50.5281 24.5355 51.8576Z" fill="#BCBACE"/>
  <path d="M21.148 54.2677L20.1958 54.4548C19.5247 51.0361 19.335 48.933 19.6151 48.0254C20.1546 46.2813 21.0209 45.7568 22.0148 45.2942C22.9385 44.8646 23.9271 44.6361 24.883 44.4165L25.1172 44.3625C27.0895 43.9055 31.1588 42.7211 31.1998 42.7099L31.4707 43.6417C31.4297 43.6529 27.3338 44.8459 25.3354 45.3087L25.1 45.363C24.1928 45.5718 23.2548 45.7878 22.4237 46.1745C21.5371 46.5877 20.9677 46.9381 20.5411 48.3131C20.4121 48.7293 20.3197 50.057 21.1456 54.2683L21.148 54.2677Z" fill="#BCBACE"/>
  <path d="M69.6043 -8.32602e-06L23.5098 12.5906L31.8928 43.2813L77.9874 30.6907L69.6043 -8.32602e-06Z" fill="#EEEFF2"/>
  <path d="M77.2689 30.2344C77.2148 30.0366 74.1309 18.7829 69.2166 0.851385L69.2478 0.869242C56.8991 4.24352 41.2174 8.52944 24.2044 13.179L24.2008 13.18L24.223 13.1413C27.0764 23.5879 29.7913 33.5319 32.2483 42.5316L32.2126 42.5112C58.7204 35.2882 77.0173 30.3031 77.2689 30.2344C77.0185 30.3028 58.7268 35.3116 32.2279 42.5673L32.1998 42.575L32.1922 42.5469C29.734 33.5475 27.0168 23.6042 24.1621 13.1579L24.1538 13.1275L24.1877 13.1182C41.2021 8.47328 56.8851 4.19204 69.2344 0.820103L69.259 0.813394L69.2657 0.837963C74.1496 18.7778 77.2152 30.0378 77.2689 30.2344Z" fill="#BCBACE"/>
  <path d="M10.1515 36.0852C10.1515 36.0852 10.1252 36.0534 10.0871 35.9922C10.0502 35.9306 9.9976 35.8394 9.93511 35.7257C9.81365 35.4973 9.64897 35.1752 9.54585 34.7885C9.44273 34.4017 9.4479 34.0294 9.50918 33.7751C9.53849 33.6476 9.57515 33.5471 9.60757 33.4817C9.63849 33.4154 9.66071 33.3817 9.66486 33.383C9.67614 33.3875 9.5995 33.5304 9.55407 33.7829C9.50566 34.0338 9.50846 34.3938 9.60903 34.7712C9.70991 35.1498 9.86576 35.4718 9.97701 35.7042C10.0906 35.9359 10.1614 36.08 10.1527 36.0849L10.1515 36.0852Z" fill="#EEEFF2"/>
  <path d="M7.65619 45.6795C7.65619 45.6795 7.63756 45.6343 7.61455 45.55C7.59154 45.4658 7.56064 45.3435 7.52442 45.1924C7.45164 44.8892 7.36074 44.469 7.27089 44.0019C7.18221 43.5346 7.11269 43.1097 7.06863 42.8012C7.04677 42.6475 7.03023 42.5225 7.02158 42.4356C7.01176 42.349 7.00866 42.3008 7.01334 42.2995C7.01802 42.2982 7.02846 42.3457 7.04562 42.4315C7.06395 42.5309 7.08687 42.6516 7.1132 42.794C7.17194 43.1149 7.2489 43.5302 7.33301 43.99C7.42296 44.4482 7.50493 44.8633 7.56717 45.1833C7.59467 45.3254 7.61876 45.4458 7.6371 45.5451C7.65309 45.6313 7.6597 45.6785 7.65502 45.6798L7.65619 45.6795Z" fill="#EEEFF2"/>
  <path d="M21.0962 44.45C21.102 44.4623 20.8837 44.5558 20.5637 44.7652C20.4032 44.8681 20.222 45.0056 20.032 45.1707C19.8452 45.3386 19.6518 45.5373 19.4699 45.7643C19.291 45.9929 19.141 46.2262 19.0201 46.4466C18.9022 46.6686 18.8094 46.8763 18.7453 47.056C18.6156 47.4145 18.5728 47.6488 18.5595 47.6461C18.5553 47.6447 18.5647 47.5869 18.5847 47.4808C18.5942 47.4279 18.6078 47.3626 18.6294 47.2901C18.6496 47.2167 18.6704 47.1318 18.7035 47.041C18.7628 46.8576 18.852 46.6459 18.9686 46.4192C19.0894 46.1938 19.2384 45.957 19.4202 45.725C19.6038 45.4951 19.8019 45.2951 19.9937 45.1271C20.1875 44.9622 20.3744 44.827 20.5396 44.7278C20.6194 44.6745 20.698 44.6355 20.7649 44.5996C20.8314 44.5626 20.8917 44.5348 20.9413 44.5137C21.0401 44.4704 21.0943 44.448 21.0968 44.4524L21.0962 44.45Z" fill="#EEEFF2"/>
  <path d="M30.6888 34.2385C30.6888 34.2385 30.6817 34.2216 30.6716 34.1892C30.6617 34.1529 30.6459 34.1044 30.6278 34.0427C30.589 33.91 30.5349 33.7211 30.4658 33.4772C30.3233 32.983 30.1181 32.2734 29.8664 31.3979C29.3529 29.6423 28.6449 27.2205 27.8629 24.5462C27.079 21.8699 26.3731 19.4464 25.8766 17.6885C25.6277 16.8098 25.4305 16.0967 25.2959 15.6042C25.2303 15.3593 25.1809 15.1692 25.1444 15.0358C25.1272 14.9726 25.1164 14.924 25.1065 14.8877C25.0976 14.855 25.0951 14.8368 25.0963 14.8365C25.0974 14.8361 25.1034 14.8534 25.1135 14.8858C25.1234 14.9221 25.1392 14.9706 25.1573 15.0323C25.1961 15.165 25.2502 15.3539 25.3193 15.5978C25.4618 16.0919 25.667 16.8016 25.9187 17.677C26.4322 19.4327 27.1402 21.8544 27.9225 24.5299C28.7061 27.2051 29.4121 29.6286 29.9085 31.3864C30.1574 32.2652 30.3547 32.9782 30.4892 33.4708C30.5548 33.7156 30.6046 33.907 30.6407 34.0392C30.6579 34.1024 30.6687 34.151 30.6786 34.1873C30.6876 34.22 30.69 34.2382 30.6888 34.2385Z" fill="#EEEFF2"/>
  <path d="M70.1287 45.4597C73.1901 44.4905 74.8861 41.223 73.9169 38.1616C72.9477 35.1002 69.6802 33.4042 66.6188 34.3734C63.5574 35.3426 61.8614 38.6101 62.8306 41.6715C63.7998 44.7329 67.0673 46.4289 70.1287 45.4597Z" fill="#BCBACE"/>
  <path d="M62.7394 41.3569C62.7394 41.3569 62.7419 41.3663 62.7432 41.3709C63.5446 44.48 66.7149 46.3511 69.8239 45.5497C72.933 44.7482 74.8041 41.578 74.0026 38.469C74.0014 38.4643 74.0001 38.4596 73.9988 38.4549L62.7405 41.3566L62.7394 41.3569Z" fill="#BCBACE"/>
  <path d="M64.4199 40.9394C64.9821 43.1219 67.2082 44.4362 69.3906 43.874C71.573 43.3118 72.8874 41.0858 72.3249 38.9022C71.7627 36.7197 69.5366 35.4054 67.353 35.9679C65.1706 36.5301 63.8563 38.7561 64.4196 40.9383L64.4199 40.9394Z" fill="#EEEFF2"/>
  <path d="M67.3538 35.9677C65.1713 36.5298 63.857 38.7559 64.4204 40.938L72.3253 38.9007C71.7631 36.7183 69.5371 35.404 67.3535 35.9665L67.3538 35.9677Z" fill="#EEEFF2"/>
  <path d="M65.9637 40.5415C66.3068 41.8711 67.6619 42.6714 68.9915 42.3284C70.321 41.9853 71.1213 40.6302 70.7783 39.3006C70.4353 37.9711 69.0801 37.1708 67.7506 37.5138C66.421 37.8568 65.6207 39.212 65.9637 40.5415Z" fill="#BCBACE"/>
  <path d="M61.4198 43.4713C61.4198 43.4713 58.3933 35.7511 66.6369 33.4994C74.2429 31.4218 75.9421 38.3102 76.1599 39.3885L74.9666 39.7145C74.9666 39.7145 73.7332 32.8057 66.9533 34.6577C60.1733 36.5096 62.6432 43.2276 62.6432 43.2276C62.6432 43.2276 62.1351 43.3375 61.4198 43.4713Z" fill="#BCBACE"/>
  <path d="M63.8871 35.1331C63.8871 35.1331 63.8678 35.1497 63.8292 35.174C63.7909 35.1996 63.731 35.2335 63.6576 35.2825C63.5091 35.3784 63.3001 35.5248 63.0588 35.7277C62.5773 36.1283 61.9808 36.7891 61.5785 37.6634C61.1749 38.538 61.0601 39.4206 61.069 40.0468C61.072 40.3615 61.0964 40.6164 61.1201 40.7909C61.1303 40.8787 61.1435 40.9455 61.1486 40.9919C61.1549 41.0379 61.1578 41.0623 61.1555 41.0629C61.1531 41.0636 61.1467 41.0402 61.1366 40.9939C61.1268 40.9488 61.1098 40.8818 61.0958 40.7938C61.0647 40.62 61.0326 40.3647 61.0249 40.0463C61.0059 39.4153 61.1136 38.5208 61.522 37.6361C61.9291 36.7517 62.5385 36.0873 63.0316 35.6924C63.2776 35.4932 63.4926 35.3502 63.6457 35.2619C63.7209 35.2149 63.7832 35.1853 63.8236 35.163C63.8655 35.1415 63.8865 35.1307 63.8883 35.1327L63.8871 35.1331Z" fill="#EEEFF2"/>
</svg>
