<svg xmlns="http://www.w3.org/2000/svg" width="40" height="40" viewBox="0 0 40 40" fill="none">
  <path d="M33.9103 12.378C35.1926 14.7137 35.864 17.3355 35.8621 20C35.8621 20.249 35.8428 20.4993 35.8317 20.7497C36.0699 20.7115 36.3106 20.6914 36.5517 20.6897C36.7759 20.6897 36.9952 20.7104 37.211 20.74C37.2214 20.4931 37.2414 20.2462 37.2414 20C37.2414 16.8566 36.3834 13.8007 34.7724 11.1235C34.5719 11.4803 34.3449 11.8215 34.0931 12.1442L33.9103 12.378ZM13.3586 5.59659C15.3751 4.66127 17.5676 4.16615 19.7903 4.14418C19.96 3.66556 20.1703 3.20694 20.4214 2.77245C17.7243 2.71323 15.0503 3.28052 12.6097 4.42969C12.9142 4.78054 13.1665 5.17357 13.3586 5.59659ZM6.27793 12.049L5.38897 10.8635C3.79675 13.4028 2.89857 16.3154 2.78414 19.3104H4.16345C4.26845 16.7542 4.99417 14.262 6.27793 12.049ZM30.8448 31.569L31.2214 33.0752C32.2468 32.1955 33.1655 31.1986 33.9586 30.1049L33.0883 28.9449C32.4376 29.8982 31.6854 30.778 30.8448 31.569ZM19.3103 20.6897H13.7931V25.9435L10.3448 24.2193L6.89655 25.9435V20.6897H1.37931V34.4828H3.23103C4.00759 32.8545 5.66552 31.7242 7.58621 31.7242C9.5069 31.7242 11.1648 32.8545 11.9414 34.4828H19.3103V20.6897ZM12.3586 35.8621C12.391 36.0883 12.4138 36.3173 12.4138 36.5518C12.4138 36.7862 12.391 37.0152 12.3586 37.2414H19.3655C19.3331 37.0152 19.3103 36.7862 19.3103 36.5518C19.3103 36.3173 19.3331 36.0883 19.3655 35.8621H12.3586ZM29.1166 30.3449H24.8276C24.0669 30.3449 23.4483 29.7262 23.4483 28.9656V27.5862C23.4483 26.8256 24.0669 26.2069 24.8276 26.2069H28.0821L27.8676 25.3497C27.8304 25.2004 27.7444 25.0679 27.6231 24.9733C27.5019 24.8787 27.3524 24.8274 27.1986 24.8276H20.6897V33.18C21.1379 32.7192 21.6741 32.3529 22.2663 32.1029C22.8586 31.8528 23.495 31.724 24.1379 31.7242C26.0586 31.7242 27.7166 32.8545 28.4931 34.4828H30.151L29.1166 30.3449ZM0 35.8621V37.2414H2.81379C2.78138 37.0152 2.75862 36.7862 2.75862 36.5518C2.75862 36.3173 2.78138 36.0883 2.81379 35.8621H0Z" fill="#199C68"/>
  <path d="M7.58622 33.1034C5.68484 33.1034 4.13794 34.6503 4.13794 36.5517C4.13794 38.4531 5.68484 40 7.58622 40C9.48759 40 11.0345 38.4531 11.0345 36.5517C11.0345 34.6503 9.48759 33.1034 7.58622 33.1034ZM7.58622 37.931C7.40253 37.9352 7.21987 37.9026 7.04896 37.8352C6.87804 37.7678 6.72232 37.6669 6.59092 37.5385C6.45953 37.4101 6.35512 37.2567 6.28382 37.0873C6.21252 36.918 6.17577 36.7362 6.17572 36.5524C6.17568 36.3687 6.21234 36.1868 6.28355 36.0174C6.35477 35.8481 6.4591 35.6946 6.59043 35.5662C6.72176 35.4377 6.87743 35.3367 7.04832 35.2692C7.2192 35.2017 7.40184 35.169 7.58553 35.1731C7.94591 35.1811 8.28886 35.3298 8.54095 35.5875C8.79305 35.8451 8.93425 36.1913 8.93434 36.5517C8.93443 36.9122 8.7934 37.2584 8.54144 37.5162C8.28947 37.774 7.9466 37.9229 7.58622 37.931ZM8.27587 23.7117L10.3448 22.6772L12.4138 23.7117V20.6897H8.27587V23.7117ZM24.1379 33.1034C22.2366 33.1034 20.6897 34.6503 20.6897 36.5517C20.6897 38.4531 22.2366 40 24.1379 40C26.0393 40 27.5862 38.4531 27.5862 36.5517C27.5862 34.6503 26.0393 33.1034 24.1379 33.1034ZM24.1379 37.931C23.9543 37.9352 23.7716 37.9026 23.6007 37.8352C23.4298 37.7678 23.274 37.6669 23.1426 37.5385C23.0113 37.4101 22.9068 37.2567 22.8355 37.0873C22.7642 36.918 22.7275 36.7362 22.7274 36.5524C22.7274 36.3687 22.7641 36.1868 22.8353 36.0174C22.9065 35.8481 23.0108 35.6946 23.1422 35.5662C23.2735 35.4377 23.4292 35.3367 23.6 35.2692C23.7709 35.2017 23.9536 35.169 24.1373 35.1731C24.4976 35.1811 24.8406 35.3298 25.0927 35.5875C25.3448 35.8451 25.486 36.1913 25.4861 36.5517C25.4862 36.9122 25.3451 37.2584 25.0932 37.5162C24.8412 37.774 24.4983 37.9229 24.1379 37.931ZM24.8276 28.9655H28.7717L28.4269 27.5862H24.8276V28.9655ZM28.9655 36.5517C28.9655 36.7862 28.9428 37.0152 28.9104 37.2414H30.3448V35.8621H28.9104C28.9428 36.0883 28.9655 36.3172 28.9655 36.5517ZM8.96553 13.3331L11.7241 9.65448C12.169 9.06276 12.4138 8.32759 12.4138 7.58621C12.4138 5.68483 10.8669 4.13793 8.96553 4.13793C7.06415 4.13793 5.51725 5.68483 5.51725 7.58621C5.51725 8.32759 5.76208 9.06276 6.2069 9.65448L8.96553 13.3331ZM8.96553 6.2069C9.14921 6.20274 9.33187 6.23533 9.50278 6.30274C9.6737 6.37015 9.82943 6.47103 9.96082 6.59945C10.0922 6.72787 10.1966 6.88125 10.2679 7.05058C10.3392 7.21991 10.376 7.40178 10.376 7.58551C10.3761 7.76924 10.3394 7.95113 10.2682 8.12049C10.197 8.28986 10.0926 8.44329 9.96131 8.57178C9.82998 8.70026 9.67431 8.80122 9.50343 8.86872C9.33254 8.93621 9.1499 8.96889 8.96622 8.96483C8.60583 8.95686 8.26288 8.80812 8.01079 8.55046C7.75869 8.29279 7.61749 7.94667 7.6174 7.5862C7.61731 7.22572 7.75834 6.87954 8.01031 6.62175C8.26227 6.36396 8.60514 6.21505 8.96553 6.2069ZM36.5517 22.069C34.6504 22.069 33.1035 23.6159 33.1035 25.5172C33.1035 26.2586 33.3483 26.9938 33.7931 27.5855L36.5517 31.2641L39.3104 27.5855C39.7552 26.9938 40 26.2586 40 25.5172C40 23.6159 38.4531 22.069 36.5517 22.069ZM36.5517 26.8966C36.368 26.9007 36.1854 26.8681 36.0145 26.8007C35.8436 26.7333 35.6878 26.6324 35.5564 26.504C35.425 26.3756 35.3206 26.2222 35.2493 26.0529C35.178 25.8835 35.1413 25.7017 35.1412 25.5179C35.1412 25.3342 35.1779 25.1523 35.2491 24.983C35.3203 24.8136 35.4246 24.6602 35.5559 24.5317C35.6873 24.4032 35.843 24.3022 36.0138 24.2347C36.1847 24.1672 36.3674 24.1346 36.551 24.1386C36.9114 24.1466 37.2544 24.2953 37.5065 24.553C37.7586 24.8107 37.8998 25.1568 37.8999 25.5173C37.9 25.8777 37.7589 26.2239 37.507 26.4817C37.255 26.7395 36.9121 26.8884 36.5517 26.8966ZM27.5862 18.1945L33.009 11.2917C33.9618 10.0757 34.4806 8.57591 34.4828 7.03103V6.89655C34.4828 3.09379 31.389 0 27.5862 0C23.7835 0 20.6897 3.09379 20.6897 6.89655V7.03103C20.6897 8.56897 21.2131 10.0828 22.1635 11.2917L27.5862 18.1945ZM27.5862 2.06897C28.2202 2.06897 28.8479 2.19383 29.4337 2.43644C30.0194 2.67905 30.5516 3.03465 30.9998 3.48293C31.4481 3.93122 31.8037 4.46341 32.0463 5.04911C32.2889 5.63482 32.4138 6.26258 32.4138 6.89655C32.4138 7.53052 32.2889 8.15828 32.0463 8.74399C31.8037 9.3297 31.4481 9.86189 30.9998 10.3102C30.5516 10.7585 30.0194 11.1141 29.4337 11.3567C28.8479 11.5993 28.2202 11.7241 27.5862 11.7241C26.3059 11.7241 25.0779 11.2155 24.1726 10.3102C23.2672 9.40482 22.7586 8.17691 22.7586 6.89655C22.7586 5.6162 23.2672 4.38828 24.1726 3.48293C25.0779 2.57758 26.3059 2.06897 27.5862 2.06897ZM15.1724 16.5517H16.5517V17.931H15.1724V16.5517ZM17.931 16.5517H19.3104V17.931H17.931V16.5517ZM20.6897 16.5517H22.069V17.931H20.6897V16.5517Z" fill="#199C68"/>
</svg>
