<svg xmlns="http://www.w3.org/2000/svg" width="16" height="12" viewBox="0 0 16 12">
  <path fill-rule="evenodd" clip-rule="evenodd" d="M3.34375 11.5312C2.375 11.5312 1.59375 10.75 1.59375 9.8125C1.59375 8.84375 2.375 8.0625 3.34375 8.0625C4.28125 8.0625 5.0625 8.84375 5.0625 9.8125C5.0625 10.75 4.28125 11.5312 3.34375 11.5312ZM3.34375 10.6875C2.84375 10.6875 2.46875 10.2812 2.46875 9.8125C2.46875 9.3125 2.84375 8.9375 3.34375 8.9375C3.8125 8.9375 4.21875 9.3125 4.21875 9.8125C4.21875 10.2812 3.8125 10.6875 3.34375 10.6875Z"/>
  <path fill-rule="evenodd" clip-rule="evenodd" d="M9.5625 10H5.375V9.8125C5.375 8.6875 4.46875 7.75 3.34375 7.75C2.21875 7.75 1.28125 8.6875 1.28125 9.8125C1.28125 9.875 1.3125 9.9375 1.3125 10H0.625C0.28125 10 0 9.71875 0 9.375V3.25C0 2.90625 0.28125 2.65625 0.625 2.65625H1.15625C1.125 2.6875 1.125 2.75 1.125 2.8125V4.09375C1.125 4.375 1.34375 4.59375 1.625 4.59375H2.15625L1.78125 4.96875C1.59375 5.15625 1.59375 5.46875 1.78125 5.65625L2.65625 6.5625C2.75 6.65625 2.875 6.71875 3.03125 6.71875C3.15625 6.71875 3.28125 6.65625 3.375 6.5625L3.75 6.1875V6.71875C3.75 7 3.96875 7.21875 4.25 7.21875H5.5C5.78125 7.21875 6 7 6 6.71875V6.1875L6.375 6.5625C6.46875 6.65625 6.59375 6.71875 6.71875 6.71875C6.875 6.71875 7 6.65625 7.09375 6.5625L7.96875 5.65625C8.0625 5.5625 8.125 5.4375 8.125 5.3125C8.125 5.1875 8.0625 5.0625 7.96875 4.96875L7.59375 4.59375H8.125C8.40625 4.59375 8.625 4.375 8.625 4.09375V2.8125C8.625 2.75 8.625 2.6875 8.59375 2.65625H9.125C9.46875 2.65625 9.75 2.90625 9.75 3.25V9.8125C9.75 9.90625 9.65625 10 9.5625 10ZM15.7812 10H14.7812V9.8125C14.7812 8.6875 13.875 7.75 12.75 7.75C11.625 7.75 10.7188 8.6875 10.7188 9.8125V10H10.0625V4.3125H10.6875V7C10.6875 7.09375 10.7812 7.1875 10.875 7.1875H15.375C15.375 7.21875 15.4062 7.21875 15.4062 7.25C15.4375 7.28125 15.4375 7.3125 15.4375 7.34375V8.90625H15.7812C15.9062 8.90625 16 9 16 9.125V9.78125C16 9.90625 15.9062 10 15.7812 10ZM11.0625 4.3125H13.1562C13.3125 4.3125 13.375 4.4375 13.625 4.9375C13.8125 5.375 14.125 6 14.4688 6.5C14.5312 6.625 14.6562 6.71875 14.7812 6.8125H11.0625V4.3125Z"/>
  <path fill-rule="evenodd" clip-rule="evenodd" d="M12.75 11.5312C11.7812 11.5312 11.0312 10.75 11.0312 9.8125C11.0312 8.84375 11.7812 8.0625 12.75 8.0625C13.6875 8.0625 14.4688 8.84375 14.4688 9.8125C14.4688 10.75 13.6875 11.5312 12.75 11.5312ZM12.75 10.6875C12.25 10.6875 11.875 10.2812 11.875 9.8125C11.875 9.3125 12.25 8.9375 12.75 8.9375C13.25 8.9375 13.625 9.3125 13.625 9.8125C13.625 10.2812 13.25 10.6875 12.75 10.6875Z"/>
  <path fill-rule="evenodd" clip-rule="evenodd" d="M14.4375 11.875H1.65625C1.46875 11.875 1.3125 11.7188 1.3125 11.5312C1.3125 11.3125 1.46875 11.1875 1.65625 11.1875H14.4375C14.625 11.1875 14.7812 11.3125 14.7812 11.5312C14.7812 11.7188 14.625 11.875 14.4375 11.875ZM5.5 6.90625H4.25C4.15625 6.90625 4.0625 6.8125 4.0625 6.71875V5.84375C3.96875 5.8125 3.875 5.78125 3.78125 5.71875L3.15625 6.34375C3.125 6.375 3.0625 6.40625 3.03125 6.40625C2.96875 6.40625 2.9375 6.375 2.875 6.34375L2 5.4375C1.90625 5.375 1.90625 5.25 2 5.1875L2.625 4.5625C2.5625 4.46875 2.53125 4.375 2.5 4.28125H1.625C1.53125 4.28125 1.4375 4.1875 1.4375 4.09375V2.8125C1.4375 2.71875 1.53125 2.65625 1.625 2.65625H2.5C2.53125 2.53125 2.5625 2.4375 2.625 2.34375L2 1.75C1.90625 1.65625 1.90625 1.53125 2 1.46875L2.875 0.5625C2.9375 0.53125 2.96875 0.53125 3.03125 0.53125C3.0625 0.53125 3.125 0.53125 3.15625 0.5625L3.78125 1.1875C3.875 1.15625 3.96875 1.09375 4.0625 1.0625V0.1875C4.0625 0.09375 4.15625 0 4.25 0H5.5C5.625 0 5.6875 0.09375 5.6875 0.1875V1.0625C5.78125 1.09375 5.90625 1.15625 6 1.1875L6.59375 0.5625C6.625 0.53125 6.6875 0.53125 6.71875 0.53125C6.78125 0.53125 6.84375 0.53125 6.875 0.5625L7.75 1.46875C7.84375 1.53125 7.84375 1.65625 7.75 1.75L7.15625 2.34375L7.25 2.625H8.125C8.25 2.625 8.3125 2.71875 8.3125 2.8125V4.09375C8.3125 4.1875 8.25 4.28125 8.125 4.28125H7.25L7.15625 4.5625L7.75 5.1875C7.78125 5.21875 7.8125 5.28125 7.8125 5.3125C7.8125 5.375 7.78125 5.40625 7.75 5.4375L6.875 6.34375C6.84375 6.375 6.78125 6.40625 6.71875 6.40625C6.6875 6.40625 6.625 6.375 6.59375 6.34375L6 5.71875C5.90625 5.78125 5.78125 5.8125 5.6875 5.84375V6.71875C5.6875 6.8125 5.625 6.90625 5.5 6.90625ZM4.875 5.03125C4.03125 5.03125 3.3125 4.3125 3.3125 3.46875C3.3125 2.59375 4.03125 1.90625 4.875 1.90625C5.75 1.90625 6.4375 2.59375 6.4375 3.46875C6.4375 4.3125 5.75 5.03125 4.875 5.03125Z"/>
</svg>
