<svg xmlns="http://www.w3.org/2000/svg" width="16" height="16" viewBox="0 0 16 16">
  <path fill-rule="evenodd" clip-rule="evenodd" d="M13.1557 0H9.54208V4.71952C9.54207 4.76827 9.52826 4.81602 9.50225 4.85725C9.47623 4.89847 9.43907 4.93148 9.39506 4.95246C9.35106 4.97344 9.30201 4.98152 9.2536 4.97578C9.20519 4.97004 9.1594 4.9507 9.12153 4.92L7.1108 3.45914L5.08881 4.9282C5.05035 4.95607 5.00493 4.97278 4.95758 4.97646C4.91022 4.98015 4.86276 4.97067 4.82046 4.94908C4.77815 4.92749 4.74263 4.89462 4.71783 4.85411C4.69302 4.8136 4.6799 4.76702 4.67991 4.71952L4.67952 0H1.06596C0.783513 0.000816944 0.512866 0.113377 0.313138 0.313093C0.11341 0.512808 0.000834039 0.783449 0 1.0659V13.1557C0.000817026 13.4381 0.113386 13.7088 0.313116 13.9085C0.512845 14.1082 0.783502 14.2208 1.06596 14.2216H12.9238L12.6676 13.986C12.5691 13.8951 12.4954 13.7806 12.4533 13.6534C12.4113 13.5262 12.4023 13.3903 12.4272 13.2586L11.7478 12.6336C10.9813 13.1505 10.0518 13.368 9.13561 13.2448C8.21941 13.1216 7.38032 12.6664 6.77762 11.9654C6.17491 11.2645 5.85054 10.3666 5.86609 9.4423C5.88163 8.51799 6.23599 7.63156 6.86192 6.95126C7.48785 6.27096 8.34177 5.84415 9.26159 5.75186C10.1814 5.65956 11.1031 5.90819 11.8517 6.45056C12.6003 6.99293 13.1238 7.79129 13.3227 8.69408C13.5215 9.59688 13.382 10.5413 12.9306 11.348L13.61 11.9731C13.7122 11.945 13.8189 11.9376 13.924 11.9514C14.029 11.9652 14.1302 11.9999 14.2216 12.0535V1.0659C14.2208 0.783449 14.1082 0.512808 13.9085 0.313093C13.7088 0.113377 13.4381 0.000816944 13.1557 0ZM2.22089 10.5682H3.97833C4.04677 10.5682 4.11241 10.5954 4.16081 10.6438C4.20921 10.6921 4.23639 10.7578 4.23639 10.8262C4.23639 10.8947 4.20921 10.9603 4.16081 11.0087C4.11241 11.0571 4.04677 11.0843 3.97833 11.0843H2.22089C2.15245 11.0843 2.08681 11.0571 2.03841 11.0087C1.99002 10.9603 1.96283 10.8947 1.96283 10.8262C1.96283 10.7578 1.99002 10.6921 2.03841 10.6438C2.08681 10.5954 2.15245 10.5682 2.22089 10.5682ZM6.01551 11.9327C6.01551 12.0011 5.98833 12.0668 5.93993 12.1152C5.89153 12.1635 5.82589 12.1907 5.75745 12.1907H2.22089C2.15245 12.1907 2.08681 12.1635 2.03841 12.1152C1.99002 12.0668 1.96283 12.0011 1.96283 11.9327C1.96283 11.8642 1.99002 11.7986 2.03841 11.7502C2.08681 11.7018 2.15245 11.6746 2.22089 11.6746H5.75745C5.79135 11.6746 5.82491 11.6813 5.85623 11.6943C5.88755 11.7072 5.916 11.7263 5.93996 11.7502C5.96393 11.7742 5.98293 11.8027 5.9959 11.834C6.00886 11.8653 6.01553 11.8989 6.01551 11.9328V11.9327ZM5.19565 0H9.02598V4.21352L7.26202 2.93195C7.21727 2.89952 7.16329 2.88233 7.10802 2.88291C7.05276 2.88349 6.99915 2.90182 6.95509 2.93518L5.19565 4.21349V0ZM15.9017 14.2332L14.0271 12.5084C13.9675 12.4538 13.8887 12.425 13.8079 12.4284C13.7271 12.4318 13.6509 12.467 13.596 12.5263L13.5444 12.5826L12.3104 11.4227C12.7994 10.7414 13.0097 9.89915 12.8983 9.06801C12.7869 8.23687 12.3623 7.47965 11.7113 6.95114C11.0602 6.42264 10.2319 6.16275 9.39558 6.22461C8.5593 6.28648 7.77822 6.66541 7.21201 7.28397C6.64581 7.90252 6.33723 8.71397 6.34937 9.55246C6.3615 10.3909 6.69343 11.1931 7.2773 11.795C7.86117 12.3969 8.65289 12.7531 9.49061 12.7908C10.3283 12.8284 11.1488 12.5446 11.7843 11.9975L13.0166 13.1562L12.9773 13.1989C12.9227 13.2586 12.894 13.3374 12.8973 13.4182C12.9007 13.4989 12.9359 13.5751 12.9952 13.63L14.8699 15.3549C14.9295 15.4095 15.0084 15.4382 15.0891 15.4348C15.1699 15.4315 15.2461 15.3963 15.301 15.3369L15.9197 14.6645C15.9743 14.6048 16.0031 14.526 15.9997 14.4452C15.9964 14.3643 15.9611 14.2881 15.9017 14.2332ZM11.3111 11.0448C11.0066 11.3757 10.6109 11.6089 10.1739 11.7149C9.73691 11.8209 9.2783 11.7949 8.85607 11.6403C8.43384 11.4856 8.06695 11.2092 7.80179 10.8461C7.53664 10.4829 7.38513 10.0493 7.36643 9.6C7.34772 9.15073 7.46266 8.706 7.69671 8.32205C7.93076 7.9381 8.27341 7.63218 8.68133 7.44297C9.08924 7.25376 9.5441 7.18976 9.98839 7.25906C10.4327 7.32836 10.8464 7.52785 11.1774 7.83231C11.6211 8.24058 11.8845 8.8084 11.9095 9.41086C11.9346 10.0133 11.7194 10.6011 11.3111 11.0448Z"/>
</svg>
