<svg xmlns="http://www.w3.org/2000/svg" width="13" height="16" viewBox="0 0 13 16">
  <path fill-rule="evenodd" clip-rule="evenodd" d="M9.90894 10.8439L9.58595 11.5781C10.2712 11.8723 10.9349 12.2142 11.5722 12.6013L11.9794 11.9112C11.3158 11.5061 10.6238 11.1494 9.90894 10.8439ZM3.03749 10.8439C2.32504 11.1505 1.63516 11.5072 0.97302 11.9112L1.37427 12.6013C2.01202 12.2173 2.6757 11.8781 3.36052 11.5862L3.03749 10.8439ZM3.22207 10.1597L3.32842 10.2058L5.98066 11.3534L6.11912 11.4117V16H0V12.79C0.00517002 12.5418 0.0654528 12.2978 0.176487 12.0757C0.28752 11.8537 0.446529 11.6591 0.642006 11.506C1.43428 10.9379 2.30289 10.4846 3.22207 10.1597ZM9.63008 10.1557C10.5593 10.4501 11.4288 10.9073 12.1981 11.5059C12.3936 11.659 12.5526 11.8536 12.6636 12.0757C12.7746 12.2978 12.8349 12.5417 12.8401 12.79V16H6.721V11.4117L6.85941 11.3534L9.51571 10.2059L9.63008 10.1557ZM8.6109 9.08843L9.35322 9.83671L6.721 10.9742V9.77247L8.6109 9.08843ZM4.22921 9.08843L6.11912 9.77247V10.9762L3.80384 9.97516L3.48689 9.83671L4.22921 9.08843ZM4.62645 5.36678H8.21167C8.38898 5.36648 8.56455 5.40185 8.72791 5.47078C8.89128 5.53971 9.03911 5.6408 9.1626 5.76804C9.29203 5.90221 9.44685 6.0093 9.61805 6.08308C9.56802 6.89889 9.20868 7.66489 8.61331 8.22486C8.01793 8.78484 7.23138 9.09662 6.41404 9.09662C5.5967 9.09662 4.81014 8.78484 4.21477 8.22486C3.6194 7.66489 3.26006 6.89889 3.21003 6.08308C3.38482 6.01049 3.54313 5.90333 3.67548 5.76804C3.79885 5.64063 3.94667 5.53942 4.11007 5.47048C4.27347 5.40153 4.4491 5.36626 4.62645 5.36678ZM6.36789 0H6.47222C8.67911 0 10.2841 1.7555 10.2841 3.05958V3.54311C10.3844 4.43993 10.4587 4.65255 10.8679 5.37878C10.6899 5.53092 10.4621 5.61232 10.228 5.60751C9.99382 5.6027 9.7696 5.51201 9.59794 5.35268C9.41833 5.16644 9.20296 5.01838 8.96475 4.91738C8.72653 4.81638 8.47038 4.76452 8.21163 4.7649H4.62844C4.36955 4.76478 4.1133 4.81697 3.87508 4.91833C3.63686 5.01969 3.42157 5.16813 3.24213 5.35475C3.07046 5.51404 2.84626 5.60471 2.61213 5.60953C2.378 5.61434 2.15025 5.53298 1.97218 5.38088C1.97218 5.38088 2.49981 4.76487 2.55598 3.54311V3.05958C2.55598 1.7555 4.161 0 6.36789 0Z"/>
</svg>
