<svg width="40" height="40" viewBox="0 0 40 40" fill="none" xmlns="http://www.w3.org/2000/svg">
<g filter="url(#filter0_d_10_2245)">
<circle cx="20" cy="20" r="12" fill="url(#paint0_linear_10_2245)"/>
</g>
<path d="M18.9239 21.4924L18.7585 23.8191C18.9952 23.8191 19.0977 23.7174 19.2206 23.5954L20.3302 22.5349L22.6294 24.2187C23.0511 24.4537 23.3482 24.33 23.4619 23.8308L24.9711 16.7589L24.9716 16.7585C25.1053 16.1352 24.7461 15.8914 24.3353 16.0443L15.4643 19.4407C14.8588 19.6757 14.868 20.0132 15.3613 20.1661L17.6293 20.8715L22.8973 17.5752C23.1453 17.411 23.3707 17.5019 23.1853 17.666L18.9239 21.4924Z" fill="white"/>
<defs>
<filter id="filter0_d_10_2245" x="0" y="0" width="40" height="40" filterUnits="userSpaceOnUse" color-interpolation-filters="sRGB">
<feFlood flood-opacity="0" result="BackgroundImageFix"/>
<feColorMatrix in="SourceAlpha" type="matrix" values="0 0 0 0 0 0 0 0 0 0 0 0 0 0 0 0 0 0 127 0" result="hardAlpha"/>
<feOffset/>
<feGaussianBlur stdDeviation="4"/>
<feComposite in2="hardAlpha" operator="out"/>
<feColorMatrix type="matrix" values="0 0 0 0 0.329167 0 0 0 0 0.329167 0 0 0 0 0.329167 0 0 0 0.12 0"/>
<feBlend mode="normal" in2="BackgroundImageFix" result="effect1_dropShadow_10_2245"/>
<feBlend mode="normal" in="SourceGraphic" in2="effect1_dropShadow_10_2245" result="shape"/>
</filter>
<linearGradient id="paint0_linear_10_2245" x1="20" y1="8" x2="20" y2="32" gradientUnits="userSpaceOnUse">
<stop stop-color="#41B4E6"/>
<stop offset="1" stop-color="#309FCF"/>
</linearGradient>
</defs>
</svg>
