<svg xmlns="http://www.w3.org/2000/svg" width="16" height="9" viewBox="0 0 16 9">
<path d="M13.4861 2.67C13.4738 2.65527 13.4584 2.64342 13.4411 2.63531C13.4237 2.62719 13.4048 2.62301 13.3856 2.62305H12.7212C12.6865 2.62312 12.6533 2.63693 12.6287 2.66146C12.6042 2.68599 12.5904 2.71924 12.5903 2.75393V3.80364C12.5904 3.83833 12.6042 3.87158 12.6287 3.89611C12.6533 3.92064 12.6865 3.93445 12.7212 3.93452H14.2604C14.3375 3.93452 14.3705 3.87682 14.3789 3.85898C14.3873 3.84115 14.4104 3.77898 14.3608 3.7197L13.4861 2.67Z"/>
<path d="M15.6066 7.08193C15.8235 7.08193 16 6.90541 16 6.68849V4.5256C16 4.25859 15.9082 3.99655 15.7414 3.78829L14.3242 2.01675C14.2139 1.8782 14.0737 1.76638 13.9141 1.68967C13.7545 1.61295 13.5796 1.57332 13.4025 1.57373H11.541V7.08193H12.6036C12.6697 6.49334 13.1646 6.03275 13.7705 6.03275C14.3764 6.03275 14.8714 6.49334 14.9375 7.08193H15.6066ZM14.6164 3.97032C14.5509 4.11013 14.4145 4.19668 14.2602 4.19668H12.7211C12.6168 4.19661 12.5169 4.15517 12.4432 4.08145C12.3694 4.00773 12.328 3.90776 12.3279 3.8035V2.7538C12.328 2.64954 12.3694 2.54958 12.4432 2.47586C12.5169 2.40213 12.6168 2.36069 12.7211 2.36062H13.3855C13.5025 2.36062 13.6126 2.41203 13.6874 2.502L14.5621 3.5517C14.661 3.67026 14.6818 3.83052 14.6164 3.97032ZM2.4331 5.78436C2.45131 5.7753 2.47138 5.77059 2.49172 5.77059C2.51206 5.77059 2.53213 5.7753 2.55034 5.78436L2.88503 5.9517V4.45898H2.09814V5.9517L2.4331 5.78436Z"/>
<path d="M4.98361 4.45898H3.14754V6.1639C3.14754 6.18627 3.14182 6.20826 3.13092 6.22779C3.12003 6.24732 3.10432 6.26374 3.08529 6.27549C3.06626 6.28724 3.04454 6.29393 3.0222 6.29492C2.99986 6.29591 2.97763 6.29117 2.95764 6.28115L2.4918 6.04823L2.02597 6.28115C2.00597 6.29117 1.98375 6.29591 1.96141 6.29492C1.93906 6.29393 1.91735 6.28724 1.89832 6.27549C1.87929 6.26374 1.86358 6.24732 1.85268 6.22779C1.84179 6.20826 1.83607 6.18627 1.83607 6.1639V4.45898H0V8.918H4.98361V4.45898Z"/>
<path d="M13.7706 8.13123C14.2776 8.13123 14.6886 7.72021 14.6886 7.2132C14.6886 6.70618 14.2776 6.29517 13.7706 6.29517C13.2636 6.29517 12.8525 6.70618 12.8525 7.2132C12.8525 7.72021 13.2636 8.13123 13.7706 8.13123Z"/>
<path d="M11.2786 7.08197V0.131148C11.2786 0.096365 11.2648 0.0630071 11.2402 0.0384121C11.2156 0.0138172 11.1823 0 11.1475 0H1.70488C1.6701 0 1.63674 0.0138172 1.61214 0.0384121C1.58755 0.0630071 1.57373 0.096365 1.57373 0.131148V4.19672H5.11471C5.1495 4.19672 5.18285 4.21054 5.20745 4.23513C5.23204 4.25973 5.24586 4.29309 5.24586 4.32787V7.08197H11.2786Z"/>
</svg>
