<svg xmlns="http://www.w3.org/2000/svg" width="40" height="22" viewBox="0 0 40 22" fill="none">
  <path d="M40 3.73161C40 10.6512 6.64222 18.2889 4.11633 18.2889C2.70019 18.2889 1.09346 17.9625 1.09346 16.657C1.09346 16.2208 1.59692 15.5903 2.48039 14.8302L2.47941 14.8308L0.137838 10.6702C-0.179221 10.107 0.0721515 9.39337 0.672152 9.15311L1.07457 8.992C1.43491 8.84772 1.82234 8.78363 2.20994 8.80418C2.59754 8.82473 2.97602 8.92944 3.31908 9.11102L7.56999 11.3615C9.22509 10.3798 11.1026 9.35193 13.0815 8.33997L4.79751 2.96553C4.14215 2.5403 4.14914 1.5786 4.81065 1.16304L5.4883 0.737291C6.04627 0.386764 6.67029 0.154576 7.32168 0.0551216C7.97307 -0.044333 8.63795 -0.00893446 9.27509 0.159122L23.0561 3.79415C27.353 2.08866 31.2379 0.924611 33.5374 0.924611C34.1515 0.924611 34.7665 0.940887 35.3601 0.983305L31.1983 2.86206L31.0987 4.26193L37.5229 1.30879C39.0628 1.67605 40 2.36147 40 3.73161ZM23.2348 15.6763L28.3752 21.5158C28.5277 21.6891 28.7322 21.8083 28.9581 21.8558C29.184 21.9032 29.4192 21.8763 29.6285 21.779L30.3169 21.459C31.5723 20.8755 32.3118 19.5523 32.151 18.1774L31.5074 12.675C31.4676 12.3345 31.1221 12.1191 30.7988 12.2329L23.4584 14.8187C23.1011 14.9446 22.9844 15.3919 23.2348 15.6763Z" fill="#199C68"/>
</svg>
