<svg xmlns="http://www.w3.org/2000/svg" width="16" height="11" viewBox="0 0 16 11">
<path d="M13.2001 7.41309C12.4502 7.41309 11.8401 8.02334 11.8401 8.77309C11.8401 9.523 12.4502 10.1331 13.2001 10.1331C13.9498 10.1331 14.5601 9.523 14.5601 8.77309C14.5601 8.02334 13.9498 7.41309 13.2001 7.41309ZM13.2001 9.17309C12.9795 9.17309 12.8001 8.99372 12.8001 8.77309C12.8001 8.55246 12.9795 8.37309 13.2001 8.37309C13.4207 8.37309 13.6001 8.55246 13.6001 8.77309C13.6001 8.99372 13.4207 9.17309 13.2001 9.17309Z"/>
<path d="M13.0698 1.75985H10.72C10.5432 1.75985 10.4 1.90322 10.4 2.07985V8.31985C10.4 8.49648 10.5432 8.63986 10.72 8.63986H11.0594C11.2178 8.63986 11.3581 8.52576 11.3786 8.36867C11.5042 7.40642 12.2717 6.80963 13.2002 6.80963C14.1286 6.80963 14.8962 7.40644 15.0218 8.36867C15.0422 8.52579 15.1824 8.63986 15.341 8.63986H15.68C15.8566 8.63986 16 8.49648 16 8.31985V5.19985C16 5.12466 15.9736 5.05201 15.9254 4.99457L13.3152 1.87457C13.2852 1.83867 13.2476 1.80979 13.2052 1.78997C13.1628 1.77015 13.1166 1.75987 13.0698 1.75985ZM11.04 4.31985V2.71985C11.04 2.54322 11.1832 2.39985 11.36 2.39985H12.7696C12.8645 2.39985 12.9546 2.4421 13.0154 2.51504L14.3487 4.11504C14.5222 4.32351 14.3741 4.63985 14.1027 4.63985H11.36C11.1832 4.63985 11.04 4.49666 11.04 4.31985ZM0.32 8.64001H1.13937C1.29778 8.64001 1.43809 8.52592 1.45856 8.36882C1.58416 7.40657 2.35169 6.80979 3.28016 6.80979C4.20863 6.80979 4.97616 7.4066 5.10176 8.36882C5.12223 8.52595 5.26239 8.64001 5.42095 8.64001H9.44001C9.61667 8.64001 9.76002 8.49664 9.76002 8.32001V0.32C9.76002 0.143373 9.61664 0 9.44001 0H0.32C0.14319 0 0 0.143373 0 0.32V8.32001C0 8.49667 0.14319 8.64001 0.32 8.64001Z"/>
<path d="M3.27992 7.41309C2.53001 7.41309 1.91992 8.02334 1.91992 8.77309C1.91992 9.523 2.53001 10.1331 3.27992 10.1331C4.02968 10.1331 4.63993 9.523 4.63993 8.77309C4.63993 8.02334 4.02968 7.41309 3.27992 7.41309ZM3.27992 9.17309C3.0593 9.17309 2.87992 8.99372 2.87992 8.77309C2.87992 8.55246 3.0593 8.37309 3.27992 8.37309C3.50055 8.37309 3.67992 8.55246 3.67992 8.77309C3.67992 8.99372 3.50055 9.17309 3.27992 9.17309Z"/>
</svg>
