<svg xmlns="http://www.w3.org/2000/svg" width="16" height="12" viewBox="0 0 16 12">
  <path fill-rule="evenodd" clip-rule="evenodd" d="M15.3035 9.30054C15.6874 9.30054 16 8.98754 16 8.60405V7.11364C16 6.794 15.7822 6.55593 15.4836 6.44077L14.0585 5.89082C13.931 5.84371 13.8272 5.74822 13.7695 5.62507L12.7826 3.59761C12.7397 3.50648 12.6714 3.42963 12.586 3.37622C12.5006 3.32282 12.4016 3.29512 12.3009 3.29643H10.3609C10.0657 3.29643 9.82537 3.53708 9.82537 3.83236V9.30017H11.5985C11.6809 8.90094 11.8984 8.54235 12.2145 8.28487C12.5305 8.0274 12.9256 7.8868 13.3333 7.8868C13.7409 7.8868 14.1361 8.0274 14.4521 8.28487C14.7681 8.54235 14.9857 8.90094 15.068 9.30017L15.3035 9.30054ZM10.6289 5.94913H13.0332L12.1333 4.10033H10.6289V5.94913ZM10.7463 6.74454C10.6873 6.74454 10.6308 6.76795 10.5892 6.80962C10.5475 6.85129 10.5241 6.90781 10.5241 6.96674C10.5241 7.02567 10.5475 7.08218 10.5892 7.12385C10.6308 7.16552 10.6873 7.18893 10.7463 7.18893H11.1818C11.2407 7.18893 11.2972 7.16552 11.3389 7.12385C11.3806 7.08218 11.404 7.02567 11.404 6.96674C11.404 6.90781 11.3806 6.85129 11.3389 6.80962C11.2972 6.76795 11.2407 6.74454 11.1818 6.74454H10.7463ZM15.116 6.90547C14.9746 6.90547 14.8588 7.00217 14.8588 7.12028V7.57907C14.8588 7.69718 14.9746 7.79388 15.116 7.79388H15.6446V7.11364C15.6446 7.03982 15.6327 6.96969 15.6113 6.9051L15.116 6.90547ZM9.46993 9.30054V8.53724H4.71891C4.89608 8.75501 5.02305 9.01523 5.08136 9.30054H9.46993ZM1.97467 8.53724H0V8.60368C0 8.98754 0.312995 9.30054 0.696487 9.30054H1.61185C1.66915 9.02046 1.79366 8.75852 1.97467 8.53724ZM9.46993 8.1818V5.86313H0V8.1818H2.36665C2.64717 7.99467 2.98415 7.88579 3.34661 7.88579C3.70906 7.88579 4.04641 7.99467 4.32693 8.1818H9.46993ZM3.34661 8.24123C3.72187 8.24123 4.08176 8.3903 4.34712 8.65565C4.61247 8.92101 4.76154 9.2809 4.76154 9.65616C4.76154 10.0314 4.61247 10.3913 4.34712 10.6567C4.08176 10.922 3.72187 11.0711 3.34661 11.0711C2.97134 11.0711 2.61145 10.922 2.3461 10.6567C2.08074 10.3913 1.93167 10.0314 1.93167 9.65616C1.93167 9.2809 2.08074 8.92101 2.3461 8.65565C2.61145 8.3903 2.97134 8.24123 3.34661 8.24123ZM3.34661 8.92147C3.54141 8.92147 3.72823 8.99886 3.86598 9.13661C4.00372 9.27435 4.08111 9.46118 4.08111 9.65598C4.08111 9.85078 4.00372 10.0376 3.86598 10.1754C3.72823 10.3131 3.54141 10.3905 3.34661 10.3905C3.1518 10.3905 2.96498 10.3131 2.82723 10.1754C2.68949 10.0376 2.6121 9.85078 2.6121 9.65598C2.6121 9.46118 2.68949 9.27435 2.82723 9.13661C2.96498 8.99886 3.1518 8.92147 3.34661 8.92147Z"/>
  <path fill-rule="evenodd" clip-rule="evenodd" d="M13.3334 8.24121C13.7087 8.24121 14.0686 8.39028 14.3339 8.65563C14.5993 8.92098 14.7483 9.28088 14.7483 9.65614C14.7483 10.0314 14.5993 10.3913 14.3339 10.6567C14.0686 10.922 13.7087 11.0711 13.3334 11.0711C12.9581 11.0711 12.5982 10.922 12.3329 10.6567C12.0675 10.3913 11.9185 10.0314 11.9185 9.65614C11.9185 9.28088 12.0675 8.92098 12.3329 8.65563C12.5982 8.39028 12.9581 8.24121 13.3334 8.24121ZM13.3334 8.92145C13.5282 8.92145 13.715 8.99884 13.8528 9.13658C13.9905 9.27433 14.0679 9.46115 14.0679 9.65596C14.0679 9.85076 13.9905 10.0376 13.8528 10.1753C13.715 10.3131 13.5282 10.3905 13.3334 10.3905C13.1386 10.3905 12.9518 10.3131 12.814 10.1753C12.6763 10.0376 12.5989 9.85076 12.5989 9.65596C12.5989 9.46115 12.6763 9.27433 12.814 9.13658C12.9518 8.99884 13.1386 8.92145 13.3334 8.92145ZM4.55737 2.5763H1.98107V0H3.01823V0.938615H3.5202V0.000369071H4.55737V2.5763ZM4.91281 2.5763H7.48874V0H6.45157V0.938615H5.9496V0.000369071H4.91244L4.91281 2.5763ZM3.09168 5.50767H0.515381V2.93137H1.55254V3.86999H2.05452V2.93174H3.09168V5.50767ZM3.44712 5.50767H6.02305V2.93137H4.98589V3.86999H4.48392V2.93174H3.44675L3.44712 5.50767ZM8.95442 5.50767H6.37812V2.93137H7.41529V3.86999H7.91726V2.93174H8.95405L8.95442 5.50767Z"/>
</svg>
