<svg xmlns="http://www.w3.org/2000/svg" width="14" height="14" viewBox="0 0 14 14" fill="none">
  <path d="M13.0184 10.0604C11.0169 8.45182 10.4572 9.24254 9.54898 10.1506C8.91498 10.7849 7.31046 9.46037 5.92507 8.07488C4.53959 6.68926 3.2154 5.08504 3.84936 4.45091C4.75758 3.54282 5.54807 2.98279 3.93904 0.981848C2.33056 -1.0199 1.25832 0.516906 0.37859 1.39671C-0.637047 2.41201 0.325082 6.1956 4.0645 9.93569C7.80446 13.6752 11.588 14.6367 12.6031 13.6218C13.4827 12.7419 15.02 11.6698 13.0184 10.0604ZM2.49837 2.06708C2.47136 2.07813 2.43173 2.09436 2.38131 2.11498C2.28589 2.15153 2.17178 2.19291 2.04478 2.24816C1.98553 2.27671 1.91909 2.30761 1.8585 2.3457C1.79565 2.38322 1.73321 2.42578 1.67691 2.47841C1.61541 2.52819 1.56761 2.59181 1.51229 2.65849C1.47118 2.73201 1.41811 2.80715 1.38946 2.89744C1.34784 2.98289 1.33293 3.08134 1.30807 3.17818C1.28892 3.27643 1.2856 3.37854 1.27341 3.4783C1.27216 3.67987 1.27999 3.87347 1.30595 4.03846C1.31952 4.20621 1.36211 4.34792 1.37891 4.44614C1.3995 4.54469 1.41122 4.60095 1.41122 4.60095C1.41122 4.60095 1.38096 4.55201 1.32799 4.46632C1.27777 4.37802 1.19252 4.26459 1.11769 4.10333C1.03143 3.94653 0.950983 3.75359 0.874433 3.53654C0.847193 3.42455 0.810244 3.3084 0.789789 3.18389C0.775379 3.05806 0.751564 2.92827 0.761137 2.7916C0.757006 2.65516 0.784918 2.51728 0.810278 2.37795C0.850619 2.24295 0.893579 2.10615 0.959414 1.98442C1.01954 1.86 1.09525 1.74738 1.17089 1.6492C1.247 1.54799 1.32554 1.46516 1.39957 1.38811C1.54726 1.2428 1.6755 1.13663 1.7502 1.07146C1.79296 1.03566 1.81046 1.01628 1.82954 0.999281C1.8464 0.983494 1.85541 0.975063 1.85541 0.975063L2.5418 2.04861C2.5419 2.04861 2.52675 2.05502 2.49837 2.06708ZM12.7997 12.2655C12.7324 12.3493 12.6268 12.479 12.4836 12.626C12.4073 12.6983 12.3285 12.7767 12.2305 12.8508C12.1387 12.9275 12.0271 12.9977 11.9135 13.0635C11.7963 13.128 11.6717 13.1832 11.54 13.2243C11.4098 13.264 11.2745 13.296 11.1417 13.3068L10.9442 13.3209L10.7526 13.3106C10.6266 13.309 10.5092 13.2754 10.3961 13.2566C10.2833 13.2356 10.181 13.1937 10.083 13.1656C9.9851 13.1392 9.89727 13.0909 9.81601 13.0587C9.65143 12.9934 9.53353 12.9179 9.44462 12.8712C9.35728 12.823 9.30744 12.7955 9.30744 12.7955C9.30744 12.7955 9.3637 12.8042 9.46218 12.8193C9.56003 12.8324 9.70288 12.8633 9.86831 12.8666C9.95161 12.8684 10.0371 12.8829 10.1318 12.8741C10.2252 12.8669 10.3227 12.8716 10.4202 12.8541C10.5171 12.8347 10.6176 12.8292 10.7109 12.794L10.851 12.751L10.981 12.6902C11.3242 12.524 11.511 12.2311 11.6192 11.9866C11.6727 11.8606 11.711 11.7492 11.74 11.6621C11.7715 11.5704 11.7895 11.518 11.7895 11.518L12.9013 12.1406C12.9012 12.1407 12.8643 12.1861 12.7997 12.2655Z" fill="#1A1A1B"/>
</svg>
