<svg xmlns="http://www.w3.org/2000/svg" width="22" height="19" viewBox="0 0 22 19" fill="none">
  <path d="M7.07125 16.5C7.07125 15.1982 6.01602 14.1429 4.7142 14.1429C3.41237 14.1429 2.35693 15.1982 2.35693 16.5C2.35693 17.8018 3.41237 18.857 4.7142 18.857C6.01551 18.8559 7.07009 17.8013 7.07125 16.5ZM3.14283 16.5C3.14283 15.632 3.84623 14.9286 4.7142 14.9286C5.58217 14.9286 6.28557 15.632 6.28557 16.5C6.28557 17.368 5.58217 18.0714 4.7142 18.0714C4.50784 18.0714 4.3035 18.0307 4.11285 17.9518C3.9222 17.8728 3.74897 17.7571 3.60305 17.6111C3.45713 17.4652 3.34139 17.292 3.26242 17.1013C3.18346 16.9107 3.14282 16.7064 3.14283 16.5Z" fill="white"/>
  <path fill-rule="evenodd" clip-rule="evenodd" d="M15.3214 4.71429V7.46464L19.25 7.46429V6.70645L17.2578 4.71429H15.3214ZM1.62022 15.9681C1.62727 15.9268 1.63268 15.8851 1.64136 15.8444C1.65464 15.7806 1.67243 15.719 1.6897 15.6569C1.69911 15.6232 1.70646 15.5886 1.7172 15.5552C1.74572 15.464 1.77861 15.3742 1.81577 15.2861C1.82011 15.2759 1.82518 15.266 1.82952 15.2557C1.86476 15.1733 1.90408 15.0927 1.94734 15.0142C1.96432 14.9831 1.98361 14.9538 2.00123 14.9234C2.03259 14.8697 2.064 14.8158 2.09825 14.764C2.12059 14.7302 2.14543 14.6986 2.16893 14.6661C2.20232 14.6198 2.23536 14.5738 2.27077 14.5298C2.2975 14.4964 2.3262 14.465 2.35404 14.4331C2.39014 14.3938 2.42623 14.3514 2.464 14.3121C2.49421 14.281 2.52609 14.2513 2.5575 14.2218C2.59677 14.1845 2.63605 14.1483 2.67532 14.1134C2.70871 14.0847 2.74295 14.0576 2.77703 14.0304C2.81916 13.9974 2.86203 13.9654 2.90559 13.9343C2.94157 13.909 2.978 13.8844 3.01486 13.8604C3.06002 13.8312 3.10597 13.8033 3.15266 13.7767C3.19193 13.7547 3.22889 13.733 3.26782 13.7131C3.31636 13.6879 3.36561 13.664 3.4155 13.6416C3.45477 13.6234 3.49405 13.6055 3.53332 13.5894C3.58553 13.5677 3.63907 13.5501 3.69046 13.5308C3.72973 13.517 3.769 13.5024 3.81077 13.4915C3.86805 13.4742 3.92627 13.4605 3.98466 13.4467C4.02394 13.4373 4.06338 13.4267 4.10266 13.4188C4.16814 13.4059 4.23543 13.3972 4.30225 13.3881C4.33632 13.3839 4.36941 13.3772 4.40344 13.374C4.60908 13.353 4.81633 13.353 5.02197 13.374C5.05605 13.3772 5.08913 13.3839 5.12316 13.3881C5.18998 13.3972 5.25731 13.4059 5.32275 13.4188C5.36203 13.4267 5.40147 13.4373 5.44075 13.4467C5.49918 13.4604 5.55857 13.4742 5.61464 13.4915C5.65409 13.5036 5.69336 13.5182 5.73495 13.5308C5.78836 13.5492 5.84173 13.5677 5.89411 13.5894C5.93338 13.6055 5.97266 13.6234 6.01193 13.6416C6.06177 13.6643 6.11132 13.6875 6.15966 13.7131C6.19893 13.733 6.2382 13.7547 6.27481 13.7767C6.32166 13.803 6.36761 13.831 6.41257 13.8605C6.44952 13.8843 6.48562 13.9091 6.52184 13.9343C6.56539 13.9653 6.60821 13.9974 6.65027 14.0304C6.68448 14.0576 6.71859 14.0847 6.75198 14.1134C6.79125 14.1483 6.8307 14.1845 6.86997 14.2218C6.90134 14.2513 6.93309 14.2811 6.96347 14.3121C7.00275 14.3514 7.03729 14.3906 7.07339 14.4331C7.10127 14.465 7.12998 14.4964 7.15666 14.5298C7.19207 14.5738 7.22498 14.6198 7.25837 14.6661C7.282 14.6986 7.30671 14.7302 7.32918 14.764C7.36325 14.8158 7.39484 14.8697 7.4262 14.9234C7.44382 14.9538 7.46316 14.9831 7.47991 15.0142C7.52203 15.0933 7.56138 15.1739 7.59791 15.2557C7.60212 15.266 7.60732 15.2759 7.61166 15.2861C7.64873 15.3742 7.68161 15.464 7.71018 15.5552C7.7208 15.5886 7.72832 15.6232 7.73773 15.6569C7.755 15.719 7.77266 15.7806 7.78607 15.8444C7.79466 15.8836 7.80016 15.9268 7.80721 15.9681C7.81425 16.0094 7.82534 16.0601 7.83123 16.107H14.1672C14.1734 16.0601 14.1833 16.0144 14.1915 15.9681C14.1998 15.9217 14.2041 15.8851 14.2127 15.8444C14.2261 15.7806 14.2438 15.719 14.2611 15.6569C14.2704 15.6232 14.278 15.5886 14.2886 15.5552C14.3171 15.464 14.35 15.3742 14.3871 15.2861C14.3915 15.2759 14.3967 15.266 14.4008 15.2557C14.4362 15.1733 14.4755 15.0927 14.5187 15.0142C14.5356 14.9831 14.5549 14.9538 14.5726 14.9234C14.604 14.8697 14.6355 14.8158 14.6696 14.764C14.6921 14.7302 14.7168 14.6986 14.7404 14.6661C14.7738 14.6198 14.8067 14.5738 14.8421 14.5298C14.8688 14.4964 14.8975 14.465 14.9254 14.4331C14.9615 14.3938 14.9977 14.3514 15.0354 14.3121C15.0657 14.281 15.0974 14.2513 15.1288 14.2218C15.1681 14.1845 15.2075 14.1483 15.2468 14.1134C15.2802 14.0847 15.3143 14.0576 15.3485 14.0304C15.3906 13.9974 15.4334 13.9653 15.4769 13.9343C15.5129 13.909 15.5493 13.8844 15.5862 13.8604C15.6313 13.8312 15.6773 13.8032 15.724 13.7767C15.7633 13.7547 15.8002 13.733 15.8391 13.7131C15.8877 13.6879 15.937 13.664 15.9869 13.6416C16.0261 13.6234 16.0654 13.6055 16.1047 13.5894C16.1571 13.5677 16.2104 13.5501 16.2638 13.5308C16.3031 13.517 16.3423 13.5024 16.3841 13.4915C16.4414 13.4742 16.4996 13.4605 16.5581 13.4467C16.5973 13.4373 16.6368 13.4267 16.676 13.4188C16.7415 13.4059 16.8088 13.3972 16.8756 13.3881C16.9097 13.3839 16.9427 13.3772 16.9768 13.374C17.1825 13.353 17.3897 13.353 17.5953 13.374C17.6294 13.3772 17.6625 13.3839 17.6966 13.3881C17.7633 13.3972 17.8306 13.4059 17.8961 13.4188C17.9354 13.4267 17.9748 13.4373 18.0141 13.4467C18.0725 13.4604 18.1319 13.4742 18.188 13.4915C18.2273 13.5036 18.2667 13.5182 18.3083 13.5308C18.3617 13.5492 18.4151 13.5677 18.4675 13.5894C18.5067 13.6055 18.546 13.6234 18.5853 13.6416C18.6351 13.6643 18.6847 13.6875 18.733 13.7131C18.7723 13.733 18.8115 13.7547 18.8482 13.7767C18.895 13.803 18.9409 13.831 18.9859 13.8605C19.0229 13.8843 19.059 13.9091 19.0952 13.9343C19.1387 13.9653 19.1816 13.9974 19.2236 14.0304C19.2579 14.0576 19.2919 14.0847 19.3253 14.1134C19.3646 14.1483 19.404 14.1845 19.4433 14.2218C19.4747 14.2513 19.5064 14.2811 19.5368 14.3121C19.5761 14.3514 19.6107 14.3906 19.6467 14.4331C19.6746 14.465 19.7033 14.4964 19.73 14.5298C19.7654 14.5738 19.7983 14.6198 19.8317 14.6661C19.8553 14.6986 19.8801 14.7302 19.9026 14.764C19.9366 14.8158 19.9682 14.8697 19.9995 14.9234C20.0172 14.9538 20.0365 14.9831 20.0533 15.0142C20.0954 15.0933 20.1347 15.1739 20.1712 15.2557C20.1755 15.266 20.1807 15.2759 20.185 15.2861C20.2221 15.3742 20.255 15.464 20.2836 15.5552C20.2941 15.5886 20.3017 15.6232 20.3111 15.6569C20.3284 15.719 20.346 15.7806 20.3594 15.8444C20.368 15.8836 20.3735 15.9268 20.3806 15.9681C20.3876 16.0094 20.3987 16.0601 20.4046 16.107H22V12.1786H0V16.107H1.59573C1.60209 16.0601 1.61064 16.0144 1.62022 15.9681Z" fill="white"/>
  <path d="M12.9643 2.75V0.392949C12.9643 0.341345 12.9541 0.290245 12.9344 0.242567C12.9146 0.19489 12.8857 0.151569 12.8492 0.11508C12.8127 0.0785897 12.7694 0.0496455 12.7217 0.0299C12.674 0.0101544 12.6229 -5.64149e-06 12.5713 2.35003e-09H1.17859C1.12699 -5.64149e-06 1.07589 0.0101544 1.02821 0.0299C0.980535 0.0496455 0.937214 0.0785897 0.900724 0.11508C0.864234 0.151569 0.83529 0.19489 0.815545 0.242567C0.795799 0.290245 0.785639 0.341345 0.785645 0.392949V11.3929H12.9643V2.75ZM9.82133 1.57137H1.96428C1.74729 1.57137 1.57133 1.3955 1.57133 1.17863C1.57132 1.12703 1.58148 1.07593 1.60123 1.02825C1.62097 0.980574 1.64992 0.937253 1.68641 0.900763C1.7229 0.864273 1.76622 0.835329 1.8139 0.815584C1.86157 0.795838 1.91267 0.785678 1.96428 0.785684H9.82133C9.87293 0.785678 9.92403 0.795838 9.97171 0.815584C10.0194 0.835329 10.0627 0.864273 10.0992 0.900763C10.1357 0.937253 10.1646 0.980574 10.1844 1.02825C10.2041 1.07593 10.2143 1.12703 10.2143 1.17863C10.2143 1.3955 10.0384 1.57137 9.82133 1.57137ZM11.7856 1.57137H11.3929C11.1759 1.57137 11 1.3955 11 1.17863C11 1.12703 11.0101 1.07593 11.0299 1.02825C11.0496 0.980574 11.0786 0.937253 11.115 0.900763C11.1515 0.864273 11.1949 0.835329 11.2425 0.815584C11.2902 0.795838 11.3413 0.785678 11.3929 0.785684H11.7856C11.8372 0.785678 11.8883 0.795838 11.936 0.815584C11.9837 0.835329 12.027 0.864273 12.0635 0.900763C12.1 0.937253 12.1289 0.980574 12.1487 1.02825C12.1684 1.07593 12.1786 1.12703 12.1786 1.17863C12.1786 1.3955 12.0027 1.57137 11.7856 1.57137Z" fill="white"/>
  <path fill-rule="evenodd" clip-rule="evenodd" d="M18.0714 16.5C18.0714 16.9339 17.7197 17.2857 17.2858 17.2857C16.8519 17.2857 16.5001 16.9339 16.5001 16.5C16.5001 16.0661 16.8519 15.7143 17.2858 15.7143C17.7196 15.7143 18.0714 16.0661 18.0714 16.5ZM5.50008 16.5C5.50008 16.9339 5.14825 17.2857 4.71439 17.2857C4.28054 17.2857 3.92871 16.9339 3.92871 16.5C3.92871 16.0661 4.2805 15.7143 4.71439 15.7143C5.14829 15.7143 5.50008 16.0661 5.50008 16.5Z" fill="white"/>
  <path d="M20.8214 6.3812C20.8216 6.27793 20.8014 6.17564 20.7619 6.08022C20.7224 5.98481 20.6644 5.89816 20.5913 5.82527L18.139 3.37304C17.9914 3.22613 17.7917 3.14344 17.5835 3.14294H13.75V11.3929H20.8214V6.3812ZM20.0357 7.46431C20.0357 7.89817 19.6839 8.25 19.25 8.25H15.3214C14.8875 8.25 14.5357 7.89817 14.5357 7.46431V4.71431C14.5357 4.28041 14.8875 3.92863 15.3214 3.92863H17.2578C17.4661 3.92915 17.6658 4.01184 17.8134 4.15873L19.8056 6.15089C19.8788 6.22366 19.9368 6.31024 19.9763 6.40561C20.0158 6.50098 20.036 6.60325 20.0357 6.70647V7.46431ZM17.2857 18.857C18.5875 18.857 19.6429 17.8018 19.6429 16.5C19.6429 15.1982 18.5875 14.1429 17.2857 14.1429C15.9839 14.1429 14.9286 15.1982 14.9286 16.5C14.9298 17.8013 15.9844 18.8559 17.2857 18.857ZM17.2857 14.9286C18.1537 14.9286 18.8571 15.632 18.8571 16.5C18.8571 17.368 18.1537 18.0714 17.2857 18.0714C16.4177 18.0714 15.7143 17.368 15.7143 16.5C15.7143 15.632 16.4177 14.9286 17.2857 14.9286Z" fill="white"/>
</svg>
