<svg xmlns="http://www.w3.org/2000/svg" width="32" height="31" viewBox="0 0 32 31" fill="none">
  <path d="M21.1842 10.053V9.1272C21.065 9.12018 20.9528 9.10616 20.8476 9.09914C20.3005 9.06407 19.7534 9.029 19.2134 9.00095C19.003 8.99393 18.9188 8.88873 18.8837 8.69936C18.8767 8.65026 18.8697 8.60116 18.8697 8.54505C18.8486 7.94888 18.8206 7.35271 18.8136 6.75654C18.8066 6.30766 18.9749 6.18842 19.4308 6.21648C19.9358 6.24453 20.4478 6.25155 20.9528 6.25856C21.0299 6.25856 21.1071 6.25155 21.2263 6.24453C21.2333 6.11127 21.2474 5.97801 21.2474 5.83773C21.2474 4.16144 21.2403 2.47813 21.2403 0.80184C21.2403 0.696633 21.2333 0.59844 21.2403 0.500247C21.2544 0.219696 21.3526 0.107476 21.6261 0.0724069C21.7734 0.0513655 21.9277 0.0583792 22.082 0.0443517C23.1761 -0.060855 24.2633 0.0513655 25.3574 0.0724069C26.2061 0.0864344 27.0548 0.163586 27.8894 0.359972C28.8222 0.584413 29.6849 0.977185 30.4915 1.51023C31.4735 2.16251 31.9364 3.08132 31.9925 4.23859C32.0205 4.76463 31.9714 5.28365 31.8241 5.78864C31.6278 6.46196 31.221 6.98799 30.6739 7.40181C30.1198 7.81562 29.4886 8.08214 28.8293 8.29256C27.6439 8.65727 26.4235 8.81859 25.2031 8.98692C24.6631 9.06407 24.116 9.09914 23.5409 9.15525V9.8426C23.604 9.85663 23.6811 9.87767 23.7513 9.87767C24.3895 9.88468 25.0208 9.87767 25.659 9.8917C26.157 9.89871 26.3183 10.046 26.3744 10.537C26.4165 10.9017 26.4446 11.2734 26.4656 11.6381C26.4867 12.0309 26.3464 12.1922 25.9396 12.2203C25.2172 12.2694 24.4947 12.3115 23.7723 12.3535C23.7092 12.3605 23.6461 12.3676 23.5619 12.3746V16.1129C23.4427 16.2462 23.2743 16.2392 23.113 16.2322C22.6712 16.2251 22.2223 16.2111 21.7804 16.1901C21.3666 16.169 21.3105 16.0919 21.3035 15.6781L21.2614 12.7393C21.2614 12.6411 21.2474 12.5359 21.2333 12.3956C21.0931 12.3816 20.9598 12.3605 20.8265 12.3535C20.3286 12.3185 19.8376 12.2904 19.3396 12.2553C18.8416 12.2203 18.7224 12.094 18.7084 11.589C18.7014 11.2874 18.7154 10.9788 18.7364 10.6772C18.7715 10.2424 18.9258 10.0881 19.3607 10.067C19.8446 10.046 20.3286 10.053 20.8125 10.046C20.9177 10.053 21.0369 10.053 21.1842 10.053ZM23.5128 6.25155C24.4386 6.26557 25.3224 6.23752 26.2061 6.13231C26.7392 6.06919 27.2582 5.94995 27.7351 5.69746C27.9525 5.58524 28.1489 5.40989 28.3243 5.23455C28.5136 5.04518 28.5557 4.79969 28.5136 4.52616C28.4365 4.05623 28.191 3.70554 27.7772 3.47409C27.174 3.13743 26.5287 2.91299 25.8414 2.81479C25.1611 2.7166 24.4807 2.66049 23.8004 2.59035C23.7162 2.58334 23.632 2.59737 23.5058 2.6114C23.5128 3.82478 23.5128 5.01712 23.5128 6.25155ZM12.6232 24.8512L12.6653 24.8092L12.7214 24.8162C12.7495 24.8232 12.7775 24.8232 12.7986 24.8232C12.8406 24.8232 12.8757 24.8232 12.9108 24.8372C13.5771 25.0546 14.2364 25.2651 14.8957 25.4825C16.3545 25.9594 17.8695 26.4504 19.3564 26.9273C20.2191 27.2079 20.9696 27.2009 21.6429 26.9133L21.8814 26.8081C23.1719 26.261 24.5046 25.6929 25.6969 24.9074C25.8302 24.8232 25.9704 24.746 26.1037 24.6759C26.2159 24.6198 26.3211 24.5637 26.4263 24.5006L27.0155 24.1429C27.0786 24.1078 27.7449 23.694 27.8852 23.6098C28.1026 23.4695 28.306 23.3293 28.5094 23.182C29.4703 22.4666 30.2979 21.5407 30.9783 20.4185C31.2238 20.0117 31.3781 19.5348 31.5043 19.114C31.5674 18.8895 31.5815 18.609 31.5534 18.3004C31.5113 17.9286 31.343 17.6271 31.0765 17.4517C30.8029 17.2764 30.4522 17.2413 30.0875 17.3605C29.842 17.4447 29.5966 17.5499 29.3581 17.6832C28.6497 18.0759 28.0185 18.4336 27.3942 18.8264C26.6718 19.2753 25.9073 19.5909 25.1779 19.8645C25.3252 20.3133 25.2059 20.8324 24.9394 21.2251C24.6308 21.688 24.1188 22.0107 23.5647 22.1018C23.2491 22.158 22.9335 22.172 22.6179 22.179C22.162 22.193 21.7131 22.193 21.2572 22.186C20.142 22.172 19.0198 22.1299 17.9046 22.0808C16.8876 22.0387 15.8706 21.9826 14.8536 21.9195L13.528 21.8353C13.3667 21.8213 13.3667 21.5688 13.528 21.5828H13.549C13.7174 21.5898 13.8857 21.6039 14.054 21.6179C14.3977 21.6389 14.7484 21.66 15.0921 21.681C16.1091 21.7441 17.1331 21.8003 18.1501 21.8423C19.2302 21.8914 20.3173 21.9335 21.4045 21.9405C21.8393 21.9405 22.2742 21.9405 22.709 21.9265C22.8703 21.9195 23.0387 21.9125 23.2 21.8984C23.2701 21.8914 23.3333 21.8844 23.4034 21.8774H23.4315C23.4455 21.8774 23.4525 21.8704 23.4665 21.8704C23.4946 21.8634 23.5156 21.8634 23.5437 21.8564C24.0907 21.7512 24.5887 21.4005 24.8412 20.8955C24.9885 20.6009 25.0306 20.2502 24.9324 19.9486L24.8763 19.8715C24.7921 19.7522 24.6869 19.647 24.5607 19.5418C24.3082 19.3314 24.0557 19.1701 23.8102 19.0719C23.2771 18.8545 22.8563 18.7212 22.4636 18.637C21.8884 18.5248 21.2993 18.4336 20.7311 18.3425C20.4787 18.3074 20.2262 18.2653 19.9737 18.2232C19.6089 18.1601 19.2302 18.104 18.8655 18.0479C17.8555 17.8936 16.8104 17.7393 15.7934 17.4728C15.7163 17.4517 15.6321 17.4307 15.548 17.4166L15.5339 17.4096C15.0991 17.2694 14.573 17.2203 14.0119 17.2203C13.2685 17.2203 12.4549 17.3044 11.7044 17.4026C9.96499 17.62 8.60432 18.0198 7.41198 18.6651C6.20561 19.3244 5.11847 20.152 4.10849 21.0428C4.5223 21.4005 4.96417 21.7862 5.4902 22.2562L5.86895 22.5928C6.49317 23.1469 7.13844 23.722 7.76267 24.3042C8.53418 25.0196 9.32674 25.7771 10.1333 26.5556C10.2175 26.6398 10.2946 26.7239 10.3788 26.8081L10.5892 26.6257C11.0732 26.2119 11.5571 25.7911 12.02 25.3843C12.2234 25.2019 12.4268 25.0266 12.6232 24.8512ZM9.69146 29.7539C9.85277 29.5996 9.99305 29.4593 10.1263 29.298C10.3648 29.0034 10.5892 28.6667 10.7435 28.3231C10.7786 28.2529 10.8066 28.1828 10.8137 28.1127C10.8557 27.8391 10.6594 27.5866 10.491 27.3973C10.3087 27.1728 10.1193 26.9554 9.9159 26.759C9.11633 25.9805 8.31676 25.223 7.55225 24.5146C6.92803 23.9395 6.28276 23.3573 5.65853 22.8032L5.27979 22.4666C4.74674 21.9896 4.30487 21.6039 3.88405 21.2392L3.78585 21.155C3.5544 20.9516 3.30892 20.7412 3.04941 20.5728C2.84601 20.4396 2.67066 20.3694 2.49532 20.3694C2.29893 20.3694 2.10255 20.4536 1.88512 20.629C1.53443 20.9095 0.79097 21.9125 0.482364 22.3473C0.117648 22.9505 -0.219014 23.6028 0.180772 24.192C0.769929 25.0546 1.63964 25.7911 2.48129 26.4995C2.7899 26.766 3.09149 27.0115 3.37204 27.271C4.59945 28.3862 5.82686 29.4944 6.98414 30.5324C7.20858 30.7358 7.42601 30.8831 7.62941 30.9603C8.11336 31.1496 8.96202 30.5464 9.3057 30.1537C9.42493 30.0134 9.5582 29.8801 9.69146 29.7539Z" fill="white"/>
</svg>
