<svg xmlns="http://www.w3.org/2000/svg" width="84" height="73" viewBox="0 0 84 73" fill="none">
  <path d="M51.1902 66.5712C49.5732 66.5712 48.0172 65.5339 47.5087 63.8152L40.2068 39.245L21.4334 50.2894L21.0368 57.9676C20.9859 58.9235 20.4978 59.788 19.7046 60.3168C19.1757 60.6727 18.5859 60.8354 18.0164 60.8354C16.7655 60.8354 15.5655 60.0524 15.1383 58.7405L13.44 52.8827L10.4297 54.7234C10.1856 54.876 9.92123 54.937 9.65682 54.937C9.1585 54.937 8.67035 54.6827 8.3856 54.2251C7.95847 53.5234 8.1822 52.6081 8.88392 52.181L11.884 50.3504L7.0737 46.8927C5.53806 45.6011 5.67027 43.1909 7.33811 42.0722C7.8466 41.7264 8.43645 41.5536 9.03646 41.5536C9.37207 41.5536 9.6975 41.6146 10.0229 41.7264L17.2841 44.2587L34.0338 30.082L14.0502 14.0545C12.0264 12.4273 12.1586 9.3052 14.3146 7.86109C14.9654 7.42379 15.718 7.20006 16.4706 7.21022C16.9994 7.21022 17.5282 7.32209 18.0265 7.54583L28.6234 12.2849L29.4472 10.9222C29.8133 10.3222 30.454 9.98657 31.115 9.98657C31.4506 9.98657 31.7964 10.0781 32.1015 10.2612C33.0168 10.8103 33.3117 12.0104 32.7524 12.9155L32.1829 13.8613L36.4338 15.763L37.4711 14.0443C37.8373 13.4443 38.478 13.1087 39.139 13.1087C39.4746 13.1087 39.8204 13.2002 40.1255 13.3833C41.0407 13.9324 41.3357 15.1325 40.7763 16.0376L39.9831 17.3495L47.7833 20.8377L64.6041 9.5391C64.6041 9.5391 70.1466 5.98985 73.94 6.00002C75.0688 6.00002 76.0349 6.32545 76.6655 7.14921C80.2351 11.8476 70.5738 18.8444 70.5738 18.8444L53.9564 30.021L54.2004 37.3941L57.048 37.1907C57.048 37.1907 57.1497 37.1907 57.2005 37.1907C58.1971 37.1907 59.0514 37.9738 59.1226 38.9806C59.204 40.0383 58.3904 40.9739 57.3327 41.0552L54.3326 41.279L54.4852 45.9062L56.2039 45.7842C56.2039 45.7842 56.3056 45.7842 56.3564 45.7842C57.3531 45.7842 58.2073 46.5673 58.2785 47.5741C58.3599 48.6317 57.5463 49.5673 56.4886 49.6487L54.6174 49.7809L55.0445 62.6253C55.0852 63.9474 54.4445 65.2084 53.3462 65.9407C52.675 66.3881 51.9326 66.6017 51.1902 66.6017" fill="#EEEFF2"/>
  <g filter="url(#filter0_d_18_517)">
    <path d="M76.6656 7.14914C73.94 3.55921 64.6042 9.54921 64.6042 9.54921L47.7936 20.8478L39.9933 17.3596L40.7866 16.0477C41.3358 15.1324 41.0408 13.9426 40.1357 13.3934C39.2204 12.8442 38.0306 13.1391 37.4814 14.0442L36.4441 15.7629L32.1931 13.8612L32.7626 12.9154C33.3118 12.0001 33.0169 10.8103 32.1118 10.2611C31.1965 9.71192 30.0066 10.0068 29.4575 10.912L28.6337 12.2747L18.0266 7.53559C16.8164 6.9966 15.413 7.11863 14.3147 7.85086C12.1587 9.29496 12.0265 12.4171 14.0502 14.0442L34.044 30.082L17.2944 44.2586L10.0332 41.7264C9.13825 41.4111 8.14161 41.5433 7.34837 42.0721C5.68052 43.1908 5.54832 45.6011 7.08395 46.8926L11.8943 50.3503L8.89417 52.1809C8.19246 52.608 7.97889 53.5233 8.39585 54.225C8.82298 54.9267 9.73826 55.1403 10.44 54.7233L13.4502 52.8826L15.1486 58.7404C15.7689 60.6523 18.047 61.4354 19.7148 60.3167C20.5081 59.7879 20.9962 58.9133 21.0471 57.9675L21.4437 50.2893L40.2171 39.2449L47.519 63.8151C48.2614 66.3067 51.2004 67.3542 53.3564 65.9101C54.4548 65.1677 55.0955 63.9168 55.0548 62.5948L54.6276 49.7503L56.4989 49.6181C57.5565 49.5368 58.3701 48.6113 58.2888 47.5435C58.2074 46.4858 57.282 45.6722 56.2141 45.7536L54.4954 45.8756L54.3429 41.2484L57.343 41.0247C58.4006 40.9433 59.2142 40.0179 59.1329 38.95C59.0515 37.8924 58.126 37.0788 57.0582 37.1601L54.2107 37.3635L53.9666 29.9905L70.584 18.8139C70.584 18.8139 80.2351 11.8171 76.6757 7.11863L76.6656 7.14914Z" fill="#EEEFF2"/>
  </g>
  <path d="M17.1383 47.0236L8.1878 52.6775C7.52775 53.0945 7.33067 53.9675 7.74762 54.6276L7.86168 54.8081C8.27862 55.4682 9.15169 55.6653 9.81174 55.2483L18.7623 49.5944C19.4223 49.1775 19.6194 48.3044 19.2025 47.6443L19.0884 47.4638C18.6715 46.8037 17.7984 46.6067 17.1383 47.0236Z" fill="#BCBACE"/>
  <path d="M34.0443 30.0922L37.9089 27.4684L20.1423 15.9461C20.1423 15.9461 17.8439 17.0953 18.1185 17.319C18.4032 17.5427 34.0443 30.0922 34.0443 30.0922Z" fill="#BCBACE"/>
  <defs>
    <filter id="filter0_d_18_517" x="0.0102539" y="0.00297928" width="83.4536" height="72.563" filterUnits="userSpaceOnUse" color-interpolation-filters="sRGB">
      <feFlood flood-opacity="0" result="BackgroundImageFix"/>
      <feColorMatrix in="SourceAlpha" type="matrix" values="0 0 0 0 0 0 0 0 0 0 0 0 0 0 0 0 0 0 127 0" result="hardAlpha"/>
      <feOffset/>
      <feGaussianBlur stdDeviation="3"/>
      <feComposite in2="hardAlpha" operator="out"/>
      <feColorMatrix type="matrix" values="0 0 0 0 0.641667 0 0 0 0 0.641667 0 0 0 0 0.641667 0 0 0 0.12 0"/>
      <feBlend mode="normal" in2="BackgroundImageFix" result="effect1_dropShadow_18_517"/>
      <feBlend mode="normal" in="SourceGraphic" in2="effect1_dropShadow_18_517" result="shape"/>
    </filter>
  </defs>
</svg>
